<?xml version="1.0" encoding="utf-8"?>
<!-- Generator: Adobe Illustrator 19.0.0, SVG Export Plug-In . SVG Version: 6.00 Build 0)  -->
<svg version="1.1" id="main" xmlns="http://www.w3.org/2000/svg" xmlns:xlink="http://www.w3.org/1999/xlink" x="0px" y="0px"
	 viewBox="-173 51.5 493.8 493.8" style="enable-background:new -173 51.5 493.8 493.8;" xml:space="preserve">
<style type="text/css">
	.st0{fill:#3B3F44;}
</style>
<path class="st0" d="M117.7,454.1H30.1c-6.8,0-12.3,5.5-12.3,12.3s5.5,12.3,12.3,12.3h87.6c6.8,0,12.3-5.5,12.3-12.3
	C129.9,459.6,124.4,454.1,117.7,454.1z"/>
<path class="st0" d="M51.3,525.7c1.7,11,11.1,19.5,22.6,19.5s20.9-8.5,22.6-19.5c15-0.9,27-13.2,27-28.5H24.3
	C24.2,512.5,36.2,524.9,51.3,525.7z"/>
<path class="st0" d="M73.9,122.4c9.1,0,16.4-7.3,16.4-16.4V67.9c0-9-7.3-16.4-16.4-16.4s-16.4,7.3-16.4,16.4V106
	C57.5,115,64.8,122.4,73.9,122.4z"/>
<path class="st0" d="M-33.6,146.2c3.2,4.4,8.2,6.8,13.3,6.8c3.3,0,6.7-1,9.6-3.1c7.3-5.3,8.9-15.6,3.6-22.9l-22.4-30.8
	c-5.3-7.3-15.5-9-22.9-3.6c-7.3,5.3-8.9,15.6-3.6,22.9L-33.6,146.2z"/>
<path class="st0" d="M181.4,386.3c-5.3-7.3-15.5-8.9-22.9-3.6c-7.3,5.3-8.9,15.6-3.6,22.9l22.4,30.8c3.2,4.4,8.2,6.8,13.3,6.8
	c3.3,0,6.7-1,9.6-3.1c7.3-5.3,8.9-15.6,3.6-22.9L181.4,386.3z"/>
<path class="st0" d="M-73.5,201.2l-36.3-11.8c-8.7-2.8-17.8,1.9-20.6,10.5c-2.8,8.6,1.9,17.8,10.5,20.6l36.3,11.8
	c1.7,0.5,3.4,0.8,5.1,0.8c6.9,0,13.3-4.4,15.6-11.3C-60.2,213.2-64.9,204-73.5,201.2z"/>
<path class="st0" d="M267.6,312l-36.2-11.8c-8.6-2.8-17.8,1.9-20.6,10.5c-2.8,8.6,1.9,17.8,10.5,20.6l36.3,11.8
	c1.7,0.5,3.4,0.8,5.1,0.8c6.9,0,13.3-4.4,15.6-11.3C281,324.1,276.3,314.8,267.6,312z"/>
<path class="st0" d="M-83.6,300.3l-36.3,11.8c-8.6,2.8-13.3,12-10.5,20.6c2.2,6.9,8.7,11.3,15.6,11.3c1.7,0,3.4-0.3,5.1-0.8
	l36.3-11.8c8.6-2.8,13.3-12,10.5-20.6C-65.8,302.2-74.9,297.5-83.6,300.3z"/>
<path class="st0" d="M226.3,233.1c1.7,0,3.4-0.3,5.1-0.8l36.2-11.8c8.6-2.8,13.3-12,10.5-20.6s-12.1-13.3-20.6-10.5l-36.3,11.8
	c-8.6,2.8-13.3,12-10.5,20.6C213,228.7,219.4,233.1,226.3,233.1z"/>
<path class="st0" d="M-33.6,386.3L-56,417.1c-5.3,7.3-3.7,17.6,3.6,22.9c2.9,2.1,6.3,3.1,9.6,3.1c5.1,0,10.1-2.3,13.3-6.7l22.4-30.8
	c5.3-7.3,3.7-17.6-3.6-22.9C-18,377.4-28.3,379-33.6,386.3z"/>
<path class="st0" d="M177.3,96.1l-22.4,30.8c-5.3,7.3-3.7,17.6,3.6,22.9c2.9,2.1,6.3,3.1,9.6,3.1c5.1,0,10.1-2.3,13.3-6.8l22.4-30.8
	c5.3-7.3,3.7-17.6-3.6-22.9C192.8,87.2,182.6,88.8,177.3,96.1z"/>
<path class="st0" d="M73.9,168.4c54.3,0,98.5,44.2,98.5,98.5c0,22.2-7.3,43.2-21.1,60.7c-12.9,16.4-28.1,38.6-40.5,59.3
	c-1.8,3.1-2.8,6.6-2.8,10.2v18.4H39.2V396c0-3.5-0.9-7-2.7-10.1c-11.8-20-25.6-40.2-39.9-58.4C-17.2,310-24.5,289-24.5,266.8
	C-24.6,212.6,19.6,168.4,73.9,168.4 M73.9,148.6c-65.4,0-118.3,53-118.3,118.3c0,27.6,9.5,52.9,25.3,73c13.9,17.6,27,36.8,38.4,56.2
	v39.3h108.5v-38.3c11.3-18.8,25.9-40.5,39.1-57.2c15.9-20.1,25.3-45.4,25.3-73C192.2,201.5,139.2,148.6,73.9,148.6L73.9,148.6z"/>
</svg>
