<?xml version="1.0" encoding="utf-8"?>
<!-- Generator: Adobe Illustrator 19.0.0, SVG Export Plug-In . SVG Version: 6.00 Build 0)  -->
<svg version="1.1" id="main" xmlns="http://www.w3.org/2000/svg" xmlns:xlink="http://www.w3.org/1999/xlink" x="0px" y="0px"
	 viewBox="-886 297.7 493.8 493.8" style="enable-background:new -886 297.7 493.8 493.8;" xml:space="preserve">
<style type="text/css">
	.st0{fill:#F5F5F5;}
</style>
<path class="st0" d="M-595.3,700.3h-87.6c-6.8,0-12.3,5.5-12.3,12.3s5.5,12.3,12.3,12.3h87.6c6.8,0,12.3-5.5,12.3-12.3
	C-583.1,705.8-588.6,700.3-595.3,700.3z"/>
<path class="st0" d="M-661.7,771.9c1.7,11,11.1,19.5,22.6,19.5s20.9-8.5,22.6-19.5c15-0.9,27-13.2,27-28.5h-99.2
	C-688.8,758.7-676.8,771.1-661.7,771.9z"/>
<path class="st0" d="M-639.1,368.6c9.1,0,16.4-7.3,16.4-16.4v-38.1c0-9-7.3-16.4-16.4-16.4s-16.4,7.3-16.4,16.4v38.1
	C-655.5,361.2-648.2,368.6-639.1,368.6z"/>
<path class="st0" d="M-746.6,392.4c3.2,4.4,8.2,6.8,13.3,6.8c3.3,0,6.7-1,9.6-3.1c7.3-5.3,8.9-15.6,3.6-22.9l-22.4-30.8
	c-5.3-7.3-15.5-9-22.9-3.6c-7.3,5.3-8.9,15.6-3.6,22.9L-746.6,392.4z"/>
<path class="st0" d="M-531.6,632.5c-5.3-7.3-15.5-8.9-22.9-3.6c-7.3,5.3-8.9,15.6-3.6,22.9l22.4,30.8c3.2,4.4,8.2,6.8,13.3,6.8
	c3.3,0,6.7-1,9.6-3.1c7.3-5.3,8.9-15.6,3.6-22.9L-531.6,632.5z"/>
<path class="st0" d="M-786.5,447.4l-36.3-11.8c-8.7-2.8-17.8,1.9-20.6,10.5c-2.8,8.6,1.9,17.8,10.5,20.6l36.3,11.8
	c1.7,0.5,3.4,0.8,5.1,0.8c6.9,0,13.3-4.4,15.6-11.3C-773.2,459.4-777.9,450.2-786.5,447.4z"/>
<path class="st0" d="M-445.4,558.2l-36.2-11.8c-8.6-2.8-17.8,1.9-20.6,10.5c-2.8,8.6,1.9,17.8,10.5,20.6l36.3,11.8
	c1.7,0.5,3.4,0.8,5.1,0.8c6.9,0,13.3-4.4,15.6-11.3C-432,570.3-436.7,561-445.4,558.2z"/>
<path class="st0" d="M-796.6,546.5l-36.3,11.8c-8.6,2.8-13.3,12-10.5,20.6c2.2,6.9,8.7,11.3,15.6,11.3c1.7,0,3.4-0.3,5.1-0.8
	l36.3-11.8c8.6-2.8,13.3-12,10.5-20.6C-778.8,548.4-787.9,543.7-796.6,546.5z"/>
<path class="st0" d="M-486.7,479.3c1.7,0,3.4-0.3,5.1-0.8l36.2-11.8c8.6-2.8,13.3-12,10.5-20.6s-12.1-13.3-20.6-10.5l-36.3,11.8
	c-8.6,2.8-13.3,12-10.5,20.6C-500,474.9-493.6,479.3-486.7,479.3z"/>
<path class="st0" d="M-746.6,632.5l-22.4,30.8c-5.3,7.3-3.7,17.6,3.6,22.9c2.9,2.1,6.3,3.1,9.6,3.1c5.1,0,10.1-2.3,13.3-6.7
	l22.4-30.8c5.3-7.3,3.7-17.6-3.6-22.9C-731,623.6-741.3,625.2-746.6,632.5z"/>
<path class="st0" d="M-535.7,342.3l-22.4,30.8c-5.3,7.3-3.7,17.6,3.6,22.9c2.9,2.1,6.3,3.1,9.6,3.1c5.1,0,10.1-2.3,13.3-6.8
	l22.4-30.8c5.3-7.3,3.7-17.6-3.6-22.9C-520.2,333.4-530.4,335-535.7,342.3z"/>
<path class="st0" d="M-639.1,414.6c54.3,0,98.5,44.2,98.5,98.5c0,22.2-7.3,43.2-21.1,60.7c-12.9,16.4-28.1,38.6-40.5,59.3
	c-1.8,3.1-2.8,6.6-2.8,10.2v18.4h-68.8v-19.5c0-3.5-0.9-7-2.7-10.1c-11.8-20-25.6-40.2-39.9-58.4c-13.8-17.5-21.1-38.5-21.1-60.7
	C-737.6,458.8-693.4,414.6-639.1,414.6 M-639.1,394.8c-65.4,0-118.3,53-118.3,118.3c0,27.6,9.5,52.9,25.3,73
	c13.9,17.6,27,36.8,38.4,56.2v39.3h108.5v-38.3c11.3-18.8,25.9-40.5,39.1-57.2c15.9-20.1,25.3-45.4,25.3-73
	C-520.8,447.7-573.8,394.8-639.1,394.8L-639.1,394.8z"/>
</svg>
