<?xml version="1.0" encoding="utf-8"?>
<!-- Generator: Adobe Illustrator 19.0.0, SVG Export Plug-In . SVG Version: 6.00 Build 0)  -->
<svg version="1.1" id="bulb-off" xmlns="http://www.w3.org/2000/svg" xmlns:xlink="http://www.w3.org/1999/xlink" x="0px" y="0px"
	 viewBox="-886 297.7 493.8 493.8" style="enable-background:new -886 297.7 493.8 493.8;" xml:space="preserve">
<style type="text/css">
	.st0{fill:#F5F5F5;}
</style>
<path class="st0" d="M-639.1,346.3c-65.4,0-118.3,53-118.3,118.3c0,27.6,9.5,52.9,25.3,73c13.9,17.6,27,36.8,38.4,56.2v39.3h108.5
	v-38.3c11.3-18.8,25.9-40.5,39.1-57.2c15.9-20.1,25.3-45.4,25.3-73C-520.8,399.2-573.8,346.3-639.1,346.3z M-639.1,385.9
	c-43.4,0-78.7,35.3-78.7,78.6c0,6.3-5.1,11.3-11.3,11.3s-11.3-5.1-11.3-11.3c0-55.9,45.5-101.3,101.3-101.3
	c6.3,0,11.3,5.1,11.3,11.3S-632.9,385.9-639.1,385.9z"/>
<path class="st0" d="M-595.3,651.8h-87.6c-6.8,0-12.3,5.5-12.3,12.3s5.5,12.3,12.3,12.3h87.6c6.8,0,12.3-5.5,12.3-12.3
	C-583.1,657.3-588.6,651.8-595.3,651.8z"/>
<path class="st0" d="M-661.7,723.4c1.7,11,11.1,19.5,22.6,19.5s20.9-8.5,22.6-19.5c15-0.9,27-13.2,27-28.5h-99.2
	C-688.8,710.2-676.8,722.6-661.7,723.4z"/>
</svg>
