<svg id="main" fill="#000000" height="24" viewBox="-2113 981.2 24 24" width="24" xmlns="http://www.w3.org/2000/svg">
	<path fill="#F5D678" d="M-2101,984.2c5,0,9,4,9,9s-4,9-9,9s-9-4-9-9S-2106,984.2-2101,984.2"/>
	<path d="M-4214,1976.4l-4-4h8L-4214,1976.4z"/>
	<path d="M-4214,1965.4c5,0,9,4,9,9s-4,9-9,9s-9-4-9-9S-4219,1965.4-4214,1965.4 M-4214,1964.4c-5.5,0-10,4.5-10,10s4.5,10,10,10
	s10-4.5,10-10S-4208.5,1964.4-4214,1964.4L-4214,1964.4z"/>
	<path d="M-2101,995.8l-5-5h10L-2101,995.8z"/>
	<path d="M-2101,984.2c5,0,9,4,9,9s-4,9-9,9s-9-4-9-9S-2106,984.2-2101,984.2 M-2101,983.2c-5.5,0-10,4.5-10,10s4.5,10,10,10
	s10-4.5,10-10S-2095.5,983.2-2101,983.2L-2101,983.2z"/>
</svg>