<?xml version="1.0" encoding="iso-8859-1"?>
<!-- Generator: Adobe Illustrator 18.0.0, SVG Export Plug-In . SVG Version: 6.00 Build 0)  -->
<!DOCTYPE svg PUBLIC "-//W3C//DTD SVG 1.1//EN" "http://www.w3.org/Graphics/SVG/1.1/DTD/svg11.dtd">
<svg version="1.1" id="Capa_1" xmlns="http://www.w3.org/2000/svg" xmlns:xlink="http://www.w3.org/1999/xlink" x="0px" y="0px"
	 viewBox="0 0 486.463 486.463" style="enable-background:new 0 0 486.463 486.463;" xml:space="preserve">
<g>
	<path d="M449.002,463.274V98.111H37.461v365.163h50.651V299.712c0-85.533,69.586-155.12,155.119-155.12
		s155.12,69.586,155.12,155.12v163.561H449.002z"/>
	<path d="M333.457,463.274h43.789V299.712c0-73.896-60.12-134.014-134.015-134.014c-73.896,0-134.015,60.119-134.015,134.014
		v163.561h45.202c-17.487-35.4-12.33-73.83-12.036-75.886c0.434-3.04,2.171-5.74,4.758-7.396
		c18.939-12.12,36.352-11.488,47.427-8.942c7.708-29.234,10.245-58.696,10.272-59.026c0.236-2.807,1.584-5.406,3.746-7.214
		c2.161-1.808,4.959-2.681,7.762-2.412c26.597,2.509,47.594,17.083,60.722,42.147c3.454,6.593,5.913,13.088,7.649,18.724
		c3.364-4.714,6.355-10.472,8.082-15.047c1.141-3.022,3.603-5.355,6.682-6.332c3.077-0.978,6.435-0.491,9.11,1.321
		c30.61,20.736,42.256,52.714,33.68,92.478C340.066,445.908,336.786,455.334,333.457,463.274z"/>
	<path d="M486.463,58.012V42.183c0-10.473-8.52-18.994-18.994-18.994H18.994C8.521,23.189,0,31.71,0,42.184v15.829
		c0,10.473,8.521,18.994,18.994,18.994h448.475C477.942,77.006,486.463,68.486,486.463,58.012z"/>
	<path d="M281.041,392.167c-2.995,0.854-6.212,0.344-8.794-1.395c-2.582-1.739-4.264-4.529-4.597-7.625
		c-0.232-2.057-5.782-47.302-43.025-57.845c-1.762,14.156-5.609,39.125-12.915,62.503c-0.963,3.08-3.182,5.607-6.196,6.763
		c-2.997,1.149-6.256,0.927-9.022-0.696c-1.182-0.618-15.609-7.75-33.649,1.414c-0.726,11.876-0.715,42.972,15.945,67.986h131.498
		c4.009-8.24,8.772-19.788,11.461-32.538c5.498-26.057,0.348-46.923-15.306-62.203C301.162,377.773,292.662,388.846,281.041,392.167
		z"/>
</g>
<g>
</g>
<g>
</g>
<g>
</g>
<g>
</g>
<g>
</g>
<g>
</g>
<g>
</g>
<g>
</g>
<g>
</g>
<g>
</g>
<g>
</g>
<g>
</g>
<g>
</g>
<g>
</g>
<g>
</g>
</svg>
