<?xml version="1.0" encoding="iso-8859-1"?>
<!-- Generator: Adobe Illustrator 18.0.0, SVG Export Plug-In . SVG Version: 6.00 Build 0)  -->
<!DOCTYPE svg PUBLIC "-//W3C//DTD SVG 1.1//EN" "http://www.w3.org/Graphics/SVG/1.1/DTD/svg11.dtd">
<svg version="1.1" id="Capa_1" xmlns="http://www.w3.org/2000/svg" xmlns:xlink="http://www.w3.org/1999/xlink" x="0px" y="0px"
	 viewBox="0 0 473.996 473.996" style="enable-background:new 0 0 473.996 473.996;" xml:space="preserve">
<g>
	<path d="M321.68,133.527c2.048-2.564,2.678-6.167,1.776-10.145L299.684,18.544c-2.24-9.878-13.09-18.543-23.219-18.543L197.533,0
		c-10.129,0-20.979,8.665-23.219,18.543L150.54,123.384c-0.902,3.978-0.271,7.58,1.775,10.144c2.047,2.563,5.421,3.975,9.501,3.975
		h150.363C316.259,137.503,319.633,136.091,321.68,133.527z"/>
	<path d="M271.516,453.996h-24.519V157.503h-20v296.493H202.48c-5.523,0-10,4.478-10,10s4.477,10,10,10h69.037
		c5.522,0,10-4.478,10-10S277.039,453.996,271.516,453.996z"/>
</g>
<g>
</g>
<g>
</g>
<g>
</g>
<g>
</g>
<g>
</g>
<g>
</g>
<g>
</g>
<g>
</g>
<g>
</g>
<g>
</g>
<g>
</g>
<g>
</g>
<g>
</g>
<g>
</g>
<g>
</g>
</svg>
