<?xml version="1.0" encoding="UTF-8" standalone="no"?>
<svg width="128px" height="128px" viewBox="0 0 128 128" version="1.1" xmlns="http://www.w3.org/2000/svg" xmlns:xlink="http://www.w3.org/1999/xlink" xmlns:sketch="http://www.bohemiancoding.com/sketch/ns">
    <!-- Generator: Sketch 3.3.3 (12081) - http://www.bohemiancoding.com/sketch -->
    <title>Slice 1</title>
    <desc>Created with Sketch.</desc>
    <defs></defs>
    <g id="Page-1" stroke="none" stroke-width="1" fill="none" fill-rule="evenodd" sketch:type="MSPage">
        <g id="logo-dark" sketch:type="MSLayerGroup" fill="#FAFAFA">
            <g id="fg" sketch:type="MSShapeGroup">
                <path d="M122.835,88.854 C126.163,80.981 127.852,72.62 127.852,64 C127.852,55.378 126.164,47.017 122.834,39.146 C119.613,31.541 115.012,24.711 109.146,18.851 C103.285,12.986 96.457,8.383 88.851,5.167 C80.98,1.837 72.619,0.149 64,0.149 C55.381,0.149 47.019,1.837 39.147,5.168 C31.543,8.383 24.714,12.987 18.85,18.851 C12.986,24.717 8.383,31.545 5.168,39.147 C1.838,47.018 0.149,55.379 0.149,64.001 C0.149,72.619 1.837,80.98 5.167,88.855 C8.381,96.456 12.985,103.284 18.85,109.15 C24.716,115.015 31.544,119.62 39.146,122.835 C47.019,126.164 55.38,127.852 64,127.852 C72.625,127.852 80.984,126.164 88.854,122.835 C96.458,119.619 103.289,115.016 109.151,109.15 C115.012,103.289 119.613,96.461 122.835,88.854 L122.835,88.854 Z M63.993,127.198 C55.466,127.198 47.19,125.527 39.396,122.232 C31.875,119.049 25.117,114.496 19.311,108.691 C13.508,102.884 8.951,96.129 5.769,88.605 C5.203,87.258 4.677,85.88 4.207,84.506 C4.02,83.97 3.876,83.538 3.738,83.101 C1.777,76.82 0.811,70.459 0.811,63.999 C0.811,55.47 2.481,47.194 5.776,39.403 C8.959,31.88 13.515,25.122 19.318,19.319 C25.12,13.517 31.878,8.96 39.404,5.776 C47.194,2.481 55.469,0.812 64,0.812 C72.527,0.812 80.807,2.482 88.598,5.775 C96.119,8.959 102.876,13.515 108.684,19.318 C114.487,25.122 119.042,31.88 122.227,39.402 C125.52,47.195 127.19,55.472 127.19,63.999 C127.19,70.531 126.205,76.953 124.256,83.085 L115.735,83.189 C114.907,83.189 113.92,82.517 113.534,81.695 L113.364,81.335 L114.686,81.911 C115.002,81.326 115.141,81.064 115.356,80.878 C116.002,80.329 116.008,79.769 115.791,78.86 C115.468,77.531 115.214,76.162 114.968,74.838 C114.857,74.235 114.744,73.633 114.625,73.032 C114.54,72.61 114.444,72.19 114.351,71.77 L114.228,71.229 C113.976,70.863 113.718,70.499 113.461,70.133 C112.849,69.264 112.214,68.364 111.644,67.445 C111.17,66.683 111.564,65.957 111.914,65.314 C112.924,63.392 113.279,61.86 113.13,60.291 C113.056,59.67 113.023,59.399 113.023,59.123 L113.027,58.643 L113.298,59.04 C113.926,59.96 114.131,61.037 113.905,62.239 C113.717,63.239 113.494,64.303 113.108,65.314 C112.449,67.052 112.684,68.566 113.834,69.937 C114.024,70.167 114.187,70.427 114.337,70.677 C114.401,70.786 114.47,70.898 114.538,71.002 L114.958,71.312 L114.233,69.386 C114.824,69.326 115.104,69.298 115.406,69.266 C115.33,69.156 115.251,69.046 115.173,68.94 C114.69,68.282 114.19,67.6 114.422,66.533 L115.049,66.998 C115.123,66.59 115.098,66.277 114.969,66.065 C114.208,64.817 114.341,63.5 114.526,62.361 C114.809,60.616 114.504,59.062 113.614,57.743 C112.336,55.842 109.206,54.297 106.637,54.297 C106.188,54.297 105.766,54.344 105.383,54.438 C102.365,55.176 98.756,55.926 95.05,55.813 C92.088,55.717 89.331,55.106 86.856,53.997 L86.596,52.203 L85.07,52.203 L85.392,51.354 L83.879,52.053 L84.442,50.996 L83.27,51.248 L83.69,50.644 L82.266,50.794 L82.425,50.347 C82.499,50.138 82.565,49.962 82.628,49.78 C82.167,49.884 81.754,49.976 81.344,50.071 C81.15,49.934 81.056,49.71 81.056,49.71 L81.806,49.154 C80.743,49.155 79.906,49.061 79.507,48.067 L79.304,48.817 L78.047,48.143 L78.467,51.055 C78.267,51.1 77.832,51.203 77.832,51.203 C77.849,49.615 77.192,48.529 76.502,47.379 C76.379,47.176 76.256,46.971 76.138,46.766 C75.712,46.03 75.381,45.229 75.064,44.454 C74.886,44.026 74.705,43.583 74.507,43.158 C74.371,42.866 74.195,42.582 74.023,42.307 C73.961,42.209 73.697,42.059 73.697,42.059 L73.981,46.158 L73.61,45.055 C73.254,44.001 72.952,43.114 72.656,42.245 C72.324,42.297 72.23,42.453 72.228,42.582 C72.207,43.505 72.195,44.204 72.336,44.85 C72.547,45.801 72.812,46.758 73.065,47.684 C73.233,48.295 73.401,48.907 73.557,49.52 C73.629,49.811 73.604,50.171 73.49,50.44 C73.341,50.791 73.167,51.133 72.999,51.467 C72.789,51.883 72.569,52.313 72.403,52.749 C72.246,53.168 72.091,53.592 71.938,54.018 C72.077,53.815 72.305,53.6 72.663,53.6 C73.142,53.6 73.526,53.74 73.838,53.852 C74.017,53.916 74.169,53.973 74.273,53.973 C74.402,53.964 74.572,53.88 74.709,53.813 L75.341,53.506 L74.968,54.001 C74.769,54.196 75.72,54.547 75.72,54.547 L74.915,54.547 C74.747,54.527 74.656,54.476 74.434,54.642 C74.172,54.958 73.848,55.357 73.219,55.357 C72.43,55.357 72.067,54.849 71.987,54.582 C71.641,54.86 71.471,55.351 71.305,55.835 C71.117,56.381 70.93,56.924 70.74,57.467 C70.616,57.818 70.485,58.165 70.354,58.512 C70.153,59.047 69.947,59.6 69.768,60.15 C69.865,60.541 69.949,60.699 69.949,60.94 C69.949,61.167 69.854,61.307 69.751,61.393 C69.894,61.833 70.205,62.263 70.703,62.704 C71.227,63.165 71.557,63.172 71.914,62.734 C71.995,62.638 72.328,62.633 72.328,62.633 L72.398,63.019 C73.076,62.735 73.441,62.429 73.515,62.088 C73.593,61.728 73.357,61.268 72.788,60.685 C72.502,60.391 72.338,59.989 72.181,59.6 C72.109,59.42 72.035,59.242 71.951,59.074 C71.697,58.565 71.437,58.057 71.199,57.591 C71.902,57.267 72.185,57.815 72.38,58.347 C72.66,59.107 72.837,59.589 73.091,60.003 C73.33,60.383 73.632,60.732 73.983,61.136 C74.127,61.301 74.276,61.475 74.432,61.662 C75.139,61.208 75.61,60.909 76.059,60.582 C76.216,60.467 76.358,60.325 76.506,60.175 C76.69,59.99 76.879,59.799 77.11,59.659 C78.634,58.713 79.02,57.691 78.483,56.019 C78.358,55.632 78.212,55.243 78.071,54.866 C78.005,54.683 77.934,54.502 77.871,54.32 L77.559,53.456 L78.128,54.176 C79.454,55.844 79.713,57.385 78.993,59.327 C78.931,59.494 78.962,59.797 79.05,59.896 C80.696,61.737 82.438,63.647 84.369,65.736 C84.484,65.863 84.658,65.952 84.839,66.046 C84.877,66.067 84.407,65.462 84.407,65.462 C83.068,63.863 82.749,62.139 83.423,60.191 C83.643,59.557 83.764,58.873 83.882,58.211 C83.942,57.879 84,57.548 84.07,57.22 C84.099,57.082 84.142,56.947 84.187,56.812 L84.548,56.578 C84.622,56.596 84.518,58.474 84.518,58.474 C84.344,59.257 84.171,60.04 83.999,60.825 C84.665,59.236 85.331,57.646 85.997,56.058 L86.393,55.12 L86.288,56.133 C86.176,57.194 85.994,58.036 85.715,58.787 C85.504,59.357 85.234,59.914 84.97,60.453 C84.79,60.822 84.605,61.204 84.441,61.585 C83.95,62.734 84.094,63.8 84.902,64.939 C85.292,65.486 85.795,66.328 85.984,67.232 C86.461,69.454 86.838,71.73 87.208,73.931 L87.385,74.978 C87.588,76.163 87.798,77.384 87.839,78.601 C87.86,79.209 87.663,79.929 87.235,80.797 L88.704,81.243 C89.948,79.514 89.94,79.268 88.849,77.393 C88.66,77.065 88.588,76.673 88.521,76.296 C88.492,76.128 88.459,75.959 88.417,75.797 L88.87,75.517 C89.002,75.872 89.083,76.095 89.165,76.32 C89.324,76.232 89.34,75.89 89.359,75.549 C89.404,74.707 89.449,73.865 89.478,73.024 C89.517,71.845 89.556,70.477 89.533,69.125 C89.529,68.937 89.425,68.735 89.312,68.522 C89.136,68.735 89.018,68.94 89.004,69.135 C88.984,69.452 88.977,69.77 88.967,70.087 C88.947,70.741 88.929,71.418 88.819,72.1 L88.619,73.315 L88.52,72.086 C88.502,71.868 88.479,71.648 88.455,71.434 C88.399,70.944 88.345,70.436 88.371,69.934 C88.446,68.36 88.224,67.141 86.881,66.319 C86.982,66 87.078,65.934 87.18,65.867 C87.476,65.99 87.579,66.092 87.684,66.197 C87.932,66.437 88.188,66.687 88.413,66.956 C88.92,67.55 89.352,67.848 90.003,67.624 C90.689,67.383 91.077,66.839 91.067,66.133 C91.059,65.678 90.905,65.203 90.755,64.744 C90.708,64.603 90.661,64.462 90.62,64.322 C90.54,64.059 90.448,63.801 90.354,63.542 C90.209,63.141 90.063,62.726 89.966,62.3 C89.906,62.046 89.99,61.777 90.059,61.56 C90.08,61.486 90.223,60.821 90.223,60.821 L90.405,61.339 C90.513,61.657 90.632,61.972 90.747,62.287 C91.014,63.011 91.288,63.759 91.485,64.516 C91.636,65.121 91.702,65.744 91.768,66.401 C91.795,66.667 91.825,66.938 91.86,67.213 L94.387,67.534 L93.72,67.738 C93.321,67.861 92.903,67.873 92.509,67.873 C91.403,67.872 90.699,67.926 90.061,68.545 C92.468,69.276 94.725,69.957 97.071,69.957 C97.649,69.957 98.22,69.914 98.774,69.829 C101.067,69.476 103.202,68.506 105.126,66.939 C104.677,67.06 104.235,67.201 103.794,67.344 C102.692,67.7 101.554,68.07 100.407,68.327 C98.813,68.686 97.157,68.66 95.091,68.229 L93.979,68 L95.11,67.936 C95.688,67.901 96.248,67.879 96.789,67.86 C98.004,67.815 99.149,67.772 100.263,67.589 C101.177,67.442 102.082,67.094 102.957,66.76 C103.28,66.636 103.604,66.512 103.933,66.399 C104.162,66.319 104.297,66.218 104.351,66.09 C104.413,65.944 104.377,65.731 104.244,65.44 C103.773,64.431 103.414,63.31 103.973,61.94 L104.153,61.5 L104.258,61.964 C104.365,62.372 104.39,62.468 104.39,62.573 C104.301,64.437 105.07,65.996 106.736,67.344 C107.702,68.123 108.648,68.961 109.562,69.772 C110.583,70.672 111.502,71.633 111.822,73 C111.892,73.307 112.051,73.622 112.242,73.848 C113.513,75.309 113.715,77.112 113.904,78.852 C114.029,79.969 113.644,80.526 113.273,81.063 C113.177,81.202 113.083,81.338 112.995,81.483 C112.786,81.832 112.556,82.165 112.308,82.514 C112.18,82.7 112.049,82.887 111.915,83.087 L106.657,83.152 L107.454,82.861 C108.577,82.452 108.62,81.861 108.6,80.929 C108.578,80.001 109.006,79.066 109.421,78.158 C109.824,77.27 110.167,76.67 110.498,76.091 C110.76,75.637 111.029,75.165 111.266,74.692 C111.387,74.452 111.412,74.057 111.323,73.731 C110.666,71.326 108.811,69.86 107.018,68.442 C106.718,68.205 106.418,67.966 106.123,67.727 C106.041,67.659 105.877,67.643 105.718,67.627 C105.609,67.865 105.598,68.048 105.648,68.112 C106.26,68.856 106.925,69.591 107.627,70.297 C107.815,70.485 108.029,70.638 108.261,70.798 C108.442,70.924 108.626,71.056 108.795,71.201 C109.867,72.133 110.083,73.287 109.418,74.539 C108.945,75.431 108.43,76.311 107.939,77.134 C107.857,77.273 107.773,77.406 107.689,77.541 C107.205,78.322 106.746,79.062 106.769,80.062 C106.785,80.718 106.638,81.371 106.486,82.058 C106.417,82.367 106.344,82.681 106.287,83.006 C106.069,83.135 105.989,83.144 105.909,83.15 C105.735,83.166 105.567,83.179 105.397,83.179 L99.11,83.179 C96.077,83.179 93.045,83.181 90.007,83.189 C89.695,83.189 89.421,83.177 89.213,83.049 C88.986,82.91 88.876,82.658 88.876,82.278 C88.876,82.242 88.777,82.104 88.49,81.928 C87.947,81.614 87.627,81.434 87.362,81.117 C86.916,81.414 86.569,81.881 86.201,82.374 C86.029,82.603 85.853,82.837 85.68,83.087 L52.166,83.15 C52.028,82.888 51.939,82.707 51.851,82.527 C51.645,82.109 51.45,81.713 51.197,81.359 C51.116,81.247 50.947,81.157 50.782,81.071 C50.557,80.952 50.324,80.829 50.258,80.611 C50.206,80.439 50.15,80.265 50.092,80.09 C49.815,79.241 49.528,78.365 49.689,77.571 C49.778,77.133 49.859,76.688 49.939,76.244 C50.331,74.088 50.735,71.858 52.219,70.013 C52.417,69.767 52.476,69.328 52.516,69.04 C52.671,67.875 52.811,66.698 52.959,65.452 L53.109,64.196 L52.666,64.098 C51.884,63.925 51.022,63.734 50.154,63.539 C50.085,64.181 50.026,64.802 49.967,65.406 C49.833,66.803 49.706,68.126 49.493,69.434 C49.365,70.215 49.265,71.018 49.168,71.792 C48.895,73.987 48.611,76.258 47.667,78.368 C47.589,78.541 47.764,79.056 47.938,79.168 C49.048,79.874 49.143,80.941 49.08,81.991 C49.03,82.827 48.612,83.2 47.725,83.2 C43.973,83.176 40.314,83.17 37.542,83.17 C34.373,83.17 31.204,83.178 28.035,83.178 C26.311,83.178 26.248,83.13 25.766,81.53 C25.61,81.009 25.392,80.942 25.22,80.942 C25.07,80.942 24.88,81.004 24.655,81.125 C24.468,81.228 24.271,81.306 24.08,81.382 C23.987,81.418 23.657,81.556 23.657,81.556 L23.521,81.179 C23.994,80.823 24.183,80.683 24.382,80.534 C23.348,79.743 21.981,78.343 21.898,77.638 C21.635,75.396 21.414,73.159 21.24,70.982 C21.204,70.55 21.35,70.019 21.604,69.661 C21.934,69.197 22.274,68.743 22.618,68.288 C23.052,68.423 23.278,68.584 23.503,68.745 C24.489,69.453 25.421,70.122 26.256,70.932 C27.066,71.715 27.762,72.635 28.436,73.526 C28.736,73.922 29.036,74.317 29.346,74.704 L29.258,75.238 C28.937,75.119 28.779,75.084 28.639,75.084 C28.067,75.084 27.847,75.628 27.706,76.16 C27.45,77.139 27.96,77.948 28.5,78.808 C30.545,77.477 30.532,75.458 30.318,72.995 C30.297,72.752 30.101,72.434 29.753,72.082 C28.384,70.692 26.92,69.22 25.388,67.778 C24.801,67.223 24.753,66.753 25.222,66.153 C25.365,65.971 25.509,65.791 25.653,65.608 C26.251,64.856 26.868,64.08 27.393,63.267 C27.918,62.454 28.393,61.589 28.852,60.752 C29.032,60.424 29.211,60.098 29.394,59.773 C28.945,59.533 28.813,59.511 28.685,59.509 C29.078,58.718 29.736,58.583 30.5,58.864 C31.044,59.063 31.608,59.246 32.152,59.423 C32.915,59.669 33.704,59.925 34.46,60.234 C37.887,61.629 41.675,62.223 46.172,62.057 C46.743,62.036 47.043,61.958 47.172,61.795 C47.301,61.633 47.31,61.329 47.2,60.746 C46.952,59.427 46.719,58.188 46.647,56.956 C46.518,54.757 46.982,53.026 48.067,51.667 C48.266,51.419 48.515,51.214 48.755,51.017 C48.864,50.927 48.974,50.837 49.079,50.744 C49.354,50.827 49.411,50.892 49.467,50.956 C49.428,51.203 49.386,51.261 49.344,51.321 C49.247,51.459 49.146,51.599 49.023,51.724 C48.274,52.474 47.82,53.417 47.592,54.69 C47.203,56.882 47.472,59.179 48.44,61.92 C48.68,62.6 49.079,62.877 49.819,62.878 C50.072,62.878 50.268,62.876 50.463,62.874 C50.66,62.872 50.858,62.87 51.056,62.87 C51.638,62.87 52.322,62.889 52.982,63.016 C53.915,63.199 54.851,63.428 55.757,63.65 C57.927,64.181 60.168,64.724 62.423,64.64 C62.668,65.222 62.772,65.677 62.876,66.126 C63.114,67.164 63.34,68.146 63.405,69.158 C63.468,70.129 63.358,71.123 63.252,72.084 C63.204,72.517 63.155,72.947 63.123,73.382 C62.803,73.478 62.661,73.458 62.504,73.458 C61.741,73.458 60.911,73.899 60.889,74.317 C60.85,75.083 60.889,75.866 60.928,76.623 C60.942,76.89 60.955,77.151 60.965,77.414 C62.706,77.218 63.244,76.056 63.813,74.827 C64.018,74.388 64.229,73.931 64.5,73.533 C64.742,73.179 64.895,72.739 65.039,72.315 C65.098,72.145 65.154,71.977 65.219,71.813 C65.193,70.922 65.184,70.345 65.17,69.765 C65.145,68.474 65.111,67.142 65.05,65.83 C64.964,64.059 64.297,63.063 62.888,62.602 C62.021,62.319 61.181,61.916 60.367,61.53 C60.122,61.413 59.878,61.297 59.634,61.183 C59.457,61.101 59.273,61.026 59.088,60.95 C58.532,60.721 57.957,60.486 57.551,60.075 C56.593,59.104 55.354,58.742 54.26,58.424 C53.708,58.394 53.365,58.526 53.189,58.604 C52.831,58.764 52.488,58.986 52.156,59.202 C52.007,59.3 51.858,59.395 51.706,59.487 L51.243,59.769 L51.495,59.29 C51.648,58.999 51.872,58.814 52.071,58.652 C53.193,57.585 54.003,57.409 54.98,57.839 C55.107,57.896 55.237,57.925 55.364,57.929 C55.52,58.254 55.602,58.465 55.648,58.525 C56.078,58.535 56.311,58.448 56.339,58.39 C56.847,57.384 57.371,56.31 57.735,55.188 C58.177,53.822 57.921,52.39 57.007,51.159 C56.342,49.565 55.068,48.388 52.979,47.422 C52.776,47.328 52.579,47.221 52.382,47.113 L52.028,46.922 L52.332,46.422 C54.6,46.905 56.191,48.352 57.73,49.752 C57.967,49.969 58.208,50.188 58.449,50.401 C57.929,45.42 58.023,43.972 58.88,43.146 C59.291,43.432 59.477,43.697 59.665,43.965 C60.106,44.594 60.563,45.244 60.989,45.906 C61.485,46.621 61.86,47.157 61.438,47.905 C61.046,48.595 61.047,48.916 61.876,49.48 L62.214,46.533 C63.169,47.422 63.39,47.847 63.152,48.547 C63.708,48.512 63.997,48.762 64.066,48.992 C64.113,49.147 64.066,49.291 63.937,49.377 C63.511,49.452 63.383,49.285 63.28,49.151 C63.125,48.989 63.03,49 62.834,49.386 C62.601,49.635 62.474,49.938 62.582,50.156 C62.686,50.368 62.989,50.45 63.224,50.482 C64.15,50.613 65.324,49.779 65.523,48.907 L65.771,47.838 C66.068,46.563 66.375,45.243 66.634,43.94 C66.713,43.549 66.816,43.146 66.912,42.756 C67.183,41.668 67.467,40.545 67.295,39.536 C67.071,38.236 66.946,37.217 67.362,36.112 C67.055,36.233 66.756,36.352 66.456,36.472 C66.249,36.368 66.123,36.113 66.123,36.113 L67.213,35.242 C67.656,34.888 68.102,34.532 68.546,34.177 L65.567,34.86 L65.393,34.384 L66.548,33.341 L65.687,33.564 C65.062,33.743 64.437,33.922 63.812,34.103 L63.54,33.55 L64.216,33.387 C63.914,32.48 63.226,32.303 62.457,32.918 C62.252,33.08 62.004,33.172 61.763,33.262 C61.66,33.301 61.317,33.445 61.317,33.445 C61.202,33.161 61.147,33.022 61.092,32.88 L62.122,32.344 L61.217,31.76 L58.717,31.76 L58.059,32.477 C57.235,31.857 56.559,31.85 55.789,32.37 C55.574,32.513 55.225,32.589 54.943,32.546 C54.199,32.44 53.49,32.669 53.004,33.175 C52.579,33.616 52.359,34.226 52.385,34.89 C52.184,35.275 52.113,35.37 52.026,35.505 L51.808,35.843 L51.56,34.085 C49.784,34.621 47.518,37.077 46.754,38.538 C46.524,38.979 46.473,39.24 46.475,39.386 L47.815,39.06 L47.992,39.661 C47.635,39.823 47.374,39.914 47.123,40.002 C46.553,40.199 46.014,40.387 45.716,40.756 C45.062,41.508 44.605,42.027 44.667,42.789 C45.078,42.577 45.262,42.546 45.43,42.56 C45.665,42.819 45.724,42.981 45.652,43.086 C45.55,43.232 45.387,43.42 45.186,43.48 C44.894,43.508 44.84,43.506 44.785,43.502 C43.83,43.616 43.47,43.969 43.402,44.607 L44.515,44.317 L44.292,44.647 C43.467,45.867 42.494,46.485 41.399,46.485 C39.074,46.485 36.817,46.385 34.623,46.192 C33.537,46.094 32.444,45.904 31.387,45.719 C30.728,45.604 30.046,45.485 29.374,45.389 C28.865,45.318 28.348,45.282 27.838,45.282 C24.508,45.282 21.545,46.843 19.028,48.303 C18.705,48.491 18.385,48.678 18.065,48.678 C15.198,48.674 13.183,49.954 11.608,52.59 C9.631,55.902 9.057,59.711 9.899,63.913 C10.535,67.091 10.174,69.864 8.795,72.392 C8.526,72.882 8.272,73.396 8.025,73.892 C7.886,74.171 7.832,74.308 7.775,74.449 C8.026,74.526 8.219,74.545 8.372,74.545 C8.781,74.545 8.885,74.441 9.368,73.882 C12.061,70.767 13.532,67.185 13.74,63.238 C13.828,61.567 13.831,59.863 13.833,58.215 C13.834,57.379 13.836,56.543 13.848,55.708 C13.869,54.231 14.015,52.682 14.921,51.35 C15.516,50.475 16.247,50.078 17.171,50.152 C17.343,50.45 17.352,50.491 17.338,50.543 C17.203,50.992 17.163,51.123 17.128,51.257 C16.388,54.06 16.655,56.431 17.945,58.507 C18.551,59.484 19.37,60.361 20.162,61.208 C20.309,61.366 20.456,61.523 20.602,61.682 C21.002,62.116 21.507,62.203 21.895,61.86 C22.347,61.456 22.193,61.034 21.8,60.484 C21.722,60.374 21.631,60.274 21.534,60.167 C21.419,60.041 21.301,59.911 21.204,59.762 C21.059,59.538 20.909,59.318 20.758,59.096 C20.351,58.5 19.93,57.885 19.638,57.217 C18.912,55.553 18.997,53.811 19.89,52.036 L20.223,51.374 L20.174,52.114 C20.149,52.487 20.086,52.859 20.024,53.218 C19.966,53.56 19.905,53.915 19.88,54.263 C19.737,56.185 20.446,57.905 22.177,59.835 C22.572,60.276 23.306,61.097 22.718,61.922 C22.474,62.266 22.032,62.443 21.605,62.613 C21.444,62.675 21.291,62.739 21.149,62.808 C21.126,62.938 21.107,63.079 21.087,63.229 C21.028,63.671 20.961,64.174 20.759,64.631 C20.23,65.826 19.596,67.205 18.778,68.443 C18.106,69.459 17.829,70.345 18.66,71.381 C18.826,71.588 18.897,71.868 18.961,72.115 C19.209,73.06 19.432,73.905 19.654,74.754 C20.083,76.392 20.513,78.028 20.956,79.661 C21.007,79.849 21.194,80.084 21.321,80.117 C23.224,80.615 23.279,80.934 23.25,82.543 C23.247,82.699 23.244,82.868 23.243,83.054 L3.73800005,83.1779973 C3.76561272,83.2644823 3.97967555,83.880228 4.06249989,84.1250035 C6.44804962,84.0670903 8.8653415,84.1047192 10.7801262,84.0929014 C11.2789393,84.0898228 11.7678439,84.0882067 12.25,84.088 C13.802,84.088 15.344,84.122 16.834,84.154 C18.106,84.18 19.421,84.211 20.713,84.216 C21.747,84.217 22.54,84.196 23.306,84.173 C24.075,84.152 24.869,84.128 25.652,84.128 C26.585,84.136 27.165,84.191 27.726,84.244 C28.309,84.301 28.912,84.358 29.5,84.358 C30.978,84.354 32.45,84.324 33.874,84.295 C35.419,84.265 37.017,84.232 38.588,84.232 L39.12,84.234 C40.306,84.24 41.51,84.296 42.674,84.355 C44.103,84.422 45.577,84.499 47.028,84.468 C50.942,84.396 54.922,84.285 58.771,84.181 C62.947,84.066 67.266,83.945 71.514,83.87 C74.112,83.825 76.744,83.891 79.294,83.951 C80.609,83.983 81.928,84.014 83.245,84.032 C85.027,84.055 86.844,84.059 88.599,84.061 L90.172,84.065 C90.947,84.065 91.724,84.063 92.496,84.059 C94.249,84.055 95.999,84.047 97.746,84.071 C99.658,84.093 101.569,84.133 103.481,84.172 C106.481,84.234 109.585,84.294 112.632,84.294 C116.01,84.293 119.444,84.218 122.764,84.148 L123.906,84.125 C123.357,85.75 122.808,87.187 122.21,88.598 C119.028,96.119 114.476,102.875 108.67,108.684 C102.87,114.494 96.111,119.051 88.589,122.232 C80.794,125.527 72.52,127.198 63.993,127.198 Z M114.047,75.988 C113.914,75.55 113.699,75.124 113.492,74.71 C113.377,74.481 113.263,74.249 113.158,74.016 C112.875,73.372 112.591,72.682 112.428,71.985 L112.237,71.155 L112.703,71.87 C112.864,72.12 113.037,72.366 113.209,72.61 C113.599,73.171 114.002,73.749 114.298,74.373 C114.56,74.928 114.676,75.55 114.79,76.151 C114.827,76.344 114.864,76.542 114.905,76.733 C115.009,77.217 115.094,77.715 115.177,78.199 C115.212,78.407 115.248,78.614 115.285,78.821 L115.31,78.967 L115.164,78.995 C115.097,79.008 115.03,79.016 114.963,79.03 L114.746,79.065 L114.716,78.924 C114.654,78.641 114.595,78.356 114.536,78.069 C114.396,77.379 114.253,76.666 114.047,75.988 L114.047,75.988 Z M85.756,54.285 L85.057,54.162 C82.836,53.772 81.278,52.255 79.77,50.787 C79.602,50.623 79.434,50.46 79.266,50.298 L79.453,50.066 C81.366,51.347 83.278,52.627 85.168,53.89 L85.756,54.285 L85.756,54.285 Z M75.896,50.144 L75.669,50.703 L75.425,48.383 C75.328,47.454 75.236,46.557 75.14,45.658 L75.437,45.621 C75.499,46.049 75.625,46.468 75.755,46.912 C76.061,47.919 76.371,48.962 75.896,50.144 L75.896,50.144 Z M19.901,72.064 C20.267,73.228 20.67,74.406 21.06,75.543 C21.226,76.026 21.392,76.51 21.555,76.993 C21.6,77.128 21.634,77.264 21.667,77.403 L21.749,77.723 L21.274,77.869 L21.228,77.731 C21.027,77.135 20.81,76.543 20.593,75.955 C20.073,74.538 19.535,73.072 19.231,71.58 C19.003,70.46 19.519,69.095 19.896,68.099 C20.342,66.914 21.13,65.87 21.841,65.004 L22.089,65.172 C21.952,65.423 21.812,65.672 21.671,65.922 C21.342,66.507 21.003,67.11 20.713,67.728 C20.592,67.984 20.538,68.275 20.482,68.582 C20.45,68.758 20.417,68.934 20.372,69.103 C20.314,69.324 20.248,69.541 20.183,69.76 C20.071,70.133 19.955,70.521 19.885,70.905 C19.803,71.365 19.808,71.768 19.901,72.064 L19.901,72.064 Z M30.545,53.831 C30.925,55.661 32.502,57.372 34.66,58.294 C35.969,58.855 37.444,59.127 39.169,59.127 C39.942,59.127 40.784,59.075 41.819,58.964 C42.576,58.882 43.343,58.759 44.085,58.642 C44.413,58.588 44.742,58.537 45.07,58.486 L45.207,58.465 L45.335,59.027 L45.191,59.062 C45.035,59.099 44.879,59.14 44.724,59.181 C44.403,59.265 44.072,59.353 43.738,59.413 C42.023,59.729 40.7,59.871 39.449,59.871 C37.904,59.871 36.516,59.645 35.206,59.179 C32.65,58.271 30.95,56.792 30.007,54.66 C30,54.643 29.991,54.628 29.98,54.61 L29.062,57.25 C29.541,57.072 29.95,56.988 30.331,56.988 C31.099,56.988 31.731,57.335 32.264,58.05 L33.009,59.048 L32.049,58.256 C31.551,57.845 31.063,57.646 30.556,57.646 C29.848,57.646 29.184,58.025 28.48,58.429 C28.308,58.527 28.134,58.626 27.959,58.72 C27.035,59.216 25.966,59.558 24.95,59.683 C24.444,59.744 24.04,59.619 23.763,59.325 C23.477,59.021 23.345,58.556 23.378,57.978 L23.406,57.509 L23.655,57.906 C24.096,58.608 24.801,59.012 25.589,59.012 C26.54,59.012 27.468,58.428 28.071,57.451 C28.723,56.394 28.993,55.042 29.214,53.747 C29.491,52.131 29.922,50.453 31.184,49.128 C31.496,48.799 31.809,48.598 32.197,48.475 L32.47,48.389 L32.386,48.661 C32.378,48.687 32.373,48.715 32.367,48.743 C32.351,48.825 32.331,48.928 32.259,49.003 C30.803,50.549 30.209,52.218 30.545,53.831 L30.545,53.831 Z M64.205,41.003 C63.985,40.732 63.378,40.349 62.753,40.271 C62.663,41.228 63.222,41.439 63.713,41.625 C64.056,41.754 64.442,41.9 64.335,42.337 C64.28,42.561 63.839,42.686 63.556,42.686 C63.095,42.686 62.508,42.313 62.369,41.261 L62.233,40.24 L61.477,40.203 L62.588,39.962 C62.674,39.943 62.768,39.934 62.867,39.934 C63.634,39.934 64.62,40.471 64.896,41.039 C65.019,41.289 65,41.538 64.839,41.739 C64.816,41.769 64.758,41.822 64.651,41.822 C64.454,41.822 64.032,41.576 64.017,41.375 C64.011,41.294 64.062,41.198 64.187,41.182 C64.263,41.169 64.283,41.149 64.283,41.149 C64.286,41.142 64.274,41.09 64.205,41.003 L64.205,41.003 Z M61.933,37.929 C60.601,38.413 59.892,39.109 59.633,40.185 C59.316,41.509 59.808,42.39 61.091,42.8 C61.25,42.851 61.412,42.896 61.574,42.939 C61.772,42.992 61.97,43.045 62.163,43.111 C62.599,43.258 62.903,43.586 63.003,44.007 C63.119,44.501 62.939,45.047 62.523,45.467 L62.206,45.786 L62.268,45.341 C62.38,44.534 62.354,44.086 62.182,43.89 C62.092,43.786 61.948,43.738 61.727,43.738 L61.686,43.738 C61.477,43.744 61.336,43.787 61.266,43.865 C61.17,43.972 61.19,44.177 61.209,44.392 C61.23,44.629 61.254,44.873 61.138,45.076 L61.065,45.2 L60.938,45.133 C60.871,45.111 60.764,45.071 60.751,44.96 C60.68,44.034 60.289,43.339 59.4,42.556 C59.029,42.23 58.933,41.648 58.838,41.085 C58.815,40.942 58.791,40.804 58.764,40.674 C57.856,41.57 57.338,43.638 57.047,47.474 L56.983,48.333 L56.754,47.502 C56.108,45.161 56.635,42.274 58.094,40.149 C59.111,38.668 60.45,37.774 61.865,37.634 L63.05,37.518 L61.933,37.929 L61.933,37.929 Z M61.42,33.926 C61.414,33.953 61.409,33.98 61.403,34.006 L61.375,34.153 L61.274,34.172 C60.873,34.247 60.466,34.314 60.061,34.38 C59.211,34.521 58.333,34.665 57.495,34.89 C53.776,35.888 50.824,38.14 48.722,41.586 C48.445,42.041 48.173,42.498 47.902,42.956 C47.375,43.845 46.83,44.761 46.254,45.64 C46,46.027 45.664,46.353 45.309,46.699 C45.141,46.863 44.966,47.032 44.792,47.216 L43.918,48.141 L45.516,45.368 C46.154,44.263 46.766,43.202 47.372,42.139 C48.605,39.983 50.404,37.307 53.394,35.729 C55.422,34.661 57.61,34.014 60.087,33.751 C60.316,33.725 60.61,33.729 60.91,33.736 C61.03,33.738 61.151,33.743 61.272,33.743 L61.46,33.743 L61.42,33.926 L61.42,33.926 Z M57.631,61.707 L57.485,61.655 L57.733,61.029 L59.086,61.536 C60.187,61.946 61.321,62.371 62.433,62.81 C62.652,62.895 62.917,63.267 62.876,63.515 C62.836,63.755 62.502,64.051 62.248,64.072 C61.803,64.114 61.347,64.134 60.895,64.134 C59.287,64.134 57.653,63.868 56.043,63.343 C55.653,63.216 55.452,62.699 55.24,62.153 C55.155,61.932 55.066,61.705 54.969,61.522 L54.908,61.408 L55.512,60.964 L55.557,61.196 C55.896,62.96 57.218,63.068 58.618,63.181 C59.025,63.214 59.425,63.252 59.825,63.291 C60.351,63.341 60.877,63.392 61.404,63.43 C61.607,63.445 61.812,63.423 62.032,63.401 C62.095,63.394 62.16,63.387 62.224,63.381 L62.23,63.343 C60.698,62.801 59.164,62.254 57.631,61.707 L57.631,61.707 Z M63.163,74.829 C63.265,75.103 63.367,75.391 63.291,75.67 L63.218,75.941 L63.033,75.73 C62.473,75.088 62.268,74.609 62.387,74.217 C62.489,73.877 62.834,73.633 63.442,73.472 L63.536,73.756 C62.87,74.021 62.987,74.343 63.163,74.829 L63.163,74.829 Z M63.976,63.465 L64.297,64.119 C64.36,64.248 64.429,64.362 64.492,64.467 C64.625,64.69 64.741,64.88 64.743,65.093 C64.764,66.891 64.764,68.716 64.764,70.485 L64.762,72.049 L64.69,72.093 C64.667,72.108 64.647,72.117 64.627,72.126 L64.433,72.203 L64.422,71.994 C64.289,69.453 64.155,66.911 64.017,64.193 L63.976,63.465 L63.976,63.465 Z M11.276,63.661 C11.35,64.803 11.426,65.982 11.468,67.144 L11.17,67.17 C11.085,66.575 10.99,65.982 10.895,65.386 C10.328,61.838 9.741,58.17 11.347,54.585 C11.511,54.22 11.689,53.86 11.868,53.5 C11.955,53.325 12.042,53.149 12.128,52.974 L12.405,53.086 C11.556,55.612 11.006,57.757 11.079,60.013 C11.119,61.231 11.199,62.466 11.276,63.661 L11.276,63.661 Z" id="Shape"></path>
            </g>
        </g>
    </g>
</svg>