<?xml version="1.0" encoding="utf-8"?>
<!-- Generator: Adobe Illustrator 19.0.0, SVG Export Plug-In . SVG Version: 6.00 Build 0)  -->
<svg version="1.1" id="Layer_1" xmlns="http://www.w3.org/2000/svg" xmlns:xlink="http://www.w3.org/1999/xlink" x="0px" y="0px"
	 viewBox="-23 -106.9 1200 468" style="enable-background:new -23 -106.9 1200 468;" xml:space="preserve">
<style type="text/css">
	.st0{display:none;}
	.st1{display:inline;fill:none;stroke:#000000;stroke-miterlimit:10;}
	.st2{fill:#5B5B5B;}
</style>
<g id="Layer_1_1_" class="st0">
	<path id="XMLID_14_" class="st1" d="M-23,158.3c8.8-43.4,17.6-86.8,26.4-117.5S21-7.9,29.8-7.9s17.6,18,26.4,48.7
		s17.6,74.1,26.4,117.5s17.6,86.8,26.4,117.5s17.6,48.7,26.4,48.7s17.6-18,26.4-48.7s17.6-74.1,26.4-117.5s17.6-86.8,26.4-117.5
		s17.8-48.7,26.6-48.7c8.8,0,17.6,18,26.4,48.7s17.6,74.1,26.4,117.5s17.6,86.8,26.4,117.5s17.6,48.7,26.4,48.7s17.6-18,26.4-48.7
		s17.6-74.1,26.4-117.5S417.2,71.5,426,40.8s17.8-48.7,26.6-48.7s17.6,18,26.4,48.7s17.6,74.1,26.4,117.5s17.6,86.8,26.4,117.5
		s17.6,48.7,26.4,48.7s17.6-18,26.4-48.7s17.6-74.1,26.4-117.5s17.6-86.8,26.4-117.5S655.2-7.9,664-7.9s17.6,18,26.4,48.7
		s17.6,74.1,26.4,117.5s17.6,86.8,26.4,117.5s17.6,48.7,26.4,48.7s17.6-18,26.4-48.7s17.6-74.1,26.4-117.5S840,71.5,848.8,40.8
		s17.7-48.7,26.5-48.7s17.6,18,26.4,48.7s17.6,74.1,26.4,117.5s17.6,86.8,26.4,117.5s17.6,48.7,26.4,48.7s17.6-18,26.4-48.7
		c8.8-30.7,17.6-74.1,26.4-117.5s17.6-86.8,26.4-117.5s17.6-48.7,26.4-48.7s17.6,18,26.4,48.7s17.6,74.1,26.4,117.5
		s17.6,86.8,26.4,117.5s17.6,48.7,26.4,48.7s17.6-18,26.4-48.7s17.6-74.1,26.4-117.5s17.6-86.8,26.4-117.5s17.6-48.7,26.4-48.7
		s17.6,18,26.4,48.7s17.6,74.1,26.4,117.5s17.6,86.8,26.4,117.5s17.6,48.7,26.4,48.7s17.6-18,26.4-48.7s17.6-74.1,26.4-117.5
		s17.6-86.8,26.4-117.5s17.6-48.7,26.4-48.7s17.6,18,26.4,48.7s17.6,74.1,26.4,117.5s17.6,86.8,26.4,117.5s17.6,48.7,26.4,48.7
		s17.6-18,26.4-48.7s17.6-74.1,26.4-117.5"/>
	<path id="XMLID_28_" class="st1" d="M-93,158.3c8.8-31.9,17.6-63.8,26.4-86.4S-49,36.1-40.2,36.1s17.6,13.2,26.4,35.8
		s17.6,54.5,26.4,86.4s17.6,63.8,26.4,86.4s17.6,35.8,26.4,35.8s17.6-13.2,26.4-35.8c8.8-22.6,17.6-54.5,26.4-86.4
		s17.6-63.8,26.4-86.4s17.6-35.8,26.4-35.8s17.6,13.2,26.4,35.8s17.6,54.5,26.4,86.4s17.6,63.8,26.4,86.4
		c8.8,22.6,17.6,35.8,26.4,35.8s17.6-13.2,26.4-35.8c8.8-22.6,17.6-54.5,26.4-86.4s17.6-63.8,26.4-86.4s17.6-35.8,26.4-35.8
		s17.6,13.2,26.4,35.8s17.6,54.5,26.4,86.4s17.6,63.8,26.4,86.4s17.6,35.8,26.4,35.8s17.6-13.2,26.4-35.8
		c8.8-22.6,17.6-54.5,26.4-86.4s17.6-63.8,26.4-86.4s18.2-35.8,27-35.8s17.6,13.2,26.4,35.8s17.6,54.5,26.4,86.4
		s17.6,63.8,26.4,86.4c8.8,22.6,17.6,35.8,26.4,35.8s17.6-13.2,26.4-35.8c8.8-22.6,17.6-54.5,26.4-86.4s17.6-63.8,26.4-86.4
		s17.6-35.8,26.4-35.8s17.6,13.2,26.4,35.8s17.6,54.5,26.4,86.4s17.6,63.8,26.4,86.4c8.8,22.6,17.6,35.8,26.4,35.8
		s17.6-13.2,26.4-35.8c8.8-22.6,17.6-54.5,26.4-86.4s17.6-63.8,26.4-86.4s17.6-35.8,26.4-35.8s17.6,13.2,26.4,35.8
		s17.6,54.5,26.4,86.4s17.6,63.8,26.4,86.4s17.6,35.8,26.4,35.8s17.6-13.2,26.4-35.8c8.8-22.6,17.6-54.5,26.4-86.4
		s17.6-63.8,26.4-86.4s17.6-35.8,26.4-35.8s17.6,13.2,26.4,35.8s17.6,54.5,26.4,86.4s17.6,63.8,26.4,86.4s17.6,35.8,26.4,35.8
		s17.6-13.2,26.4-35.8c8.8-22.6,17.6-54.5,26.4-86.4s17.6-63.8,26.4-86.4s17.6-35.8,26.4-35.8s17.6,13.2,26.4,35.8
		s17.6,54.5,26.4,86.4s17.6,63.8,26.4,86.4s17.6,35.8,26.4,35.8s17.6-13.2,26.4-35.8c8.8-22.6,17.6-54.5,26.4-86.4"/>
	<path id="XMLID_29_" class="st1" d="M-57.4,158.3c8.8-20.7,17.6-41.4,26.4-56s17.7-23.2,26.5-23.2s17.6,8.6,26.4,23.2
		c8.8,14.6,17.6,35.3,26.4,56s17.6,41.4,26.4,56s17.6,23.2,26.4,23.2s17.6-8.6,26.4-23.2c8.8-14.6,17.6-35.3,26.4-56
		c8.8-20.7,17.6-41.4,26.4-56c8.8-14.6,17.6-23.2,26.4-23.2c8.8,0,17.6,8.6,26.4,23.2c8.8,14.6,17.6,35.3,26.4,56s17.6,41.4,26.4,56
		s17.6,23.2,26.4,23.2s17.6-8.6,26.4-23.2s17.6-35.3,26.4-56s17.6-41.4,26.4-56s17.6-23.2,26.4-23.2s17.6,8.6,26.4,23.2
		c8.8,14.6,17.6,35.3,26.4,56s17.6,41.4,26.4,56s17.6,23.2,26.4,23.2c8.8,0,17.6-8.6,26.4-23.2c8.8-14.6,17.6-35.3,26.4-56
		c8.8-20.7,17.6-41.4,26.4-56c8.8-14.6,17.6-23.2,26.4-23.2c8.8,0,17.6,8.6,26.4,23.2c8.8,14.6,17.6,35.3,26.4,56
		c8.8,20.7,17.6,41.4,26.4,56c8.8,14.6,17.6,23.2,26.4,23.2c8.8,0,17.6-8.6,26.4-23.2c8.8-14.6,17.6-35.3,26.4-56
		c8.8-20.7,17.6-41.4,26.4-56c8.8-14.6,17.6-23.2,26.4-23.2c8.8,0,17.6,8.6,26.4,23.2c8.8,14.6,17.6,35.3,26.4,56
		c8.8,20.7,17.6,41.4,26.4,56c8.8,14.6,17.6,23.2,26.4,23.2c8.8,0,17.6-8.6,26.4-23.2c8.8-14.6,17.6-35.3,26.4-56
		c8.8-20.7,17.6-41.4,26.4-56c8.8-14.6,17.6-23.2,26.4-23.2s17.6,8.6,26.4,23.2c8.8,14.6,17.6,35.3,26.4,56s17.6,41.4,26.4,56
		s17.6,23.2,26.4,23.2s17.6-8.6,26.4-23.2s17.6-35.3,26.4-56s17.6-41.4,26.4-56s17.6-23.2,26.4-23.2s17.6,8.6,26.4,23.2
		c8.8,14.6,17.6,35.3,26.4,56s17.6,41.4,26.4,56s17.6,23.2,26.4,23.2s17.6-8.6,26.4-23.2s17.6-35.3,26.4-56s17.6-41.4,26.4-56
		s17.6-23.2,26.4-23.2s17.6,8.6,26.4,23.2c8.8,14.6,17.6,35.3,26.4,56s17.6,41.4,26.4,56s17.6,23.2,26.4,23.2s17.6-8.6,26.4-23.2
		s17.6-35.3,26.4-56"/>
	<path id="XMLID_30_" class="st1" d="M-144.3,158.3c8.8-24.9,17.6-49.7,26.4-67.3s17.6-27.9,26.4-27.9S-73.9,73.4-65.1,91
		s17.6,42.4,26.4,67.3S-21,208-12.2,225.6s17.6,27.9,26.4,27.9s17.6-10.3,26.4-27.9s17.6-42.5,26.4-67.3S84.6,108.6,93.4,91
		s17.6-27.9,26.4-27.9s17.6,10.3,26.4,27.9c8.8,17.6,17.6,42.4,26.4,67.3c8.8,24.9,17.6,49.7,26.4,67.3
		c8.8,17.6,17.6,27.9,26.4,27.9c8.8,0,17.6-10.3,26.4-27.9c8.8-17.6,17.6-42.4,26.4-67.3s17.6-49.7,26.4-67.3s17.6-27.9,26.4-27.9
		s17.6,10.3,26.4,27.9s17.6,42.4,26.4,67.3s17.6,49.7,26.4,67.3c8.8,17.6,17.6,27.9,26.4,27.9s17.6-10.3,26.4-27.9
		s17.6-42.4,26.4-67.3c8.8-24.9,17.6-49.7,26.4-67.3c8.8-17.6,17.6-27.9,26.4-27.9c8.8,0,17.6,10.3,26.4,27.9
		c8.8,17.6,17.6,42.4,26.4,67.3c8.8,24.9,17.6,49.7,26.4,67.3c8.8,17.6,17.6,27.9,26.4,27.9c8.8,0,17.6-10.3,26.4-27.9
		c8.8-17.6,17.6-42.4,26.4-67.3c8.8-24.9,17.6-49.7,26.4-67.3c8.8-17.6,17.6-27.9,26.4-27.9c8.8,0,17.6,10.3,26.4,27.9
		c8.8,17.6,17.6,42.4,26.4,67.3c8.8,24.9,17.6,49.7,26.4,67.3c8.8,17.6,17.6,27.9,26.4,27.9c8.8,0,17.6-10.3,26.4-27.9
		c8.8-17.6,17.6-42.4,26.4-67.3c8.8-24.9,17.6-49.7,26.4-67.3c8.8-17.6,17.6-27.9,26.4-27.9c8.8,0,17.6,10.3,26.4,27.9
		c8.8,17.6,17.6,42.4,26.4,67.3c8.8,24.9,17.6,49.7,26.4,67.3c8.8,17.6,17.6,27.9,26.4,27.9s17.6-10.3,26.4-27.9
		s17.6-42.4,26.4-67.3s17.6-49.7,26.4-67.3s17.6-27.9,26.4-27.9s17.6,10.3,26.4,27.9s17.6,42.4,26.4,67.3s17.6,49.7,26.4,67.3
		c8.8,17.6,17.6,27.9,26.4,27.9s17.6-10.3,26.4-27.9s17.6-42.4,26.4-67.3s17.6-49.7,26.4-67.3s17.6-27.9,26.4-27.9
		s17.6,10.3,26.4,27.9s17.6,42.4,26.4,67.3s17.6,49.7,26.4,67.3c8.8,17.6,17.6,27.9,26.4,27.9s17.6-10.3,26.4-27.9
		s17.6-42.4,26.4-67.3"/>
	<path id="XMLID_31_" class="st1" d="M-70.6,158.3c8.8-24.9,17.6-49.7,26.4-67.3s17.6-27.9,26.4-27.9S-0.2,73.4,8.6,91
		s17.6,42.4,26.4,67.3s17.6,49.7,26.4,67.3s17.6,27.9,26.4,27.9s17.6-10.3,26.4-27.9c8.8-17.6,17.6-42.4,26.4-67.3
		c8.8-24.9,17.6-49.7,26.4-67.3c8.8-17.6,17.6-27.9,26.4-27.9c8.8,0,17.6,10.3,26.4,27.9c8.8,17.6,17.6,42.4,26.4,67.3
		s17.6,49.7,26.4,67.3s17.6,27.9,26.4,27.9s17.6-10.3,26.4-27.9s17.6-42.4,26.4-67.3s17.6-49.7,26.4-67.3s18-27.9,26.8-27.9
		s17.6,10.3,26.4,27.9s17.6,42.4,26.4,67.3s17.6,49.7,26.4,67.3c8.8,17.6,17.6,27.9,26.4,27.9s17.6-10.3,26.4-27.9
		c8.8-17.6,17.6-42.4,26.4-67.3c8.8-24.9,17.6-49.7,26.4-67.3c8.8-17.6,17.6-27.9,26.4-27.9c8.8,0,17.6,10.3,26.4,27.9
		c8.8,17.6,17.6,42.4,26.4,67.3c8.8,24.9,17.6,49.7,26.4,67.3c8.8,17.6,17.6,27.9,26.4,27.9c8.8,0,17.6-10.3,26.4-27.9
		c8.8-17.6,17.6-42.4,26.4-67.3c8.8-24.9,17.6-49.7,26.4-67.3c8.8-17.6,17.6-27.9,26.4-27.9c8.8,0,17.6,10.3,26.4,27.9
		c8.8,17.6,17.6,42.4,26.4,67.3c8.8,24.9,17.6,49.7,26.4,67.3c8.8,17.6,17.6,27.9,26.4,27.9c8.8,0,17.6-10.3,26.4-27.9
		c8.8-17.6,17.6-42.4,26.4-67.3c8.8-24.9,17.6-49.7,26.4-67.3s17.6-27.9,26.4-27.9s17.6,10.3,26.4,27.9s17.6,42.4,26.4,67.3
		s17.6,49.7,26.4,67.3c8.8,17.6,17.6,27.9,26.4,27.9s17.6-10.3,26.4-27.9s17.6-42.4,26.4-67.3s17.6-49.7,26.4-67.3
		s17.6-27.9,26.4-27.9s17.6,10.3,26.4,27.9s17.6,42.4,26.4,67.3s17.6,49.7,26.4,67.3c8.8,17.6,17.6,27.9,26.4,27.9
		s17.6-10.3,26.4-27.9s17.6-42.4,26.4-67.3s17.6-49.7,26.4-67.3s17.6-27.9,26.4-27.9s17.6,10.3,26.4,27.9s17.6,42.4,26.4,67.3
		s17.6,49.7,26.4,67.3c8.8,17.6,17.6,27.9,26.4,27.9s17.6-10.3,26.4-27.9s17.6-42.4,26.4-67.3"/>
	<path id="XMLID_32_" class="st1" d="M-70.6,158.3c8.8-8.8,17.6-17.6,26.4-23.8s17.6-9.9,26.4-9.9s17.6,3.6,26.4,9.9
		s17.6,15,26.4,23.8s17.6,17.6,26.4,23.8S79,192,87.8,192s17.6-3.6,26.4-9.9c8.8-6.2,17.6-15,26.4-23.8c8.8-8.8,17.6-17.6,26.4-23.8
		c8.8-6.2,17.6-9.9,26.4-9.9c8.8,0,17.6,3.6,26.4,9.9c8.8,6.2,17.6,15,26.4,23.8s17.6,17.6,26.4,23.8s17.6,9.9,26.4,9.9
		s17.6-3.6,26.4-9.9s17.6-15,26.4-23.8s17.6-17.6,26.4-23.8s17.6-9.9,26.4-9.9s17.6,3.6,26.4,9.9s17.6,15,26.4,23.8
		s17.6,17.6,26.4,23.8s17.6,9.9,26.4,9.9c8.8,0,17.6-3.6,26.4-9.9c8.8-6.2,17.6-15,26.4-23.8c8.8-8.8,17.6-17.6,26.4-23.8
		c8.8-6.2,17.6-9.9,26.4-9.9c8.8,0,17.6,3.6,26.4,9.9c8.8,6.2,17.6,15,26.4,23.8c8.8,8.8,17.6,17.6,26.4,23.8
		c8.8,6.2,17.6,9.9,26.4,9.9c8.8,0,17.6-3.6,26.4-9.9c8.8-6.2,17.6-15,26.4-23.8c8.8-8.8,17.6-17.6,26.4-23.8
		c8.8-6.2,17.6-9.9,26.4-9.9c8.8,0,17.6,3.6,26.4,9.9c8.8,6.2,17.6,15,26.4,23.8c8.8,8.8,17.6,17.6,26.4,23.8
		c8.8,6.2,17.6,9.9,26.4,9.9c8.8,0,17.6-3.6,26.4-9.9c8.8-6.2,17.6-15,26.4-23.8c8.8-8.8,17.6-17.6,26.4-23.8s17.6-9.9,26.4-9.9
		s17.6,3.6,26.4,9.9c8.8,6.2,17.6,15,26.4,23.8s17.6,17.6,26.4,23.8c8.8,6.2,17.6,9.9,26.4,9.9s17.6-3.6,26.4-9.9
		c8.8-6.2,17.6-15,26.4-23.8s17.6-17.6,26.4-23.8s17.6-9.9,26.4-9.9s17.6,3.6,26.4,9.9c8.8,6.2,17.6,15,26.4,23.8
		s17.6,17.6,26.4,23.8c8.8,6.2,17.6,9.9,26.4,9.9s17.6-3.6,26.4-9.9c8.8-6.2,17.6-15,26.4-23.8s17.6-17.6,26.4-23.8
		s17.6-9.9,26.4-9.9s17.6,3.6,26.4,9.9c8.8,6.2,17.6,15,26.4,23.8s17.6,17.6,26.4,23.8c8.8,6.2,17.6,9.9,26.4,9.9s17.6-3.6,26.4-9.9
		c8.8-6.2,17.6-15,26.4-23.8"/>
	<path id="XMLID_33_" class="st1" d="M-23,158.3c8.8-4.5,17.6-9,26.4-12.1c8.8-3.2,17.6-5,26.4-5s17.6,1.9,26.4,5
		c8.8,3.2,17.6,7.7,26.4,12.1c8.8,4.5,17.6,9,26.4,12.1c8.8,3.2,17.6,5,26.4,5s17.6-1.9,26.4-5c8.8-3.2,17.6-7.7,26.4-12.1
		c8.8-4.5,17.6-9,26.4-12.1c8.8-3.2,17.6-5,26.4-5s17.6,1.9,26.4,5c8.8,3.2,17.6,7.7,26.4,12.1c8.8,4.5,17.6,9,26.4,12.1
		c8.8,3.2,17.6,5,26.4,5s17.6-1.9,26.4-5c8.8-3.2,17.6-7.7,26.4-12.1c8.8-4.5,17.6-9,26.4-12.1c8.8-3.2,17.6-5,26.4-5
		s17.6,1.9,26.4,5c8.8,3.2,17.6,7.7,26.4,12.1c8.8,4.5,17.6,9,26.4,12.1c8.8,3.2,17.6,5,26.4,5s17.6-1.9,26.4-5
		c8.8-3.2,17.6-7.7,26.4-12.1c8.8-4.5,17.6-9,26.4-12.1c8.8-3.2,17.6-5,26.4-5s17.6,1.9,26.4,5c8.8,3.2,17.6,7.7,26.4,12.1
		c8.8,4.5,17.6,9,26.4,12.1c8.8,3.2,17.6,5,26.4,5s17.6-1.9,26.4-5c8.8-3.2,17.6-7.7,26.4-12.1c8.8-4.5,17.6-9,26.4-12.1
		c8.8-3.2,17.6-5,26.4-5s17.6,1.9,26.4,5c8.8,3.2,17.6,7.7,26.4,12.1c8.8,4.5,17.6,9,26.4,12.1c8.8,3.2,17.6,5,26.4,5
		s17.6-1.9,26.4-5c8.8-3.2,17.6-7.7,26.4-12.1c8.8-4.5,17.6-9,26.4-12.1c8.8-3.2,17.6-5,26.4-5s17.6,1.9,26.4,5
		c8.8,3.2,17.6,7.7,26.4,12.1c8.8,4.5,17.6,9,26.4,12.1c8.8,3.2,17.6,5,26.4,5s17.6-1.9,26.4-5c8.8-3.2,17.6-7.7,26.4-12.1
		c8.8-4.5,17.6-9,26.4-12.1c8.8-3.2,17.6-5,26.4-5s17.6,1.9,26.4,5c8.8,3.2,17.6,7.7,26.4,12.1c8.8,4.5,17.6,9,26.4,12.1
		c8.8,3.2,17.6,5,26.4,5s17.6-1.9,26.4-5c8.8-3.2,17.6-7.7,26.4-12.1c8.8-4.5,17.6-9,26.4-12.1c8.8-3.2,17.6-5,26.4-5
		s17.6,1.9,26.4,5c8.8,3.2,17.6,7.7,26.4,12.1c8.8,4.5,17.6,9,26.4,12.1c8.8,3.2,17.6,5,26.4,5s17.6-1.9,26.4-5
		c8.8-3.2,17.6-7.7,26.4-12.1"/>
	<path id="XMLID_34_" class="st1" d="M-111,158.3c8.8-15.5,17.6-30.9,26.4-41.8c8.8-11,17.6-17.4,26.4-17.4s17.6,6.4,26.4,17.3
		c8.8,10.9,17.6,26.4,26.4,41.8S12.2,189.1,21,200s17.6,17.3,26.4,17.3S65,210.9,73.8,200s17.6-26.4,26.4-41.8s17.6-30.9,26.4-41.8
		c8.8-10.9,17.6-17.3,26.4-17.3s17.6,6.4,26.4,17.3c8.8,10.9,17.6,26.4,26.4,41.8s17.6,30.9,26.4,41.8s17.6,17.3,26.4,17.3
		s17.6-6.4,26.4-17.3s17.6-26.4,26.4-41.8s17.6-30.9,26.4-41.8c8.8-10.9,17.6-17.3,26.4-17.3s17.6,6.4,26.4,17.3
		c8.8,10.9,17.6,26.4,26.4,41.8s17.6,30.9,26.4,41.8s17.6,17.3,26.4,17.3s17.6-6.4,26.4-17.3c8.8-10.9,17.6-26.4,26.4-41.8
		c8.8-15.5,17.6-30.9,26.4-41.8c8.8-10.9,17.6-17.3,26.4-17.3c8.8,0,17.6,6.4,26.4,17.3c8.8,10.9,17.6,26.4,26.4,41.8
		c8.8,15.5,17.6,30.9,26.4,41.8c8.8,10.9,17.6,17.3,26.4,17.3c8.8,0,17.6-6.4,26.4-17.3c8.8-10.9,17.6-26.4,26.4-41.8
		c8.8-15.5,17.6-30.9,26.4-41.8c8.8-10.9,17.6-17.3,26.4-17.3c8.8,0,17.6,6.4,26.4,17.3c8.8,10.9,17.6,26.4,26.4,41.8
		c8.8,15.5,17.6,30.9,26.4,41.8c8.8,10.9,17.6,17.3,26.4,17.3c8.8,0,17.6-6.4,26.4-17.3c8.8-10.9,17.6-26.4,26.4-41.8
		c8.8-15.5,17.6-30.9,26.4-41.8c8.8-10.9,17.6-17.3,26.4-17.3s17.6,6.4,26.4,17.3c8.8,10.9,17.6,26.4,26.4,41.8
		c8.8,15.5,17.6,30.9,26.4,41.8s17.6,17.3,26.4,17.3s17.6-6.4,26.4-17.3s17.6-26.4,26.4-41.8c8.8-15.5,17.6-30.9,26.4-41.8
		c8.8-10.9,17.6-17.3,26.4-17.3s17.6,6.4,26.4,17.3c8.8,10.9,17.6,26.4,26.4,41.8c8.8,15.5,17.6,30.9,26.4,41.8s17.6,17.3,26.4,17.3
		s17.6-6.4,26.4-17.3s17.6-26.4,26.4-41.8c8.8-15.5,17.6-30.9,26.4-41.8c8.8-10.9,17.6-17.3,26.4-17.3s17.6,6.4,26.4,17.3
		c8.8,10.9,17.6,26.4,26.4,41.8c8.8,15.5,17.6,30.9,26.4,41.8s17.6,17.3,26.4,17.3s17.6-6.4,26.4-17.3s17.6-26.4,26.4-41.8"/>
	<path id="XMLID_35_" class="st1" d="M-162.2,158.3c8.8-18.1,17.6-36.1,26.4-48.9c8.8-12.8,17.6-20.3,26.4-20.3s17.6,7.5,26.4,20.3
		s17.6,30.8,26.4,48.9s17.6,36.1,26.4,48.9s17.6,20.3,26.4,20.3s17.6-7.5,26.4-20.3s17.6-30.8,26.4-48.9s17.6-36.1,26.4-48.9
		S93.2,89.1,102,89.1s17.6,7.5,26.4,20.3s17.6,30.8,26.4,48.9s17.6,36.1,26.4,48.9s17.6,20.3,26.4,20.3s17.6-7.5,26.4-20.3
		s17.6-30.8,26.4-48.9s17.6-36.1,26.4-48.9s17.6-20.3,26.4-20.3s17.6,7.5,26.4,20.3s17.6,30.8,26.4,48.9s17.6,36.1,26.4,48.9
		s17.6,20.3,26.4,20.3s17.6-7.5,26.4-20.3s17.6-30.8,26.4-48.9s17.6-36.1,26.4-48.9s17.6-20.3,26.4-20.3s17.6,7.5,26.4,20.3
		s17.6,30.8,26.4,48.9s17.6,36.1,26.4,48.9s17.6,20.3,26.4,20.3s17.6-7.5,26.4-20.3s17.6-30.8,26.4-48.9s17.6-36.1,26.4-48.9
		s17.6-20.3,26.4-20.3s17.6,7.5,26.4,20.3s17.6,30.8,26.4,48.9s17.6,36.1,26.4,48.9s17.6,20.3,26.4,20.3s17.6-7.5,26.4-20.3
		s17.6-30.8,26.4-48.9s17.6-36.1,26.4-48.9s17.6-20.3,26.4-20.3s17.6,7.5,26.4,20.3s17.6,30.8,26.4,48.9
		c8.8,18.1,17.6,36.1,26.4,48.9c8.8,12.8,17.6,20.3,26.4,20.3s17.6-7.5,26.4-20.3s17.6-30.8,26.4-48.9s17.6-36.1,26.4-48.9
		c8.8-12.8,17.6-20.3,26.4-20.3s17.6,7.5,26.4,20.3s17.6,30.8,26.4,48.9s17.6,36.1,26.4,48.9s17.6,20.3,26.4,20.3
		s17.6-7.5,26.4-20.3s17.6-30.8,26.4-48.9s17.6-36.1,26.4-48.9c8.8-12.8,17.6-20.3,26.4-20.3s17.6,7.5,26.4,20.3
		s17.6,30.8,26.4,48.9s17.6,36.1,26.4,48.9s17.6,20.3,26.4,20.3s17.6-7.5,26.4-20.3s17.6-30.8,26.4-48.9"/>
	<path id="XMLID_36_" class="st1" d="M-170.9,158.3c8.8-22.8,17.6-45.5,26.4-61.6c8.8-16.1,17.7-25.6,26.5-25.6s17.6,9.4,26.4,25.5
		s17.6,38.9,26.4,61.6s17.6,45.5,26.4,61.6s17.6,25.5,26.4,25.5s17.6-9.4,26.4-25.5s17.6-38.9,26.4-61.6S58,112.7,66.8,96.6
		s17.6-25.5,26.4-25.5s17.6,9.4,26.4,25.5s17.6,38.9,26.4,61.6s17.6,45.5,26.4,61.6s17.6,25.5,26.4,25.5s17.6-9.4,26.4-25.5
		s17.6-38.9,26.4-61.6s17.6-45.5,26.4-61.6s17.6-25.5,26.4-25.5s17.6,9.4,26.4,25.5s17.6,38.9,26.4,61.6s17.6,45.5,26.4,61.6
		s17.6,25.5,26.4,25.5s17.6-9.4,26.4-25.5s17.6-38.9,26.4-61.6s17.6-45.5,26.4-61.6c8.8-16.1,17.6-25.5,26.4-25.5
		s17.6,9.4,26.4,25.5s17.6,38.9,26.4,61.6s17.6,45.5,26.4,61.6s17.6,25.5,26.4,25.5s17.6-9.4,26.4-25.5s17.6-38.9,26.4-61.6
		s17.6-45.5,26.4-61.6s17.6-25.5,26.4-25.5s17.6,9.4,26.4,25.5s17.6,38.9,26.4,61.6s17.6,45.5,26.4,61.6s17.6,25.5,26.4,25.5
		s17.6-9.4,26.4-25.5s17.6-38.9,26.4-61.6s17.6-45.5,26.4-61.6s18.4-25.5,27.2-25.5s17.6,9.4,26.4,25.5s17.6,38.9,26.4,61.6
		s17.6,45.5,26.4,61.6c8.8,16.1,17.6,25.5,26.4,25.5s17.6-9.4,26.4-25.5s17.6-38.9,26.4-61.6c8.8-22.8,17.6-45.5,26.4-61.6
		s17.6-25.5,26.4-25.5s17.6,9.4,26.4,25.5s17.6,38.9,26.4,61.6c8.8,22.8,17.6,45.5,26.4,61.6s17.6,25.5,26.4,25.5
		s17.6-9.4,26.4-25.5s17.6-38.9,26.4-61.6c8.8-22.8,17.6-45.5,26.4-61.6s17.6-25.5,26.4-25.5s17.6,9.4,26.4,25.5
		s17.6,38.9,26.4,61.6c8.8,22.8,17.6,45.5,26.4,61.6s17.6,25.5,26.4,25.5s17.6-9.4,26.4-25.5s17.6-38.9,26.4-61.6"/>
</g>
<g>
	<path class="st2" d="M1146.5,262.8c0.2-2.2-0.1-1.9-0.6-0.5c-0.3,0.7-0.6,1.6-1,2.4c-0.5,0.9-1.2,1.6-1.6,1.6c0,0,0.1,0,0.4,0
		c0.3-0.1,0.8-0.4,1.2-1c0.4-0.5,0.9-1.2,1.1-1.7C1146.4,263.1,1146.5,262.8,1146.5,262.8z"/>
	<path class="st2" d="M1143.3,266.3c0,0-0.1,0-0.3-0.1c-0.2-0.1-0.5-0.3-0.8-0.7c-0.3-0.3-0.6-0.7-0.8-1c-0.2-0.3-0.3-0.5-0.3-0.5
		c0.2,0.5,0.5,1.1,0.9,1.6C1142.4,266,1143,266.3,1143.3,266.3z"/>
	<path class="st2" d="M1131.5,228.2c1.6,4.6,2.6,9.8,3.7,14.5c1.1,4.7,2.4,8.9,4.1,11.4C1137.5,244.8,1134,230.2,1131.5,228.2z"/>
	<path class="st2" d="M1133.6,242.7l1.3,0.9c0,0-0.9-2-1.7-3.9c-0.9-2-1.7-4-1.7-4s0.5,1.7,1.1,3.5
		C1133,240.9,1133.6,242.7,1133.6,242.7z"/>
	<path class="st2" d="M1134.2,248.8l0-1.3c0,0-1.1-3.1-2.1-6.3c-1-3.2-2-6.4-2-6.4s0.9,3.5,1.9,7
		C1133.1,245.3,1134.2,248.8,1134.2,248.8z"/>
	<path class="st2" d="M1126,195.9l2,9.5c0.3,9.2-2.9-5.6-2.7,0.6c2.3,11.9,3.5,3.6,6,18.5c0.5-0.7-0.7-6.6-1.7-12.2
		c-1-5.5-1.7-10.6-0.5-9.6C1127.5,190.1,1127.9,202.3,1126,195.9z"/>
	<path class="st2" d="M899.2,162.9c-0.2,0.4-0.4,0.8-0.6,1.2C898.9,163.7,899.3,163.2,899.2,162.9z"/>
	<path class="st2" d="M825.4,120.6c-0.5-0.7-1.2-1.3-2.1-1.4c0.3,0.3,0.6,0.6,0.9,0.9c0,0,0.3,0.1,0.6,0.2
		C825.1,120.4,825.4,120.6,825.4,120.6z"/>
	<path class="st2" d="M923.7,64.9c0.7-2.2,1.4-4.2,1.9-6.1C925.1,59.9,924.4,61.7,923.7,64.9z"/>
	<path class="st2" d="M522.6,62.3c0.1-0.5,0.1-0.9,0.1-1.4c0,0-0.1,0.1-0.1,0.1c0,0-0.1,0.5-0.2,0.9c-0.1,0.5-0.3,1-0.3,1
		s0.1-0.2,0.3-0.3C522.5,62.4,522.6,62.3,522.6,62.3z"/>
	<path class="st2" d="M770.5,271.2c-1.1,2.4-2.1,4.7-3,6.9C769.4,274.1,770.2,272.2,770.5,271.2z"/>
	<path class="st2" d="M937.7,9c-0.3,0.8-0.5,1.6-0.7,2.3c0.1-0.4,0.3-0.8,0.5-1.2c0.2-0.4,0.4-0.9,0.6-1.5c0,0-0.3,0.3-0.3,0.3
		C937.7,8.9,937.7,8.9,937.7,9z"/>
	<path class="st2" d="M838.6,159.9c-0.5-2.1-0.9-3.9-1.4-5.5C837.6,156.3,838.1,158.1,838.6,159.9z"/>
	<path class="st2" d="M1063.4,143.9c-1.5,2.2-2.6,4.1-3.5,5.8C1061,148.5,1062.3,146.7,1063.4,143.9z"/>
	<path class="st2" d="M1022.9,155.8c0.1,0.1,0.1,0.1,0.2,0.2C1023.1,155.6,1023,155.5,1022.9,155.8z"/>
	<path class="st2" d="M1007.6,125.7c0.1,0.2,0.2,0.4,0.2,0.6C1007.9,125.9,1007.9,125.7,1007.6,125.7z"/>
	<path class="st2" d="M1059.8,149.6c-1.6,1.6-3.1,2.2-4.3,3c-0.6,0.4-1.2,0.9-1.6,1.5c-0.1,0.2-0.2,0.4-0.3,0.5
		c0,0.1-0.1,0.3-0.2,0.5c-0.2,0.4-0.3,0.9-0.5,1.4c0,0,0.2,0,0.4,0c0.2,0,0.4-0.1,0.4-0.1c-1.1,0.4-2.2,1.3-3.7,1.5
		c-1.1,0.2-2.1,0.3-3.2,0.5c-1.2,0.2-2.4,0.4-3.5,0.6c0.5,0.2,1,0.3,1.7,0.5c1.1-0.1,2.5-0.2,4.1-0.3c0.6,0,1.2,0,1.9,0
		c0.7-0.1,1.4-0.3,2.1-0.6c1.8-0.7,2.8-1.9,3.9-3.6C1057.9,153.5,1058.7,151.7,1059.8,149.6z"/>
	<path class="st2" d="M898.9,162.2C899.6,161.8,900.6,158.1,898.9,162.2L898.9,162.2z"/>
	<path class="st2" d="M912.5,114.3c-0.5,1.6-1,3.1-1.6,4.7C911.5,117.6,912.1,116.1,912.5,114.3z"/>
	<path class="st2" d="M963.2,28.5c-0.1-0.3-0.1-0.6-0.2-0.9C962.7,27.5,963,28.1,963.2,28.5z"/>
	<path class="st2" d="M909.5,123.4c0.5-1.4,1-2.9,1.4-4.3C910.4,120.4,909.9,121.7,909.5,123.4z"/>
	<path class="st2" d="M944.1-5.2C944-5,943.9-5,943.8-4.8C943.9-4.9,944-5,944.1-5.2z"/>
	<path class="st2" d="M246,58.4c1,3.7,0.8,6.1,1.2,9.7c1.7,3.8,0.9-0.3,0.2-4c-0.8-3.7-1.5-6.9,0.5-1.2c-0.7-3.5-1.6-6.3-2.4-8.9
		l-0.6,5.4c1,3.4,0.9,2.2,0.8,0.6C245.5,58.5,245.2,56.5,246,58.4z"/>
	<path class="st2" d="M507.3,37.4l0.3,1.6c0.4-1.3,1-0.4-0.4-6.3c-2.7-4.6-2.1,3.7-6-4.7c0.6,1.7,1.4,4.2,1.9,6.6
		C503,30.7,505.2,33.9,507.3,37.4z"/>
	<path class="st2" d="M503.1,34.6c0,0.1,0,0.2,0,0.3c0,0.4,0,0.9,0,1.4c0.4,1.3,0.7,2.5,0.9,3.5C504,38.8,503.6,36.8,503.1,34.6z"/>
	<path class="st2" d="M265.6,181.6c0.2,1.5,0.4,2.8,0.6,4.1C266.2,183.6,266,182.4,265.6,181.6z"/>
	<path class="st2" d="M754.8,251.5c0.5-1.7,1-3.4,1.4-4.7C755.3,249.3,755,250.6,754.8,251.5z"/>
	<path class="st2" d="M534.2,26.2c0.6-1.3,1.1-2.7,1.6-4.1c0.3-0.9,0.5-1.6,0.8-2.7L534.2,26.2z"/>
	<path class="st2" d="M436.4,119.8c-0.9-3.6-0.6,2.4-3.6,8c0,0,0,0.4-0.1,0.9c-0.1,0.5-0.2,1.3-0.3,2.1c-0.3,1.6-0.5,3.2-0.5,3.2
		c0.6-1.4,1.1-2.8,1.5-4.1c0.4-1.2,0.8-2.4,1.1-3.6C435.2,124.1,435.8,121.9,436.4,119.8z"/>
	<path class="st2" d="M245.5,53.6c-0.1,0-0.1,0-0.2,0c0.1,0.2,0.1,0.3,0.1,0.4L245.5,53.6z"/>
	<path class="st2" d="M364.5,258.8c-0.2,1-0.4,1.9-0.5,2.8C364.1,261,364.3,260.1,364.5,258.8z"/>
	<path class="st2" d="M513.3,63.6c0,0,0.1,0.2,0.4,0.6c0.3,0.4,0.7,1,1.3,1.5c0.6,0.6,1.4,1.2,2.5,1.3c1.1,0.1,2.1-0.6,2.9-1.3
		c1.6-1.5,2.7-3.5,3.5-5c0.8-1.5,1.3-2.5,1.3-2.5s-0.6,1.1-1.3,2c-0.7,1-1.4,1.9-1.4,1.9c-0.2,0.9-0.7,1.8-1.4,2.6
		c-0.7,0.8-1.7,1.6-2.9,1.7c-0.6,0.1-1.2-0.2-1.8-0.5c-0.5-0.3-1-0.7-1.4-1.1C514.4,64.2,513.8,63.7,513.3,63.6z"/>
	<path class="st2" d="M467.7,30.5l1.8-1.4c0.7-2.7,1.4-5.4,2.3-8c0.4-1.3,0.9-2.7,1.4-4l0.7-1.8l0.6-1.7l1.3-3.4l0.1-0.3l0-0.1
		l0.1-0.1c0.1-0.2,0.2-0.3,0.3-0.4c0.1-0.1,0.2-0.2,0.3-0.3c0.1-0.1,0.3-0.2,0.4-0.3c0.3-0.1,0.6-0.5,1.6-0.6
		c-0.1,0.5-0.2,0.9-0.3,1.2c0,0.1-0.1,0.2-0.1,0.4c0,0,0,0.2,0,0.3c0,0.1,0,0.2,0,0.3l0,0.2c0,0.1,0,0,0,0.2
		c0.1,0.3,0.1,0.5,0.2,0.8c0.1,0.5,0.3,1,0.4,1.4c0.3,0.9,0.5,1.7,0.8,2.5c1.1,3,2.2,4.9,3.3,6.7c2.2,3.6,4.3,7,6.2,19.5l0.3-1
		c0.8,2.5,1.5,5,2.3,7.5l1.2,3.8l0.6,1.9l0.8,2.4c1.6,4.3,3.2,8.6,5.2,12.6c2,3.9,4.3,7.4,6.8,9.8c2.6,2.4,5.2,4.1,8.6,4.8
		c0.9,0.1,1.8,0.3,2.7,0.3c0.9-0.1,1.8-0.2,2.7-0.3c1.7-0.3,3.2-0.9,4.6-1.7c1.4-0.8,2.8-1.8,4.1-3c0.6-0.7,1.3-1.2,1.9-2l0.9-1.1
		c0.3-0.4,0.6-0.8,0.9-1.2c2.4-3.3,4.5-7.5,6.4-11.8c0.5-1.1,0.9-2.2,1.4-3.3c0.4-1.1,0.9-2.2,1.3-3.3l1.5-3.9
		c0.9-2.5,1.8-5,2.7-7.6c1.8-5,3.4-10,5.1-14.9c1.7-4.9,3.3-9.8,5-14.5l1.3-3.5l0.3-0.9l0.2-0.4c0.1-0.2,0.3-0.6,0.3-0.6
		c0.1-0.3,0.3-0.5,0.4-0.8c0.3-0.5,0.5-1,1-1.2c0.3-0.1,0.5,0.1,0.7,0.3c0.1,0.2,0.2,0.5,0.3,0.8c0.1,0.2,0.2,0.5,0.3,0.7l0.1,0.4
		l0.5,1.6c0.7,2.3,1.4,4.6,2.1,6.9c0.7,2.3,1.3,4.7,2,7.1c5.3,18.9,9.9,38,14.6,56.4l-0.9,0c3.2,15,6.4,30,9.9,45
		c3.5,15,7.1,30,11.5,45l1.7,5.7c0.3,0.9,0.6,2,1,3c0.4,1,0.7,2,1.1,3.1l0.7,1.7l0.2,0.4l0.3,0.6l0.6,1.3c0.7,1.7,1.6,3.3,2.5,4.9
		c1.8,3.1,4,6,6.5,8.1c2.5,2.2,5.4,3.7,8.7,4.6c3.2,0.8,6.6,0.7,9.8-0.1c1.6-0.4,3.1-1,4.7-1.8c1.5-0.8,3-1.7,4.4-2.8
		c1.4-1,2.8-2.2,4.2-3.5c0.7-0.6,1.3-1.2,2-1.9l1.4-1.3l1-0.9c0.1-0.1,0.2-0.1,0.3-0.2c0.2-0.1,0.5-0.1,0.6,0.1
		c0.1,0.1,0.1,0.2,0.2,0.3l0.1,0.2l0,0l0.1,0.3l0.4,1.1c1.3,3.1,2.5,6.4,3.7,9.8c4.6,13.7,8.6,28.2,12.6,42.7
		c4,14.6,7.9,29.3,12.6,44.2c1.2,3.7,2.5,7.5,3.8,11.3c1.4,3.8,2.9,7.6,4.8,11.6c0.5,1,1,2,1.6,3.1c0.4,0.7,0.9,1.6,1.3,2.3
		c0.5,0.8,0.9,1.6,1.5,2.3c2,3,4.4,5.6,7.2,7.6c2.8,1.9,6.2,3.1,9.6,3.2c3.5,0.1,7-0.5,10.4-1.6c0.9-0.2,1.7-0.6,2.5-0.9
		c0.9-0.3,1.7-0.6,2.5-1.1l1.2-0.6c0.3-0.2,0.6-0.3,0.9-0.5l1.7-1c2.2-1.4,4.2-2.9,6.1-4.5c3.7-3.1,6.8-6.5,9.5-9.8
		c5.5-6.8,10-13.7,14-20.8c2.6-5.5,2.5-6.8,2.4-8c-0.2-1.2-0.4-2.2,1.4-6.9c1-2,2.5-5.2,3.9-7.9c1.4-2.7,2.5-4.9,3-4.7
		c-2.9,8-0.2,4-1,6.8c5.9-12.9,13.6-29.3,16.7-41.3c0,0-1.2,2.3-2.5,4.6c-0.6,1.2-1.2,2.3-1.7,3.2c-0.5,0.9-0.8,1.4-0.8,1.4
		c1.2-4.7,4.2-11.6,5.7-15.7c0,2,3.6-3.5,2.6,0.2c2.8-12.8,4.8-17.5,6.9-21.6c2.1-4.1,4.2-7.7,7-18.2c-1.3-5,4.9-31.7,8.4-49.3
		c0,0,0.9-2.2,1.8-4.4c0.2-0.5,0.4-1.1,0.7-1.6c0.2-0.5,0.4-0.9,0.6-1.3c0.3-0.8,0.6-1.3,0.6-1.3c-0.5,1.4-0.8,2.4-1,3.2
		c-0.2,0.9-0.3,1.4-0.3,1.9c-0.1,0.8,0.2,1,0.4,1.2c0.4,0.5,0.6,1.3-1.8,8.6c1.2-3,2.2-6,3.2-9c0.5-1.4,0.9-2.9,1.4-4.3
		c0.4-1.1,0.7-2.2,1.1-3.2c0.4-1.1,0.8-2.2,1.4-3.2c0.6-1,1.5-1.9,2.7-1.8c-0.5-0.5-0.8-0.9-0.6-1.5c0.1-0.5,0.8-1.2,2-1
		c0.9,0.5,1.4,1.2,1.7,1.9c0.4,0.6,0.6,1.3,0.7,1.8c0.2,0.5,0.3,1.1,0.5,1.7c0.1,0.3,0.2,0.6,0.3,0.9c0.1,0.2,0.1,0.3,0.2,0.5
		c0.1,0.2,0.2,0.4,0.3,0.7c0,0-0.2-0.2-0.4-0.5c-0.2-0.3-0.5-0.5-0.8-0.7c-0.5-0.5-1.1-0.8-1.1-0.8c0.1,0.6,0.2,1,0.4,1.3
		c0.2,0.4,0.4,0.5,0.8,1l0.1,0.2l0.2,0.4l0.5,0.7l1,1.5c0.6,1,1.3,2,1.8,3.1c-0.2,1,0.8,4.2,1.5,7.1c0.7,2.9,1.2,5.4,0.2,4.6
		c2.6,4.9,4,8.4,5.2,12.1c1.2,3.7,2.4,7.5,4.5,13.3c-2.2-12.5,2.4,2.7,3,1.1c0,0-1-3.4-2.1-6.8c-1.1-3.4-2.2-6.8-2.2-6.8
		c1.3,4.9,1.7,6.9,1.7,7.3c0,0.4-0.4-1-1.1-2.8c-1.3-3.8-3.5-9.6-4.3-8.6c-1-4.6,0.8-1.8,2.2,0.3c1.4,2.1,2.4,3.5-0.2-3.9
		c3.4,8.8,5,14.4,6.6,20c0.8,2.8,1.6,5.6,2.6,8.9c0.5,1.6,1,3.4,1.6,5.4c0.2,0.5,0.3,1,0.5,1.5c0.2,0.7,0.4,1.4,0.6,2.2
		c0.4,1.5,0.9,3.1,1.4,4.7c-1.1-3.9-1.5-5.8-1.5-6.5c0-0.6,0.3-0.1,0.7,0.7c0.8,1.6,1.9,3.6,1.3-0.4c1.1,4.6,1.8,7.2,2.1,8.6
		c0.3,1.4,0.3,1.7,0.1,1.6c-0.4-0.1-1.5-1.9-1.1,1.7c1.8,5.2,3.2,8.5,4.9,11.1c0.9,1.3,1.8,2.4,3,3.4c0.6,0.5,1.2,0.9,2,1.3
		c0.8,0.3,1.7,0.6,2.9,0.6c2,0.3,3.3-0.3,4.1-0.5c0.8-0.3,1.3-0.6,1.6-0.6c0.5-0.1,0.1,0.4-0.5,1c-0.6,0.6-1.5,1.2-1.8,1.5
		c-0.1,0.2-0.1,0.3,0.1,0.3c0.3,0,0.8-0.1,1.6-0.4c-0.6,0.5-1.6,1.1-3.3,1.4c-0.8,0.1-1.8,0.2-2.8,0c-1-0.2-2-0.6-2.9-1.1
		c-1.8-1-3.4-2.5-4.8-4.4c-1.5-1.9-2.8-4.2-4-6.8c-2.3-5.2-3.9-10.9-5.2-14.7c-0.3-1-0.6-1.8-0.9-2.5c-0.1-0.4-0.3-0.7-0.4-0.9
		c-0.1-0.2-0.2-0.3-0.4-0.5c-0.5-0.5-0.9-0.5-1.4,0.1c-0.4-1.8-1-3.5-1.6-5.3c-0.6-1.8-1.3-3.7-2-5.6c-1.5-3.9-3-8.2-4.4-12.9
		c0.9,4.2,1.8,9.3,2.8,14.6c0.5,2.7,1.1,5.4,1.7,8.1c0.2,0.7,0.4,1.5,0.5,2.2c0.3,1.3,0.6,2.5,0.9,3.8c0.3,1.3,0.7,2.6,1.1,3.8
		c0.4,1.3,0.8,2.5,1.2,3.7c0,0,0.6-0.2,1.2-0.3c0.6-0.2,1.2-0.4,1.2-0.4c0.5,1.7,1,3.1,1.5,4.4c0.5,1.2,1,2.3,1.5,3.2
		c1,1.8,1.9,3.1,2.8,4.1c0.9,1,1.7,1.9,2.6,2.8c0.2,0.2,0.5,0.5,0.7,0.7c0.2,0.2,0.5,0.5,0.7,0.7c0.2,0.3,0.5,0.5,0.8,0.8
		c0.3,0.3,0.6,0.5,0.9,0.8c-0.7-0.3-1-0.3-0.9,0c0.1,0.4,0.6,1,1.4,1.8c0.8,0.8,2,1.6,3.8,2.2c1.8,0.6,4.2,0.6,6,0
		c-1.1,0.1-2.5,0.2-3.6,0.1c-1.1-0.1-1.7-0.4-1.2-0.5c2.1,0.3,3.9-0.1,5.2-0.6c1.4-0.5,2.5-1.2,3.5-2c2-1.5,3.5-3.3,5-5.5
		c3-4.3,5.7-10.4,9.6-20.8c-3.7,8.4-6.4,12.7-9.1,16c-1.4,1.6-2.7,3-4.3,4.3c-0.8,0.6-1.7,1.3-2.6,1.9c-1,0.6-2.1,1.2-3.6,1.5
		c1.6-1.4,3.2-2.7,5-4.4c0.9-0.9,1.9-1.8,2.8-3c1-1.2,2-2.7,3-4.5c-0.5,1.3-1.4,2.8,0.1,1.1c0,0,1-2.1,1.9-4.4
		c0.9-2.2,1.6-4.5,1.6-4.5c1.1-2.1,1.8-3.8,2.4-4.9c0.2-0.3,0.3-0.6,0.4-0.8c0.1-0.2,0.2-0.4,0.3-0.5c0.2-0.3,0.4-0.5,0.5-0.7
		c0.6-0.6,0.7-0.2,0.9,0.3c0.1,0.5,0.2,1.2,0.7,0.9c0.2-0.1,0.5-0.5,1-1.3c0.4-0.7,0.9-1.7,1.6-3.1c4.4-7.7,3.3-11.5,6.2-17.4
		c-0.3,0.4-0.6,0.7-0.8,1.1c0.5-1.4,0.9-2.4,1.2-3.1c-0.1,0-0.1,0.1-0.2,0.1c2.3-7.7,5.2-15.8,4.6-18.3c0.8-0.6,2-6.7,2.5-9.3
		c0.4-2.2,1.1-5.9,2.2-9.8c1.1-3.9,2.6-8,4.6-11c0,0.2-0.1,0.3-0.1,0.5c3.1-9.6,5.6-17,5.7-14.8c0,0,1.1-3.9,2.2-7.8
		c1.1-3.9,2.2-7.8,2.2-7.8l1.3,2.1c2.9-14.4,1.6-13.2,2.1-23.3c3.3-10,6.7-27.9,7.9-34.6c0.4-1.1,0.8-2.8,1.5-5.6l-2.2,5.7
		c1.5-5.5,1.9-7.9,2.2-9.9c0.3-2,0.5-3.5,1.6-7.1c-0.6,1.4-0.8,1.6,0.7-2.3c0.4-1,0.7-2.2,1.2-3.2c0,0.2,0,0.5-0.2,1
		c-0.2,0.5-0.4,1.2-0.6,1.8l0.9-0.9c0.1-0.2,0.2-0.4,0.3-0.6c0.1-0.2,0.2-0.3,0.3-0.4c0.2-0.3,0.3-0.6,0.5-0.9
		c0.3-0.6,0.5-1.1,0.7-1.7c0.4-1.1,0.7-2.3,1-3.6c0.3-1.3,0.7-2.7,1.2-4.2c0.6-1.4,1.3-2.9,2.6-3.8c-0.5,0.5-1.1,1.6-1.5,2.2
		c0.6-0.6,1.3-1,2.1-1.1c0.8-0.1,1.9,0.4,2.6,1.4c0.7,0.9,1.1,1.9,1.4,2.5c0.3,0.6,0.6,0.8,0.9,0.5c0.3,1,0.8,1.5,1.5,2.1
		c0,0,0.2,0.6,0.4,1.3c0.2,0.6,0.4,1.3,0.4,1.3c-0.3-1-0.6-1.8-0.8-2.5c0.9,0.8,2,1.8,1.8,2.3l4,10.6c0.7,2.5,2.2,5.8,3.5,8.4
		l0.2,2.5c1.9,4.7,1.5,4.9,1.1,4.4c3.7,17.3,10.4,25.2,14.4,44c2.3,3.1,0.3-4.6,0.7-5.3c1.8,2.5,6,12.6,8.4,17.6
		c1.1,8.6,7.7,33.9,4.1,30.6c4.6,15.1-0.1-5.1,3.1,2.1l0.5,1.7c-1.4-5.3-1.9-9.6-2-12.8c0.9-1.5,5.5,11.6,6.4,15.8l-2.6-2.3
		c1.3,3.4,2.3,5.7,3.2,7.4c1,1.7,1.8,2.8,2.6,3.7c0.8,0.9,1.7,1.6,2.6,2.5c0.9,1,1.9,2.2,3.2,4.1c1.8,5.4,2,6.7,1.3,7.1
		c-0.6,0.4-1.8-0.2-2,1.3c0,0,0.3,0.7,0.9,1.7c0.6,1,1.4,2.4,2.2,3.7c0.4,0.7,0.9,1.3,1.3,1.9c0.4,0.6,0.8,1.2,1.2,1.7
		c0.7,0.9,1.2,1.6,1.2,1.6l-1.1,0.8c0.7,0.8,1.4,1.5,2,2.2c0.7,0.6,1.3,1.2,2,1.7c1.3,1,2.5,1.8,4,2.5c1.4,0.8,3,1.5,4.9,2.1
		c2,0.6,4.4,1.2,7.4,1.3c-2.2,0.3-2.2,0.4-1.1,0.7c1.1,0.3,3.3,0.4,5.3,0.4c2,0,3.8-0.1,4.5,0.1c0.6,0.2,0.2,0.6-2.6,1.4
		c3.3-0.2,5-1.1,6.4-1.6c0.7-0.3,1.3-0.5,2-0.5c0.3,0,0.6,0,0.9,0.1c0.2,0,0.3,0.1,0.5,0.2l0.3,0.1c0.1,0,0.3,0.1,0.4,0.1
		c1.4-0.4,1.6-0.6,1.1-0.8c-0.2-0.1-0.7-0.1-1.2-0.1c-0.3,0-0.5,0-0.7,0c-0.2,0-0.5,0-0.7,0c-2,0.1-5.1,0.7-6.7,0.6
		c-0.7-0.4-0.2-0.8,1-1.2c1.2-0.4,3.1-0.8,5.3-1c0.6,0,1-0.1,1.7-0.1c0.7,0,1.4,0,2.1-0.1c1.5-0.1,2.9-0.6,4.2-1.3
		c1.3-0.7,2.4-1.6,3.4-2.4c0.5-0.5,0.9-0.9,1.3-1.3c0.4-0.4,0.7-0.8,1-1.2c0.6,0.1,0,1.3,0,1.7c0,0.2,0.2,0.2,0.9-0.3
		c0.6-0.5,1.7-1.4,3.3-3.1c0.3-1,1.1-2.8,2.2-4.7c1.2-2,2.6-4.2,4.3-6c-0.6-0.4,0.6-2.5,2.2-5.1c1.6-2.6,3.6-5.7,4.8-7.8
		c-2.9,4.7-7.7,11.1-6.9,7.4c1.6-4,3.1-7.4,8.1-15.7c0,0-1,1.4-1.9,2.7c-1,1.4-1.9,2.8-1.9,2.8c1.2-4.2,3.2-7.1,5.7-10.1
		c1.3-1.5,2.6-3,3.9-4.6c1.4-1.6,2.9-3.4,4.6-5.5c-1.4,2.2-2.4,3.8-3.3,5.4c-0.8,1.6-1.6,3.1-2.1,4.8c0.9-2,2.4-5.2,4.8-8.6
		c1.2-1.7,2.7-3.4,4.5-4.8c0.9-0.7,1.9-1.2,3-1.5c0.5-0.1,1.1-0.3,1.6-0.2c0.5,0.1,1,0.3,1.4,0.6c0,0,0.4,0.6,0.8,1.6
		c0.4,1,0.9,2.3,1.2,3.6c0.3,1.3,0.6,2.6,0.7,3.5c0.1,0.9,0.2,1.5,0.2,1.5c0.6,0,1.3,2.3,2,4.4c0.3,1.1,0.6,2.1,1,2.9
		c0.2,0.4,0.3,0.7,0.5,1c0.2,0.2,0.3,0.3,0.5,0.3c1.1,6,0.1,3.7-1.4-0.1c-1.3-3.4-3.1-7.2-3.6-7.1c0.8,2.8,1.3,4.6,1.8,6
		c0.3,0.8,0.6,1.6,0.9,2.2c0.3,0.8,0.6,1.4,0.9,2.1c1.1,2.7,2.1,5.5,2.6,12.8l-2.3-4.4c1,4.7,3.6,14,3.1,14.7
		c0.4-0.1-0.2-2.4-0.8-5.4c1.6,1.2,3.2,6.6,4.7,11.4c1.4,4.8,2.7,9.1,4,7.9l-1.1-6.6c2.5,10,5.7,16.8,6.1,24.8
		c0.2,6.1-2.6-3.8-4-7.3c1.6,9.5,4.5,7.2,6.3,18.6c-0.6-6.1,0.6-5.1,1.9-1.6c-1-6.6-3-20.4-3.7-17.8l0.2,2.4c-0.8-0.5-1.8-4-2.4-5.7
		c-1.7-9,0.5-4.4,0.7-6.3c-2.4-15-3-0.7-5.6-14.4l0.2-1.9c-2-6.4-4.4-16.5-6.5-17.9c0.2-3.1-1-7-2.3-10.6c-0.7-1.8-1.4-3.5-2-5.2
		c-0.7-1.7-1.3-3.3-1.8-5.1c0.3-0.8,0.5-0.9,0.9-0.7c0.4,0.3,0.9,0.9,1.4,1.9c1.1,2,2.2,5.5,3.1,9.2c0.2,0.9,0.4,1.9,0.7,2.8
		c0.2,0.9,0.4,1.8,0.6,2.7c0.4,1.8,0.8,3.6,1.1,5.2c0.8,3.3,1.6,6.3,2.5,8.1c-0.8-7.3,2.8,3.7,4.3,6.5c0,0-1.6-5.6-3.3-11.2
		c-0.9-2.8-1.7-5.6-2.4-7.6c-0.7-2.1-1.2-3.5-1.2-3.5c0.1-0.8,0-3.6-0.6-6.8c-0.6-3.2-1.8-6.7-3.4-8.1c0,0,0.2,0.5,0.4,1
		c0.2,0.5,0.4,1,0.4,1c-1.2-2.4-2.2-3.7-2.9-4.6c-0.8-0.9-1.4-1.3-2-1.7c-0.6-0.4-1.1-0.8-2.1-1.3c-0.9-0.6-2.5-0.6-4.5-0.2
		c-0.6,0-0.3-0.4,0.3-0.8c0.6-0.4,1.4-0.8,1.8-0.9c-2,0.1-3.4,0.7-4.4,1.3c-1,0.6-1.6,1.1-2.1,1.7c-1,1.1-1.8,2.2-3.5,4.3
		c-1.4,1.4-1.9,1.9-2.1,1.8c-0.2-0.1,0.1-0.7,0.4-1.4c0.3-0.7,0.7-1.4,0.7-1.6c0-0.2-0.5,0-1.8,1.3c-1.5,2.3-2.7,4.4-4,6.3
		c-0.6,0.9-1.2,1.8-1.8,2.7c-0.5,0.8-1,1.4-1.5,2.1c-1.9,2.7-3.8,5.1-5.6,8.4c1.7-0.8-1.1,6-3.2,11.2c-1.1,2.6-2,4.9-2.1,5.8
		c-0.1,0.8,0.8,0.3,3.2-2.9c0,0-1.8,4-3.9,8c-1,2-2.2,3.9-3.1,5.4c-0.9,1.4-1.6,2.4-1.6,2.4c-2.4,1.8-0.7-1.1,0.4-4.1
		c1.1-3,2-6.2-0.1-4.7c0,0,1.9-2.8,3.7-5.8c1.8-2.9,3.5-6,3.5-6c-0.9,0.2-2.1,1.9-3.6,4.4c-1.5,2.5-3.3,5.9-5.4,9.2
		c-1.1,1.6-2.2,3.3-3.4,4.7c-0.6,0.7-1.3,1.4-1.8,1.9c-0.6,0.5-1.3,1-1.9,1.4c-0.7,0.4-1.4,0.6-2.1,0.7c-0.7,0.1-1.4,0-2.1-0.1
		c-0.2,0-0.3,0-0.5-0.1c-0.2,0-0.4,0-0.6,0c-0.4,0-0.8-0.1-1.2-0.1c-0.8-0.1-1.5-0.2-2.1-0.3c-3.9,0.5-5.2,0.8-7.3,0.9
		c-1,0.1-2.3,0.1-3.9,0c-1.6-0.2-3.7-0.5-5.9-1.8c0,0,0.2,0.8,0.4,1.5c0.1,0.4,0.3,0.8,0.4,1c0.1,0.3,0.2,0.5,0.2,0.5
		c-3-1.1-4.4-2.7-5.2-3.9c-0.8-1.1-0.8-1.9-0.8-2.1c-0.3-0.3-0.7-0.5-1-0.9c-0.3-0.3-0.6-0.6-0.9-0.9c-0.6-0.7-1.2-1.3-1.7-2
		c-0.5-0.7-1-1.4-1.5-2.2l-0.7-1.1l-0.7-1.2c0.8,0.7,1.8,1.7,3.2,3.4c-0.4-1.1-0.7-2.2-1.1-2.9c-0.3-0.8-0.6-1.4-0.9-1.9
		c-0.6-1-1.3-1.6-2-2.2c-1.8-2.2-3.5-6.1-5.1-10.3l2.3,3.3c-0.6-1.2-1.2-2.5-1.8-3.6c-0.6-1.1-1-1.9-1.3-1.9
		c-0.7-1.7-1.3-3.4-1.9-4.9c0,1.3-0.6,4.6,1.2,10.8c-1.3-3.9-2.4-7.8-3.5-11.4c-1.1-3.7-2.1-7.3-3.1-10.8c-2-7-3.7-13.8-5-21
		c0.9,0.3,3.6,5.8,3.1,4c-1.9-7.1-5.6-14.2-6.4-13.2c-0.6-1.5-1-2.7-1.4-3.8c0.2-1.5,0.3-3.4-0.7-6.7c0-0.8-0.3-2.1-1-4.5
		c-2.7-1.7-6.2-15.3-8.1-17.9c0.9,3.2,2.2,7,3.6,10.9c-3.2-5.1-6.3-9.6-6.8-14.3c4.8,9.9-1.8-11.7,4.1,3.7c-1.4-11.8-3.7-5.1-6.9-17
		l-1.8-7.8c0.9,0.3,2.2,3.3,3.2,5.9c1,2.6,1.8,5,1.7,4l-2-5.1c1.4,2.4,3.8,8.6,6.4,15.6c2.6,7,5.5,14.9,8.3,20.7
		c0,0-1.9-6.1-3.7-12.3c-1.9-6.1-3.8-12.3-3.8-12.3c-3.1-7.5-6.2-15.5-9.4-23.7c-0.8-2.1-1.6-4.1-2.4-6.2c-0.8-2.1-1.7-4.2-2.5-6.3
		c-1-2.4-1.9-4.7-2.9-7.1c-0.4-1-1.2-2.9-1.9-4.4c-0.7-1.6-1.4-3.2-2.1-4.8l-1.1-2.4c-0.2-0.4-0.3-0.9-0.5-1.1l-0.6-0.9
		c-0.8-1.2-1.6-2.4-2.4-3.6c-0.8-1.2-1.6-2.4-2.4-3.6c-0.4-0.4-0.8-0.8-1.3-1.2c-0.4-0.4-0.9-0.7-1.3-1.1c-0.9-0.7-1.8-1.3-2.9-1.7
		c-1.1-0.5-2.3-0.8-3.7-0.8c-1.4,0.1-2.7,0.4-3.7,0.9c-1.1,0.5-2.1,1.1-3,1.8c-1.8,1.4-3.4,3.2-4.8,5.3c-1.5,2.1-2.7,4.6-3.8,7.2
		c-0.3,0.7-0.5,1.3-0.8,2c-0.3,0.7-0.5,1.3-0.7,2c-0.5,1.3-0.9,2.7-1.3,4c-0.4,1.3-0.7,2.6-1.1,3.9c-0.2,0.7-0.3,1.2-0.4,1.7
		c-0.1,0.6-0.3,1.1-0.4,1.7c0.1-0.5,0.3-1,0.4-1.5c-0.1,0.6,0.1,1,0.5,1.7c0,0-0.2,0.4-0.4,0.6c-0.2,0.3-0.4,0.5-0.4,0.5
		s-0.1,1.4-0.3,2.8c-0.1,1.4-0.2,2.8-0.2,2.8c-3.1,5.6-6.3,16.8-9.6,26.1c2.3-5.8,2.4-5.8,3.6-6.1c1.1,1.5,1.5,2.6-1.2,11.4
		c-1-0.1,0.3-5.6-2.1,0.7c1.3-3.3,1.3-0.1,0.5,3.8c-1.8,4.9-3.9,13.2-5,13c0.3-2.4,1-4.2,1.6-5.7c0.3-2.4-3.1,9.2-2.3,2.1l-1.8,9.1
		c-2.1,5.1-0.5-3.8-1.6-1.8c-2.8,15.2-2.2,23.4-5.1,36.9c-0.4-0.8-2.6-1.5-2-1.2c-1.7,5-2.6,10.6-3.7,16.2c-1.2,5.9-2.3,12-4.1,17.8
		c-0.1-1.9,1.6-6.2,2.5-9.8c-6.3,17.6-11.8,33.7-17.8,49.1c-0.8,1.9-1.5,3.8-2.3,5.6l-0.5,1.3c-0.1,0.3-0.1,0.3-0.2,0.4l-0.2,0.3
		l-0.6,1.3c-0.8,1.7-1.7,3.2-2.7,4.6c-0.5,0.7-1,1.3-1.6,1.7c-0.3,0.2-0.6,0.4-1,0.5c-0.4,0.1-0.8,0-1.2-0.3
		c-0.7-0.6-1.1-1.6-1.4-2.5c-0.3-0.9-0.5-1.8-0.6-2.7c0,0-0.7,0-1.4-0.4c-0.7-0.4-1.5-1.2-1.5-1.2s0.1-1.4,0.2-2.5l0-0.2l0-0.4
		c0-0.3,0-0.5,0-0.8c0-0.5-0.1-1-0.1-1.4c-0.1-0.9-0.1-1.5-0.1-1.5c-1.8-9.2-4-17.8-6.4-26.1c-2.5-8.3-5.2-16.2-8.7-23.9
		c-0.9-1.9-1.8-3.9-2.8-5.8c-0.5-1-1-1.9-1.5-2.9l-0.9-1.6c-0.4-0.7-0.7-1.3-1.2-2c-3.3-5.6-7.5-10.5-12.6-13.1
		c-2.5-1.3-5.4-2-8.3-1.7c-0.7,0.1-1.4,0.2-2.2,0.4c-0.7,0.2-1.4,0.5-2,0.8c-1.3,0.6-2.6,1.4-3.7,2.3c-2.3,1.8-4.2,4.2-5.9,7
		c-0.4,0.7-0.8,1.4-1.2,2.1c-0.4,0.7-0.7,1.5-1.1,2.2c-0.7,1.5-1.4,3.1-1.9,4.5c-0.2,0.4-0.3,0.9-0.5,1.3c-0.1,0.3-0.2,0.6-0.3,0.9
		c-0.2,0.6-0.4,1.1-0.6,1.6c-0.4,0.9-0.7,1.7-0.9,2.3c-0.5,1.1-0.9,1.6-1.3,2c-0.8,0.7-1.4,0.7-2.5,3.1c-7.6,22.7-6.8,29.1-13.4,51
		c0.3-3.2,0-8.9-3.2,0.3c0.1,1.9,0.7,3.4-1.7,9.2l0.3-3.2c-2.8,5-3.6,10.5-7.9,21.4c-6.8,19.5-12.3,38.2-16.9,54.7
		c-1.9,4.1-3.1,5.9-3.6,6.5c-0.5,0.5-0.5-0.2-0.4-1.4c0.4-2.4,1.5-6.4,0.5-4.9c3-5.6,3.8-7.7,3.9-8.7c0.1-1-0.5-1-0.3-2.4
		c-1,3.2-2.3,6.7-3.6,9.7c-1.4,3-2.9,5.4-4.4,6.6c-2,4.2-3.5,7.1-5,10.1c-1.5,3-2.8,5.9-4.7,10c1.9-4.1,4.6-7,3.1-2.9
		c-2.1,3.1-5.7,8.6-9.1,12.6c-3.4,4.1-6.6,6.5-6.9,5.4c-1.6,1.6-3.3,3.1-5,4.2c-0.4,0.3-0.8,0.5-1.2,0.8l-0.4,0.2
		c0,0-0.1,0.1-0.2,0.1c-0.4,0.2-0.7,0.3-1.1,0.4c-0.8,0.2-1.7,0.4-2.3-0.3c-0.3-0.3-0.6-0.6-0.8-0.9c-0.1-0.2-0.2-0.3-0.3-0.5
		l-0.2-0.3l-0.2-0.4c-1.1-2.1-2.2-4.6-3.3-7.2c-1-2.6-2-5.2-3-8c-1.9-5.5-3.6-11.1-5.3-16.9c-3.3-11.5-6.5-23.4-9.6-35.2
		c-3.2-11.9-6.4-23.8-10.2-35.6c-1.8-3.8-1.4-2.3-0.9-0.3c0.6,2,1.3,4.4,0.2,2.3c-2.5-5.6-3.1-7.9-3.6-10c-0.5-2.1-0.8-3.9-3.2-8.4
		c0,0,0.7,0.9,1.3,1.7c0.6,0.9,1.3,1.7,1.3,1.7c-0.6-1.8-1.3-3.5-2.2-5.3l-0.3-0.7l-0.4-0.8l-1-2c-0.3-0.7-0.7-1.3-1.1-2l-0.5-1
		l-0.6-0.9c-1.6-2.5-3.4-4.7-5.6-6.4c-2.1-1.7-4.5-2.9-7.2-3.4c-2.7-0.5-5.4-0.1-7.9,0.8c-2.5,0.9-4.7,2.4-6.8,4.1
		c-2.1,1.8-4,3.8-5.7,5.7l-0.9,1l-0.4,0.5c-0.1,0.2-0.1,0.2-0.2,0.3c-0.3,0.4-0.5,0.7-0.8,1.1c0-0.9-1.1-0.2-1.7,0
		c-0.3,0.1-0.5,0.2-0.4-0.1c0.1-0.2,0.5-0.7,1.2-1.6c-0.4,0.5-1.1,0.7-1.8,0.4c-0.6-0.2-1.2-0.8-1.5-1.6c-0.3-0.8-0.3-1.7-0.2-2.2
		c0.1-0.5,0.1-0.7-0.1-0.5c0,0-0.2,0.3-0.5,0.9c-0.2,0.6-0.5,1.4-0.6,2.4c-0.1,0.9-0.1,1.9,0,2.7c0.1,0.7,0.3,1.2,0.3,1.2
		c-0.1,0.2-0.4,0.2-0.8,0.1c-0.4-0.1-0.9-0.4-1.3-0.8c-0.8-0.8-1.3-1.7-1.3-1.3c-0.2-0.9-0.3-1.7-0.4-2.5c0-0.4,0-0.8-0.1-1.1
		c-0.1-0.6-0.2-1.2-0.3-1.8c-0.3-1.3-0.5-2.7-0.7-3.9c-0.2-1.3-0.5-2.4-0.8-3.4c0.4-1.1,1.2,0.8,2.2,3.4c0.2,0.6,0.5,1.3,0.7,2
		c0.3,0.7,0.5,1.4,0.7,2c0.1,0.4,0.3,0.7,0.4,1.1c0.1,0.2,0.2,0.4,0.2,0.5c0.5-0.3,0.7-0.8,0.8-1.2c0-0.1,0.1-0.2,0.1-0.3
		c-0.1-0.3-0.1-0.7-0.2-1c-0.2-0.8-0.4-1.6-0.6-2.4c-0.2-0.8-0.3-1.6-0.5-2.3c-0.1-0.7-0.2-1.3-0.2-1.6c0.1-0.7,0.5-0.5,1.5,1.1
		c-3.7-10.9-0.7,1.9-3.5-4.4c0,0-0.6-2.5-1.2-4.9c-0.6-2.5-1.1-5-1.1-5s0.3,1.9,0.7,3.9c0.2,1,0.3,2,0.5,2.7
		c0.1,0.7,0.2,1.2,0.2,1.2c-0.8-2-1.5-3.6-2.2-5.1c-0.7-1.5-1.3-2.9-1.9-4.4c-1.2-3-2.2-6.5-3-12.2c0,0-1.3-2.7-2.5-5.5
		c-1.3-2.8-2.5-5.5-2.5-5.5c1.5-1.6-1.7-8.6-2.7-14.7l2,3.5c-1.9-8-2.3-11.2-2.8-16.3c2.6,4.2,1.3,7.3,3.2,8.9l-1.5-8.9
		c-1,0.3-3.1-5.1-2.2,1.3c-3.8-7.7-6.3-11.9-10.9-32.4c-0.4-9.7,3.8,9.6,4.6,5.4c-2.1-10.8-4.7-17-7.2-22.2
		c-2.5-5.1-4.8-9.1-6.2-15.4c-1.6-8-2.9-11.7-4.2-15.4c-0.7-1.8-1.4-3.7-2.2-6.1c-0.4-1.2-0.8-2.5-1.4-4c-0.5-1.5-1.1-3.3-1.7-5.3
		c1.4,2.4,0.8-0.5-0.1-4.5c0-0.2-0.1-0.6-0.3-0.9c-0.1-0.3-0.2-0.7-0.3-1c-0.2-0.7-0.4-1.4-0.7-2.1c-0.4-1.5-0.9-2.9-1.3-4.3
		c-0.4-1.4-0.8-2.7-1.1-3.8c-0.2-0.5-0.2-1.1-0.4-1.5c-0.1-0.4-0.3-0.7-0.3-1c0,0,0.1,0.1,0.2,0.3c0.1,0.2,0.4,0.4,0.6,0.7
		c0.4,0.8,1,1.8,1.5,2.9c1.1,2.2,2.3,4.4,2.3,4.4c-0.8-1.8-1.5-3.6-2.1-5.3c-0.3-0.8-0.6-1.7-0.8-2.4c-0.1-0.2-0.1-0.4-0.2-0.6
		c-0.1-0.2-0.2-0.3-0.2-0.4c-0.1-0.3-0.3-0.6-0.4-0.8c-1-2.1-1.5-3.5-0.6-3c-0.1,0.7-1.2-0.5-2.8-2.8c-0.4-0.6-0.8-1.2-1.3-1.9
		c-0.2-0.4-0.5-0.6-0.8-0.9c-0.3-0.3-0.6-0.5-0.9-0.8c-1.2-1-2.6-2.1-4.4-2.9c-0.9-0.4-1.9-0.7-3.1-0.8c-1.2-0.1-2.4,0.1-3.4,0.4
		c-2.1,0.7-3.8,1.9-5.4,3.3c-3.2,2.8-5.7,7.1-7.5,10.9c0,0,0.1-0.1,0.3-0.2c0.2-0.1,0.5-0.2,0.8-0.4c0.5-0.2,1.1-0.5,1.1-0.5
		c-1.4,2.7-2.7,5.9-3.9,9.2c-0.3,0.8-0.6,1.7-0.9,2.5c-0.1,0.4-0.3,0.9-0.4,1.3L542,3c-0.6,1.7-0.9,2.8-1.3,4.2
		c-1.6,5.2-3.2,10.5-4.8,14.9c-3.9,13.5-1.7,10.8-3.7,21.5c-3.2,5.2-4.3,4-5.1,1.7c1.9-3.2,3.5-9.3,5.8-15.1
		c2.2-8.6,3.6-16.5,5.5-24.3c0.5-1.8,1.1-4.1,2.2-7.3c1-3,2.1-6,3.5-8.9c1.3-2.9,2.9-5.6,4.6-7.8c1.7-2.2,3.6-4,5.7-5.2
		c0.8-1.1,1.4-1.6,1.5-2c0.2-0.3,0-0.4-0.5-0.2c-1,0.3-3,1.5-5.2,4c-0.6,0.6-1.1,1.3-1.7,2.1c-0.6,0.8-1.1,1.6-1.7,2.5
		c-1.1,1.9-2.2,3.9-3.2,6c-0.3,0.5-0.5,1.1-0.7,1.6c-0.2,0.5-0.5,1.1-0.7,1.6c-0.5,1-0.9,2.1-1.3,3.1c-0.4,1-0.9,2-1.3,2.9
		c-0.2,0.5-0.4,0.9-0.6,1.3c-0.2,0.4-0.4,0.8-0.5,1.2c0-0.2,0-0.5,0.1-1c0.1-0.4,0.3-1,0.5-1.5c-0.2,0.6-0.5,1.2-0.7,1.7
		c-0.2,0.5-0.4,0.9-0.6,1.4c0.2-0.6,0.4-1.1,0.6-1.7c0.2-0.7,0.5-1.4,0.7-2.1c0.5-1.5,1.1-2.9,1.6-4.5c1.2-3,2.5-6.1,3.9-8.7
		c2.7-5.4,5.6-8.5,6.2-10.1c-2.8,2.1-4.4,4.7-5.5,6.8c-0.6,1.1-1,2.1-1.4,3.1c-0.4,1-0.7,1.9-1.1,2.9c-0.7,1.9-1.4,4-2.5,6.8
		c-0.6,1.4-1.2,3-2,4.9c-0.4,0.9-0.8,1.8-1.2,2.8c-0.2,0.5-0.4,0.9-0.6,1.4c-0.2,0.4-0.3,0.7-0.5,1.1c-2.5,9.8-7.4,16.6-9.5,22.1
		c-0.4,3.3,0,5.2-0.1,8.1c-0.1,1.5-0.3,3.2-0.9,5.5c-0.3,1.1-0.6,2.4-1.1,3.8c-0.2,0.7-0.5,1.5-0.8,2.3c-0.2,0.4-0.3,0.8-0.5,1.2
		c-0.1,0.2-0.2,0.4-0.3,0.6l-0.1,0.3l-0.1,0.2l0,0.1c0,0,0,0,0-0.2c0-0.2,0-0.5,0.1-0.8c0.1-0.7,0.1-1.5,0.2-2.4
		c0.1-1.8,0.2-3.5,0.2-3.5c-0.7,2.1-1.3,3.7-1.7,5.1c-0.1,0.3-0.2,0.7-0.3,1c-0.1,0.2-0.1,0.2-0.1,0.2l0,0.1c0,0.2,0,0.3,0,0.4
		c0.1,0.6,0.2,1.1,0.4,1.6c0.1,0.5,0.3,1.1,0.2,2c-0.1,0.8-0.4,2-1.4,3.4c0.7-0.8,0.6,0.3,0.6,1.3c0,0.5,0,0.9,0.2,0.9
		c0.2,0,0.7-0.5,1.4-1.8c-0.2,1-0.6,2.2-1.2,3.4c-0.3,0.6-0.7,1.2-1.2,1.8c-0.5,0.6-1.1,1.1-1.8,1.3c-0.7,0.2-1.5-0.1-2.1-0.6
		c-0.6-0.5-1.1-1.1-1.5-1.8c-0.8-1.3-1.5-2.8-2-4.2c-0.8-1-0.6,0.4-1.1,0.8c0.5,1.9,1.2,3.5,2,4.7c0.8,1.2,1.7,2.1,2.8,2.6
		c0.6,0.2,1.2,0.3,1.8,0.2c0.6-0.2,1.2-0.5,1.7-0.9c1-0.7,1.8-1.5,2.8-2.1c0,0,0.4-1.8,0.6-3.5c0.2-1.6,0.3-3.1,0.3-3.1
		c1.4-2.1,2.5-3.4,3.2-3.6c0.7-0.2,1,0.8,0.5,3.3c0.8-2.1,1.1-3.7,2.1-5.6c1.7-0.3,0.5,2.5-0.9,5c-1.4,2.7-2.9,5.1-2.8,7.9
		c0,0,0.6-1.4,1.2-2.8c0.6-1.4,1.1-2.8,1.1-2.8c0.6-0.2,0.7,0.5,0.4,2c-0.4,1.5-1.2,3.8-2.4,6.2c-0.6,1.2-1.3,2.5-2.1,3.7
		c-0.8,1.2-1.7,2.4-2.8,3.3c-1.1,0.9-2.5,1.5-3.8,1.2c-1.3-0.3-2.3-1.2-3-1.9c-0.8-1-1.5-2.1-2.1-3.2c-0.6-1.1-1.1-2.2-1.5-3.3
		c-0.9-2.1-1.5-4.1-2-5.8c-1-3.4-1.3-5.5-0.7-6.1c0,0,1,2.4,2.2,4.7c0.6,1.1,1.1,2.2,1.6,3c0.5,0.8,0.8,1.3,0.8,1.3
		c-0.9-3-2.1-5.5-3.6-8.4c-0.4-0.7-0.7-1.5-1.1-2.2c-0.4-0.9-0.8-1.9-1.2-2.8c-0.8-1.9-1.5-3.8-2.1-5.6c0-0.5,0-1.3-0.2-2.1
		c0,0.4-0.1,0.7-0.2,0.7c-0.4-1.5-0.7-3-0.7-4.2c-1.9-6.3-5.5-15.4-7-21.4l-1,1.1l0.9,0.6c1.8,5.8,3.4,13.9,1.1,9.8
		c-4.8-12.8-3.4-16.2-3.4-19.7c2.9,2.4,4.1,12.8,6.8,19.3c0.3-2.3-0.6-5.6-2.1-10.2c-0.7-2.3-1.6-4.8-2.5-7.7
		c-0.5-1.5-1-3.1-1.5-4.8c-0.3-1-0.6-2.1-1-3.2c-0.4-1.1-0.7-2.3-1.1-3.4c0.6,0.7,1.1,1.6,1.7,2.6c0.5,1,1.1,2.2,1.5,3.3
		c0.2,0.6,0.4,1.1,0.7,1.7c0.2,0.5,0.3,0.9,0.5,1.4c0.3,0.9,0.6,1.9,0.9,2.8c1.2,3.7,2.2,7,3.6,8.2c-1.5-5.5-2.9-8.9-4.4-12.4
		c-1-2.4-2-4.8-3.1-7.6c-1.2-2.8-2.5-6.1-4.5-9.7c0.2,0.1,0.5,0.4,0.9,0.8c0.4,0.5,0.8,1.1,1.3,1.8c0.5,0.8,1,1.6,1.5,2.6
		c0.5,1,1,2,1.5,3c1,2,1.9,4.1,2.6,5.5c0.7,1.3,1.2,2,1.4,1.6c0,0-0.2-0.7-0.5-1.7c-0.3-1-0.8-2.6-1.3-4.2c-1-3.1-2.2-6.1-2.2-6.1
		c1.6,3.5,2.6,6.2,3.4,8.1c0.2,0.5,0.4,0.9,0.5,1.3c0.2,0.3,0.3,0.7,0.4,0.9c0.2,0.5,0.4,0.9,0.6,1.2c0.7,1.1,0.7,0.2,0.7-1
		c0-0.6,0-1.2,0-1.6c0-0.5,0.1-0.8,0.3-0.6c0.2,0.2,0.6,0.7,1.2,2c0.7,1.6,1.1,2.5,1.8,4.4c-0.2-0.9-0.4-1.7-0.6-2.5
		c-0.1-0.2-0.1-0.4-0.2-0.6c-0.1-0.3-0.2-0.6-0.3-0.9c-0.2-0.6-0.4-1.1-0.6-1.7c-0.4-1-1-2.3-1.5-3.4c-0.5-1.2-1.1-2.3-1.6-3.4
		c-1.1-2.3-2.4-4.6-3.8-7.3c-1.5-2.6-3.1-5.6-5.4-8.6c0.3,0.5,0.6,1,1,1.8c0.4,0.7,0.8,1.4,1.1,2.2c0.3,0.8,0.7,1.6,0.9,2.3
		c0.3,0.7,0.5,1.5,0.6,2c0.2,1.1,0.2,1.7-0.4,1.2c-0.6-0.4-1.7-2-3.7-4.4c0,0-0.1-0.2-0.4-0.5c-0.2-0.3-0.6-0.8-1-1.3
		c-0.8-1.1-2-2.3-3.2-3.3c-1.2-1.1-2.5-1.9-3.6-2.4c-1.1-0.5-1.9-0.7-1.9-0.7c-2.9-1,1-1.2,3.6-0.5c1.4,0.3,2.6,0.8,3.1,0.8
		c0.5,0,0.3-0.6-1.6-1.9c0,0-0.2-0.1-0.5-0.2c-0.3-0.2-0.8-0.3-1.4-0.5c-1.2-0.4-2.9-0.8-5-0.8c-1,0-2,0.1-2.9,0.3
		c-0.9,0.2-1.6,0.5-2.2,0.7c-1.2,0.5-1.9,0.9-1.9,0.9c0.3,0.2,1.8-0.2,3-0.3c0.6,0,1.1,0,1.1,0.2c0.1,0.2-0.3,0.4-1.3,1
		c-1.8,0.5-3.2,1.4-4.4,2.7c-0.6,0.6-1.1,1.4-1.7,2.1c-0.1,0.2-0.3,0.4-0.4,0.7l-0.3,0.8c-0.2,0.5-0.4,1-0.7,1.6
		c-0.9,2.1-1.7,4.3-2.6,6.5c-0.2,0.5-0.4,1.1-0.6,1.7c-0.2,0.6-0.4,1.3-0.6,2c-0.4,1.3-0.8,2.7-1.3,4.1c-0.9,2-1.7,3.9-2.5,5.6
		c-0.6,1.3-1.1,2.6-1.6,3.6c-1,2.2-2,3.9-2.7,4.7c-2,7.5-4.6,15.9-7.1,24.1c-2.5,8.2-4.8,16.3-6.2,23.3c1.9-9.5-2.2-0.4-5,4.8
		c3.3-10.6,1.5-11.3,0-11c-2,6.5-1.4,11.4,0.3,8.3c-4.4,10.5-1.2,7.8-5.6,16.8c-2.7,5.9-0.9-3.7-2.3-1.8c-3.9,11.6,1.3,3.9-3.3,16.4
		c0-0.8,0.3-1.9-0.4-1.1c-2.6,6.7-4.1,14.3-3.6,16c-4.8,6.4-6.3,20.5-8.2,18.3c-0.6,1.9-0.9,3.3-1.2,4.2c-0.3,1-0.4,1.5-0.4,1.8
		c0,0.6,0.4,0,0.9-0.9c1.1-1.9,2.7-5.4,2.6-3.7c-0.5,3.3-2.1,7.7-4.1,11.3c-2,3.6-4.4,6.1-5.5,7.1c2.1-2.5,3.2-5.6,5.1-8.6
		c0,0-0.8,0.5-1.5,1c-0.4,0.2-0.7,0.5-1,0.6c-0.3,0.2-0.5,0.3-0.5,0.3c-2.4,3.6-4,5.3-5,6.7c-0.5,0.6-0.9,1.3-1.3,1.7
		c-0.2,0.3-0.3,0.5-0.5,0.8c-0.2,0.2-0.4,0.5-0.5,0.7c-0.7,1-1.5,1.9-3.3,2.7c-0.4,0.2-1,0.4-1.6,0.6c-0.6,0.2-1.3,0.4-2.1,0.6
		c-1.6,0.4-3.6,0.6-6.4,1c2.8-0.8,4.2-1.3,5-1.6c0.8-0.4,1-0.6,1.1-0.8c0.1-0.2,0-0.4,0.1-0.7c0.1-0.1,0.2-0.3,0.5-0.5
		c0.3-0.2,0.6-0.4,1.1-0.7c-0.3,0.1-0.7,0.3-1.3,0.5c-0.3,0.1-0.6,0.2-1,0.3c-0.4,0.1-0.8,0.2-1.2,0.3c-1.7,0.4-3.7,0.8-5.6,1.3
		c-0.9,0.2-1.7,0.5-2.3,0.7c-0.6,0.2-1,0.4-1.1,0.5c-0.1,0.1,0.1,0.1,0.7,0.1c0.6,0,1.6-0.2,3-0.3c-4.3,0.8-8.7,2.3-12.3,4.3
		c-3.6,2-6.5,4.5-8.9,7.1c-2.7,3.7-4.6,7.7-5.9,11.2c-1.4,3.5-2,6.8-2.2,9c-1.9,5.6-3.3,10.4-4.6,14.5c-1.2,4-2.2,7.4-3,10
		c-1.1,11.8-2.3,22.9-3.5,34c-1.2,11.1-2.3,22.4-3.1,34l0.3-1.7c-0.7,4.5-0.8,6.2-0.7,6.6c0.1,0.4,0.6-0.5,1-1.4
		c0.5-0.9,0.9-1.8,1.1-1.3c0.2,0.5,0.1,2.4-0.7,7c-0.9-1.4-1.7,1.3-2.7,4.8c-0.5,1.7-1.1,3.7-1.8,5.3c-0.2,0.4-0.3,0.8-0.5,1.2
		c-0.1,0.2-0.2,0.4-0.3,0.5l-0.2,0.2c-0.2,0.3-0.5,0.5-0.7,0.7c-0.6,0.8-1.3,1.5-2.2,1.6c-0.4,0.1-0.9,0-1.3,0c-0.2,0-0.4,0-0.7,0
		c-0.5,0-0.9-0.1-1.4-0.1c-4.2-0.4-7.6-1.4-11.1-3.2c-3.4-1.8-6.7-4.5-9.9-7.8c-1.6-1.6-3.1-3.5-4.7-5.4c-0.8-1-1.5-2-2.2-3
		c-0.7-1-1.5-2.1-2.2-3.2c0.2-0.1,0.7,0.1,1.3,0.7c0.7,0.6,1.6,1.5,2.9,3.1c-4.6-6.4-8.7-12.4-12.7-18.5c-2-3-3.9-6-5.9-9
		c-0.3-0.4-0.4-0.7-0.6-1l-0.6-1c-0.4-0.7-0.8-1.3-1.2-2c-0.7-1.5-1.5-2.9-2.2-4.5l0.5,0.4c-3.7-10.3-6.9-20.9-10-31.7
		c-3.1-10.9-6-22.1-8.5-34.3c0.6,1.9,1.5,2.3,2.1,3.8c-1.8-12.3-4.7-32.2-8-40.7c-0.2-15.1-2.1-9.7-3-29.2c0.2-1.2,0.6,1.8,0.9,3.1
		c-0.7-9.5-2-16.2-3.3-25.8c-2.4-10.5-4.7-16.9-6.8-23.8c-0.5-1.7-1.1-3.5-1.6-5.3c-0.5-1.9-1.1-3.8-1.7-6c-1.2-4.3-2.3-9.2-4-15.6
		c1.2-1.1,2.6,2.8,3.8,6.8c1.2,4.1,2.2,8.3,3.4,8.4c-1.7-4.9-3.2-9-4.7-16.2c2.4,3.9,1,0.7,2.9,3.3c-0.2-1.4-0.9-3.4-1.8-5.7
		c-1-2.2-2.2-4.6-3.5-6.9c-1.2-2.2-2.7-4.3-3.6-5.8c-1.1-1.5-1.7-2.4-1.6-2.4c-0.7,0,0.1,2,2.2,6.9c-1.1-1.3-2.2-3.5-3.7-6.3
		c-1.5-2.8-3.3-6.1-6.1-9.6c-0.8-0.9-1.5-1.8-2.3-2.6c-0.9-0.9-1.7-1.8-2.8-2.6c-2-1.7-4.4-3.1-6.8-4.1c-2.4-1-4.8-1.6-6.7-2
		c-1.9-0.4-3.6-0.6-4.8-0.7c0.8,0.2,2.2,0.4,4,0.9c1.8,0.4,4.1,1.1,6,2c1,0.5,1.8,0.9,2.5,1.4c0.7,0.5,1.2,0.9,1.5,1.2
		c0.6,0.6,0.3,0.8-1.3,0.3c-2.4-1.4-4.9-2.2-6.9-2.6c-2-0.5-3.7-0.7-5.1-0.8c-2.7-0.3-4.5-0.4-6.1-0.7c-1.6-0.3-3.1-0.8-4.7-1.8
		c-1.6-1-3.2-2.4-4.8-4.4c-1.4-3.1-1.6-4.2-1.2-4.1c0.4,0.1,1.4,1.3,2.7,2.8c0.7,0.6,1.3,1.4,2,2c0.3,0.3,0.7,0.6,1,0.9
		c0.3,0.2,0.7,0.4,0.9,0.6c0.6,0.4,1.1,0.5,1.4,0.6c0.4,0,0.6-0.1,0.6-0.5c-0.2-0.4-0.4-0.9-0.5-1.5c-0.1-0.3-0.1-0.6-0.2-0.8
		c0-0.3,0-0.6,0-0.8c0-0.5,0.2-0.8,0.5-0.8c0.3,0,0.8,0.3,1.6,0.8c-1.2-1.5-2.4-3.4-3.6-5.4c-0.3-0.5-0.6-1-0.9-1.6
		c-0.3-0.5-0.6-1.1-0.9-1.6c-0.7-1.3-1.4-2.6-2.1-3.8c-2.8-5-5.8-9.7-8.9-15l0.7,0c-4.2-7.5-9.5-15-15.5-21.7
		c-3-3.4-6.2-6.6-9.6-9.6c-3.4-3-7.1-5.7-11.3-7.8c0,0,2.2,1.1,4.1,2.5c1,0.7,1.9,1.4,2.5,1.9c0.6,0.5,1.1,0.9,1.1,0.9
		c-1.4-0.8-4.2-2.8-7.8-4.3c-1.8-0.8-3.9-1.3-5.8-1.6c-2-0.3-3.9-0.3-5.5,0c0.4-0.5-3.3-1-6.2-0.8c-1.5,0.1-2.8,0.3-3.3,0.2
		c-0.5,0-0.5-0.3,1-0.9c-1.2,0.7-2.7,1.6-4.5,2.7c-1.7,1.1-3.6,2.4-5.5,4c-3.8,3.1-7.5,7-10.7,11.1c-6.4,8.2-11,17-11.9,21.4
		c-2.9,3.6-2.2-0.2-2.1-1.8c2.8-4.6,5-7.6,6.7-10.1c1.7-2.5,3-4.5,4.4-7.2c-2.9,3.7-5.3,6.9-7,9c-1.7,2.1-2.7,3-2.6,2.2
		c-1.6,4.4-4.8,11.4-7.3,17.9c-2.5,6.5-4.5,12.6-4.6,15c-3.5,5.5-6.3,10.9-6.9,8.2c-4.7,12.7-2.2,10-0.1,7.8c1.1-1.1,2-2.2,2.1-1.2
		c0,0.5-0.2,1.5-0.8,3.3c-0.6,1.8-1.5,4.3-2.9,7.8c-6.4,12.3,2.9-13.3-4.5,4.2l1-3.4c-4.4,5.7-4.5,8.2-4.3,11.1
		c0.3,2.9,0.9,6.2-1.8,13.5c-2.8,1.2,2.1-10.7-3-1.2c-4.2,13.6-3,20.6-8.2,33.8l-0.2-2.4c-2.7,8.7-8.6,25.3-11.2,33.9
		c-0.6,0.3-0.1-1,0.3-2.6c-5.9,15.6-1,7-6.7,19.5l-0.1,4.1c2.8-6.3,7.9-18.6,9.4-27.2c-1.4,8.6,6.9-12.1,7.4-7.4L48,88.8
		c10.2-20.5,19.7-48.1,31.3-74.1C81.5,5.9,84.7-1.1,88.1-8c3.5-6.9,7.3-13.9,11.2-22.5c-0.4-1.9-0.1-2.8,1.4-4.9
		c0.7-1,1.7-2.4,3.1-4.4c1.4-1.9,3.1-4.5,5.5-7.7c-2.5,3.5-2.1,4-0.9,3.1c1.3-0.9,3.6-3.1,5.4-4.9c1.5-2.7,3.8-5.5,6.5-7.7
		c0.7-0.3,2.3-1,4.2-1.7c1-0.3,2-0.7,3.1-0.9c1.1-0.2,2.2-0.3,3.3-0.3c2.1,0.1,4.2,0.6,6.3,1.4c2.1,0.8,4,1.9,5.6,2.5
		c1.6,1.5,2.2,2.3,2.2,2.5c0.1,0.2-0.5-0.1-1.2-0.6c-0.4-0.3-0.8-0.6-1.3-0.9c-0.5-0.3-0.9-0.6-1.4-0.9c-0.5-0.2-0.9-0.5-1.3-0.7
		c-0.4-0.2-0.7-0.3-0.9-0.3c1,1.3,2.4,2,3.9,2.8c1.5,0.8,2.9,1.6,3.6,3c0,0-0.1,0-0.2,0c-0.2,0-0.4-0.2-0.8-0.4
		c2.4,2.3,4.4,4.8,6.2,7.2c1.8,2.4,3.4,4.9,4.9,7.4c3,5.1,5.9,10.5,9.3,17.5c1.4,0,3.4,3.3,5.4,7.5c0.5,1,1,2.1,1.5,3.2
		c0.3,0.6,0.5,1.1,0.8,1.7c0.3,0.6,0.6,1.2,0.9,1.8c0.6,1.2,1.2,2.3,1.9,3.4c0.6,1.1,1.3,2,2,2.9c-1.1-0.9,0,1.5,2.4,4.7
		c0.6,0.8,1.3,1.7,2.1,2.5c0.4,0.4,0.8,0.8,1.2,1.2c0.5,0.4,0.9,0.8,1.4,1.2c0.9,0.8,1.9,1.4,2.8,2.1c0.9,0.5,1.8,1.1,2.5,1.5
		c0,0,0.8,0.2,1.9,0.5c0.6,0.1,1.2,0.2,1.9,0.3c0.7,0.1,1.4,0.1,2.1,0.2c0.7,0,1.3,0,1.9,0.1c0.6,0,1.1,0,1.5,0
		c0.8,0,1.4-0.1,1.4-0.1c2.1,0,3.6,0.1,4.8,0.5c1.2,0.4,2.1,1,2.9,1.7c0.8,0.7,1.6,1.7,2.5,2.7c0.9,1.2,2,2.5,3.4,4.4
		c0,0-0.2-0.5-0.4-1.1c-0.1-0.3-0.2-0.5-0.3-0.7c-0.1-0.2-0.1-0.3-0.1-0.3c2.3,2.5,5.2,8.6,7,15.4c1.8,6.7,2.9,13.8,3,17.7
		c2.7,8.7,4.7,17.2,6.5,25.4c1.7,8.2,3.1,16.1,4.3,23.8c2.4,15.4,4,29.9,5.7,44.6c1.7,14.7,3.4,29.6,6.2,45.7
		c1.4,8.1,3,16.4,5.2,25.3c1.1,4.4,2.4,8.9,3.8,13.6c0.7,2.3,1.6,4.7,2.4,7.1c0.4,1.2,0.9,2.4,1.4,3.6c0.5,1.2,0.9,2.4,1.5,3.6
		c2.9,4.8-0.4-4.2,2.4-0.7c0.9,1.9,1.6,3.5,2.3,4.9c0.7,1.4,1.3,2.5,1.9,3.7c0.6,1.1,1.3,2.3,2,3.5c0.4,0.6,0.8,1.3,1.2,2
		c0.4,0.6,0.9,1.3,1.4,2.1c-1.5-2.8-2.3-4.3-2.6-4.6c-0.3-0.4-0.1,0.1,0.5,0.3c0,0-0.4-0.6-1.1-1.6c-0.7-1-1.4-2.3-2.2-3.6
		c-0.8-1.3-1.5-2.6-2-3.6c-0.5-1-0.8-1.7-0.8-1.7c-0.1-0.6,0.5,0.6,0.4-0.6c-1.8-3.6-3.9-7.7-5.3-12.5c1.5,3.3,2.8,5.3,4.2,7.6
		c0.7,1.1,1.3,2.4,2.1,3.9c0.4,0.8,0.8,1.6,1.2,2.5c0.4,0.9,0.8,2,1.3,3.1c-0.3-0.3-0.6-0.7-1-1.4c-0.4-0.6-0.8-1.5-1.4-2.7
		c0.4,1,0.8,1.8,1.1,2.5c0.4,0.7,0.7,1.4,1,2c0.6,1.1,1.2,2,1.7,2.9c0.6,0.8,1.1,1.6,1.6,2.5c0.3,0.5,0.6,1,0.9,1.5
		c0.3,0.5,0.6,1.1,1,1.8c3.6,6.3,3.1,4.5,2.9,5.7c0,0,0.7,1.2,1.8,3c1.1,1.8,2.5,4.3,4.1,6.7c1.5,2.4,3,4.8,4.3,6.6c1.2,1.8,2,3,2,3
		c4.4,3.9,8.5,8.9,12.4,13.1c3.9,4.2,7.7,7.6,9.4,8.9c-0.8,0-2.2-0.6-3.8-1.6c-1.5-1-3.4-2.4-5.1-3.9c-0.9-0.8-1.8-1.5-2.6-2.3
		c-0.8-0.8-1.6-1.6-2.4-2.3c-0.8-0.7-1.6-1.4-2.3-2.1c-0.7-0.6-1.4-1.2-2-1.6c0,0,0.3,0.5,0.7,1.2c0.5,0.7,1,1.6,1.7,2.6
		c1.3,1.9,2.7,3.7,2.7,3.7l1.3-0.6c0,0,0.1,0.1,0.4,0.4c0.3,0.3,0.6,0.6,1.1,1c0.4,0.4,1,0.9,1.5,1.5c0.3,0.3,0.6,0.5,0.9,0.8
		c0.3,0.3,0.6,0.5,1,0.8c0.7,0.6,1.3,1.1,1.9,1.6c0.3,0.3,0.6,0.5,0.9,0.7c0.3,0.2,0.6,0.4,0.9,0.6c1.1,0.8,1.8,1.3,1.8,1.3
		l-0.8-0.2c0.9,0.2,1.7,0.5,2.7,0.9c1.1,0.4,2.2,1,3.8,2.1c0.5,0.4,1.7,1.3,0.1,0.8c0,0,0.6,0.2,1.6,0.5c0.5,0.2,1,0.3,1.6,0.5
		c0.3,0.1,0.6,0.2,0.9,0.3c0.3,0.1,0.6,0.1,1,0.2c1.3,0.3,2.6,0.6,3.5,0.8c1,0.1,1.6,0.2,1.6,0.2c-3.1,0.1-0.9,0.7,1.9,1.3
		c0.7,0.2,1.4,0.3,2.1,0.4c0.7,0.1,1.3,0.2,1.9,0.4c1.4,0.3,2.4,0.6,1.8,1c1.5,0,3,0,4.4,0c1.4,0,2.9,0.1,4.2-0.3
		c2.6-0.6,5-1.7,7-3.3c4-3,6.5-7.2,8.3-11.2c0.2-0.5,0.4-1,0.6-1.5c0.1-0.4,0.3-0.7,0.4-1.1c0.3-0.7,0.5-1.4,0.7-2.1
		c0.4-1.3,0.7-2.6,1-3.8c0.6-2.4,1-4.7,1.3-6.9c1.3-8.7,2.1-16.6,4.3-28.3c-1.1,3.8-1.9-7.7-1-14.9c0.8-4.1,1.2-5.1,1.6-2.4l0-9.4
		c1.8-5.7,2.6-11.4,3.4-17.7c0.8-6.3,1.6-13.2,3.7-20.9l0.5,1c0.2-2.9,0.6-6,1.3-9.1c0.4-1.6,0.9-3.1,1.5-4.7
		c0.6-1.5,1.5-3.2,2.4-4.7c0,0,0.1,0.5,0.3,0.9c0.2,0.5,0.3,0.9,0.3,0.9c0.6-0.9,1.1-1.6,1.5-2.2c0.2-0.3,0.4-0.6,0.5-0.9
		c0.1-0.3,0.3-0.5,0.4-0.7c0.4-0.9,0.6-1.6,0.8-2.4c0.1-0.3,0.2-0.7,0.4-1.1c0.2-0.4,0.4-0.7,0.7-1.1c0.7-0.7,1.7-1.4,3.9-1.9
		c-0.3-0.7-1.8-0.9-3.4-0.7c-1.5,0.1-3.1,0.6-4,0.3c0.3-0.1,0.8-0.1,1.2-0.3c0.2-0.1,0.5-0.2,0.7-0.3c0.3-0.1,0.5-0.2,0.8-0.3
		c0.5-0.2,1.2-0.4,1.7-0.6c0.6-0.2,1.2-0.4,1.9-0.5c0.3-0.1,0.6-0.2,0.9-0.3c0.3-0.1,0.6-0.2,0.9-0.2c0.5-0.2,1.1-0.3,1.4-0.5
		c0.7-0.3,0.9-0.5,0.2-0.6c2.8-0.8,5.1-1.3,6.7-1.6c1.6-0.4,2.4-0.5,2.9-0.6c0.9-0.1,0.2,0.4,0.8,0.4c0,0,0.5-0.2,1.3-0.6
		c0.4-0.2,0.9-0.4,1.4-0.6c0.5-0.3,1-0.5,1.6-0.8c1.1-0.5,2.1-1.2,2.9-1.7c0.8-0.5,1.3-0.9,1.3-0.9c2.5-1.4,3.9-2.4,4.7-2.8
		c0.8-0.4,0.9-0.1,0.7,0.4c-0.2,0.6-0.8,1.5-1.7,2.5c-0.4,0.5-0.9,1-1.4,1.5c-0.5,0.4-1,0.9-1.4,1.3c2.4-1.8,4.6-3.8,6.7-5.9
		c1-1.1,2-2.1,2.9-3.2c0.5-0.6,0.9-1.1,1.4-1.7c0.4-0.6,0.8-1.1,1.3-1.7c3.3-4.5,6-9.3,8.1-14.2c0,0-0.2,1.1-0.5,2.2
		c-0.3,1.1-0.6,2.2-0.6,2.2s0.1-0.2,0.3-0.6c0.2-0.4,0.4-0.9,0.7-1.5c0.5-1.2,1.2-2.9,1.9-4.5c0.6-1.6,1.2-3.3,1.6-4.5
		c0.4-1.1,0.6-1.9,0.6-1.9c1.4-8.3,4.8-19.3,8.7-29.3l-0.3,7.6c3.3-6.8,0.5-3.9,0.8-5.9c2.7-11.6,4.8-13.6,7.9-19.1
		c1.9-9.3,5.8-18,9.4-26.3C462.9,46.5,466.4,38.6,467.7,30.5z M962.6,23.9l-0.3-1.7C964,25.7,965.1,27.7,962.6,23.9z M930.2,38.7
		c2.2-12.4,2.2-8.2,3-9c-3.6,11.8-4.5,18.7-7.6,29.2c0.8-1.6,1.4-1.8,1.9-2.3c-1.1,4.2-2.5,8.4-3.9,9.6c-0.4-2.9,1.8-11,3.9-17.8
		C929.5,41.6,931.4,36.2,930.2,38.7z M1015,143.1c-0.3-0.3-0.7-0.7-1-1.1c0,0,0,0,0-0.1L1015,143.1z M993.3,85.6
		c0.1-1-0.1-2.5-0.5-4.4C992.6,82.6,992.5,83.8,993.3,85.6z M937.8-16.4c-1.2,0.8-3,3.2-4.6,6.4c-1.6,3.2-3,7.3-4,10.7
		c0.3-0.8,0.6-1.7,1.1-2.8c0.4-1.1,1-2.4,1.6-3.8c0.3-0.7,0.7-1.5,1.1-2.3c0.2-0.4,0.4-0.8,0.6-1.3c0.2-0.4,0.5-0.9,0.7-1.3
		C935.2-12.6,936.4-14.5,937.8-16.4z M628.8,185.6c0.6,0,1.3-0.2,1.9-0.6c0.6-0.4,1.1-0.8,1.4-1.2c0.3-0.4,0.4-0.7,0.3-0.8
		c-0.1-0.1-0.5-0.1-1.2,0c-0.6,0.8-1.9,0.9-2.8,0.3c-1-0.6-1.6-1.4-2.3-1.4c-0.1-0.2-0.1-0.2-0.1-0.4c0.3,1.1,0.8,2.2,1.4,2.9
		C627.8,185.1,628.5,185.5,628.8,185.6z M497.9,35.3c1,0.4,2.7,2.8,2.8,0.9c0.1,0.3,0.2,0.7,0.2,1c0-1,0-1.8,0.4-1.2
		c-0.7-2.9-1.4-6-2.3-7.9C496.1,28,493.9,22.1,497.9,35.3z"/>
	<path class="st2" d="M541.1-7.1c-0.9,2.2-1.6,3.9-2.1,5.4C539.5-3.2,540.2-4.9,541.1-7.1z"/>
	<path class="st2" d="M499.2,28.7c-0.2-0.2,0.5,3.3,1.5,7.5C500.8,35.3,500.4,33.2,499.2,28.7z"/>
	<path class="st2" d="M1115.9,176.9l-0.9-3.5l0.5,7.3c3.1,11.8,4.4,12.2,6.2,14.9c-3.2-10.5-3.8-17.2-6.7-30.8L1115.9,176.9z"/>
	<path class="st2" d="M1123.7,169.1c0.1-1.3,0.5-4.4,0.2-6.3l-1.2-1.6L1123.7,169.1z"/>
	<path class="st2" d="M1050.2,153.5c0,0,0.2,0,0.6-0.1c0.3-0.1,0.8-0.3,1.2-0.6c0.7-0.5,1.5-1.3,2.1-1.9c0.3-0.3,0.6-0.6,0.7-0.8
		c0.2-0.2,0.3-0.3,0.3-0.3c0.7-1.5-1,0-2.7,1.5c-0.2,0.2-0.4,0.4-0.6,0.5c-0.2,0.1-0.4,0.4-0.5,0.4c-0.1,0.1-0.3,0.3-0.5,0.4
		C1050.4,152.9,1050.2,153.2,1050.2,153.5z"/>
	<path class="st2" d="M1086.5,123.7c0,0,0.1-0.3,0.4-0.9c0.1-0.4,0.3-0.9,0.5-1.4c0.4-1,0.9-2.1,0.9-2.1c-0.7,0.7-1.4,1.5-2,2.4
		c-0.3,0.4-0.7,1.1-1.1,1.6c-0.4,0.6-0.7,1.2-1,1.7c-1.3,2.3-2.1,4.3-1.9,5c1.5-3.3,1.9-3.6,2.2-3.7
		C1084.7,126.3,1085,126.3,1086.5,123.7z"/>
	<path class="st2" d="M1028.1,153.8c-1.2,0.3-2.6-1-3.7-2.6c-1.2-1.6-2.2-3.4-3.3-3.8c0.8,1,2.3,3.3,3.7,4.8
		C1026.2,153.8,1027.6,154.5,1028.1,153.8z"/>
	<path class="st2" d="M1030,170.6c2.2,1.1,5.4,1.1,8.6,0.6c3.2-0.5,6.5-1.3,9.6-1.4c-2.6,0.2-6.2,0.5-9.7,0.6
		C1035,170.5,1031.6,170.3,1030,170.6z"/>
	<path class="st2" d="M1001.2,106.1c1.3,0.2,2.7,4.9,4.1,10.2c-0.9-1.6-1.8-2.6-2.7-4.9c1.8,4.2,2.7,6.5,3.5,8.5
		c0.8,2,1.5,4,2.9,7.2c-0.4-1.8-0.8-3.7-1.2-5.7c-0.4-2-0.9-4-1.2-5.7c-0.7-3.5-0.9-5.9-0.1-5.6
		C1003.8,105.2,1000.1,99.4,1001.2,106.1z"/>
	<path class="st2" d="M1011.4,159.6c2,2.9,3.9,5.3,6.5,7.5c0.7,0.5,1.4,1.1,2.1,1.6c0.8,0.5,1.6,1,2.5,1.4c1.8,0.9,4,1.6,6.5,1.9
		c-0.4-0.3-0.9-0.5-1.5-0.9c-0.3-0.2-0.7-0.4-1.1-0.6c-0.4-0.2-0.9-0.5-1.5-0.8c-2.2-1.1-5.5-2.8-9.4-6.3c0,0,0.9,0.4,1.8,0.7
		c0.9,0.3,1.9,0.6,1.9,0.6c-1.8-1.6-2.3-2.3-2.7-2.4c-0.3-0.1-0.2,0.3-0.2,0.7c0,0.4-0.1,0.7-0.9,0.3c-0.4-0.2-0.9-0.5-1.6-1.1
		c-0.3-0.3-0.7-0.7-1.2-1.1C1012.4,160.8,1011.9,160.3,1011.4,159.6z"/>
	<path class="st2" d="M993.8,73.2l0.6,3.7c3.7,7.8,6.6,18.4,9.7,22.4C1000.8,89.5,996.2,77.6,993.8,73.2z"/>
	<path class="st2" d="M999.9,130.3l-2.2-0.5c2.5,8.4,0.4-0.8,1.8,2c0.5,2.4,1.7,6,2.7,7.6c-1-2.3-1.4-3.5-1.5-4.2
		c-0.1-0.7,0-0.8,0.2-0.8C1001.3,134.2,1001.6,134.2,999.9,130.3z"/>
	<path class="st2" d="M989.3,104.3l-4.1-10.1l0.6,8.7C990.4,114.8,987.1,103.1,989.3,104.3z"/>
	<path class="st2" d="M986.4,91.2l0-1.3l-7.8-14.6C982.8,84.1,982.8,84.8,986.4,91.2z"/>
	<path class="st2" d="M913,57.2c0.4,2,3.6-7.1,1.7-3.3C914.5,51.9,910.5,64.1,913,57.2z"/>
	<path class="st2" d="M937.2,23c-0.9,2.1-2,6.9-3,12c-1,5.1-1.8,10.5-2.3,13.8c0.7-3.9,2.3-10.6,3.6-16.2
		C936.8,27.1,937.8,22.6,937.2,23z"/>
	<path class="st2" d="M931.5,51.5c0.1-0.5,0.2-1.5,0.4-2.7C931.6,50,931.5,50.9,931.5,51.5z"/>
	<path class="st2" d="M823.8,124.8c-0.1,0-0.1,0.1-0.2,0.3C823.7,124.9,823.7,124.9,823.8,124.8z"/>
	<path class="st2" d="M824.5,124.5c0.1,0.4,0.4,0.6,0.7,0.8c0.1,0.1,0.2,0.1,0.4,0.3c0.1,0.1,0.2,0.1,0.3,0.2
		c0.2,0.2,0.3,0.4,0.5,0.6c0.6,0.8,1.1,1.4,1.5,1.6c-0.4-0.7-0.8-1.4-1.2-2l-0.3-0.5l-0.1-0.2c-0.1-0.1-0.2-0.3-0.3-0.3
		c-0.2-0.2-0.5-0.4-0.7-0.5c-0.5-0.2-1-0.3-1.4,0.2c0.1,0,0.3,0.2,0.3,0.3C824.2,125.2,824.3,125.1,824.5,124.5z"/>
	<path class="st2" d="M810.7,159.9c0.5-3.4,2.2-7.7,1.1-6.8C810.8,154.8,809.5,161.9,810.7,159.9z"/>
	<path class="st2" d="M619.2,142.9c-1.1-6-2.2-9.5-3-7.6C617.8,142,617.6,138.2,619.2,142.9z"/>
	<polygon class="st2" points="614.1,127.7 614.4,126.8 614.4,122.6 	"/>
	<path class="st2" d="M606.2,85.8c0.3,0.3,0.7,1.3,1.1,2.4C606.6,85.9,605.9,83.9,606.2,85.8z"/>
	<path class="st2" d="M607.6,89.4c-0.1-0.4-0.2-0.8-0.3-1.2C607.4,88.6,607.5,89,607.6,89.4z"/>
	<path class="st2" d="M607.9,92.2l0.7,0.3c-0.2-0.7-0.6-1.9-1-3.2C607.9,90.5,608.1,91.7,607.9,92.2z"/>
	<path class="st2" d="M603.5,73.2l0,8.4c2.8,8.1-1.2-9.6,2.5-1.9L603.5,73.2z"/>
	<path class="st2" d="M596.5,45.5c-0.7-3.9-2.3-8.4-3.8-12.6c-1.5-4.2-2.6-7.9-2.2-10.4c-3.6-10.7-4.1-9.2-4.7-8.1
		c-0.6,1.1-1.1,1.8-5.4-10.5c3.1,11.9,4.8,14.5,6.6,16.9c1.7,2.4,3.3,4.4,5.4,15c-0.7-5.2,0-3.6,1.1-0.2
		C594.6,38.9,595.9,43.9,596.5,45.5z"/>
	<path class="st2" d="M593.9,50.1c1.4,1-0.9-8.7-2.4-11.6C592.1,41.4,591.9,46.6,593.9,50.1z"/>
	<path class="st2" d="M584.1,3.3c0,0,0-0.1-0.1-0.3c0-0.1,0-0.2-0.1-0.3c0-0.1,0-0.1,0-0.2l0-0.1l-0.1-0.2c-0.3-1.1-0.8-2.5-1.2-4
		c-0.9-3-1.8-6-1.8-6l-1.7-2.5c0,0,1.3,3.6,2.6,7.1c0.6,1.8,1.3,3.6,1.8,4.9c0.3,0.8,0.3,1,0.4,1.2C584,3.2,584.1,3.3,584.1,3.3z"/>
	<path class="st2" d="M564.2-28c0,0,0.1,0,0.4,0c0.2,0,0.5,0.1,0.9,0.2c0.4,0.1,0.8,0.1,1.2,0.3c0.4,0.1,0.9,0.2,1.3,0.4
		c0.9,0.3,1.7,0.7,2.4,1c0.3,0.1,0.6,0.3,0.8,0.4c0.2,0.1,0.3,0.2,0.3,0.2c-0.6-0.3-1.6-1-2.8-1.6c-1.2-0.6-2.6-1.2-3.9-1.5
		c-1.3-0.3-2.4-0.4-2.7-0.3C561.8-28.8,562.5-28.7,564.2-28z"/>
	<path class="st2" d="M532.1,6.8c-1.2,2.9-1.6,6-1.2,6.7c0.4,0.7,1.5-0.9,3.4-7.3L533.2,9C533,8.1,529.8,14.6,532.1,6.8z"/>
	<path class="st2" d="M514.4,52.4c0.3,0.8,0.8,1.5,1.2,1.8c0.4,0.3,0.7,0.2,0.7-0.4c0,0-0.6-0.5-1.1-1.2c-0.5-0.7-1-1.5-1-1.5
		s0.1,0.3,0.1,0.7C514.3,52.1,514.4,52.4,514.4,52.4z"/>
	<path class="st2" d="M510.6,61.5c0.1,1.3,0.5,2.6,1.1,3.7c0.6,1.2,1.4,2.3,2.4,3.2c0.3,0.2,0.6,0.4,0.8,0.7c0.3,0.2,0.6,0.4,1,0.5
		c0.7,0.3,1.5,0.5,2.3,0.2c1.7-0.4,2.9-1.8,4-2.9c-1.2,1.5-2.4,2.3-3.6,2.5c-1.1,0.2-2.1-0.2-2.9-0.8c-0.8-0.6-1.5-1.4-2.4-2.5
		C512.6,65.1,511.6,63.6,510.6,61.5z"/>
	<path class="st2" d="M514.6,45.8c0.2,0.3,0.4,0.7,0.6,1.1c0.1,0.2,0.2,0.4,0.3,0.5c0,0,0.1,0.1,0.1,0.1c0.1,0.1,0.2,0.3,0.2,0.5
		c0.1,0.3,0.1,0.8,0.2,1.1c0.3-0.6,0.3-1.1,0.1-1.4c-0.1-0.2-0.2-0.3-0.4-0.4c0,0-0.2-0.2-0.3-0.4c-0.1-0.2-0.2-0.3-0.3-0.5
		C514.9,46.2,514.7,45.9,514.6,45.8z"/>
	<path class="st2" d="M508.5,28.7c-0.4-3.8,1.2,0.5,0.8-2.4c-1.6-8-4.3-16.3-6.7-20.6c0,2.4-1,5.8-2.9,2.8
		c4.6,12.4,9.6,17.9,9.1,24.6c0,0,1.5,2.3,3.1,4.7c1.5,2.3,3.1,4.6,3.1,4.6c-1.3-4.9-2.4-6.6-3.5-7.9
		C510.4,33.1,509.4,32.1,508.5,28.7z"/>
	<path class="st2" d="M510.5,53.3c0,0-0.2-1.3-0.4-2.4c-0.1-0.6-0.1-1.1-0.2-1.5c-0.1-0.6-0.2-1.1-0.2-1.1c-0.5,1.6-2.4-3.2-3.8-6.6
		c-0.8,1.2,0.1,3.7,1.4,6.3c0.3,0.6,0.7,1.3,1,2c0.3,0.5,0.6,0.9,0.8,1.3C509.7,52.1,510.2,52.7,510.5,53.3z"/>
	<path class="st2" d="M460.8-11.2c0,0-2.3,5.6-4.5,11.2c-1.4,3.9-2.8,7.7-2.8,7.7l2.1-4.9c0,0,0.2-0.7,0.6-1.6
		c0.1-0.2,0.2-0.5,0.3-0.8c0-0.1,0.1-0.3,0.1-0.4c0.1-0.2,0.2-0.4,0.2-0.6c0.3-0.9,0.7-1.8,1.1-2.8C459.3-7.3,460.8-11.2,460.8-11.2
		z"/>
	<path class="st2" d="M454.5,1.7l-0.7,0.1c0,0-0.9,3.1-1.8,6.1c-0.8,2.8-1.5,5.6-1.5,5.6s1-2.8,1.9-5.6
		C453.4,4.8,454.5,1.7,454.5,1.7z"/>
	<path class="st2" d="M447.8,16.7l0.7-1.6c0,0,0.7-2.1,1.3-4.2c0.3-1.1,0.7-2.1,0.9-2.9c0.1-0.4,0.2-0.8,0.3-1
		c0.1-0.3,0.1-0.4,0.1-0.4s-0.2,0.7-0.6,1.7c-0.3,0.9-0.7,2.2-1.2,3.5c-0.4,1.3-0.9,2.5-1.2,3.5C448,16,447.8,16.7,447.8,16.7z"/>
	<path class="st2" d="M436.8,45.9l1.8-2.3c1-3.7,4.6-10.4,3.1-10.2C441,36.6,438.2,44,436.8,45.9z"/>
	<path class="st2" d="M423.5,153.3c1.5-3.3-0.2-1.8-1.8-0.5c0,0-0.4,1.3-1.1,2.7c-0.3,0.7-0.6,1.4-0.9,1.9c-0.3,0.5-0.5,0.9-0.5,0.9
		C420.4,156.9,422.4,154.2,423.5,153.3z"/>
	<path class="st2" d="M402.4,166.2c0,0-0.8,0.4-2,0.9c-0.6,0.2-1.3,0.5-2,0.8c-0.7,0.3-1.5,0.6-2.2,0.9c-1.4,0.5-2.8,1-3.8,1.4
		c-0.9,0.4-1.5,0.6-1.5,0.6c2.8-0.5,5.6-1,8.1-1.8c2.5-0.7,4.8-1.7,6.9-2.8c2.1-1.2,4.2-2.4,6.3-4.2c2.2-1.7,4.4-3.8,6.8-6.6
		c-2.3,2.1-4.9,5-8.4,7.4c-3.5,2.4-7.6,4.2-11.2,4.9c0,0,0.2-0.1,0.5-0.2c0.3-0.1,0.7-0.3,1-0.5
		C401.6,166.6,402.4,166.2,402.4,166.2z"/>
	<path class="st2" d="M294.3,296.7c1.6,0-0.5-1.8,6.3,4c-1.2-1-2.2-2-3.3-3.1c-0.5-0.5-1.1-1-1.6-1.5c-0.5-0.5-1-1.1-1.4-1.6
		c-0.9-1.1-1.9-2.1-2.8-3.2c-0.9-1.1-1.8-2.2-2.6-3.3c-1.7-2.2-3.4-4.5-5.2-6.9c-1.7-2.4-3.5-4.9-5.3-7.6c0.6,2.3-5.9-5.1-2.8-1.1
		c0,0,0.5,0.7,1.4,1.8c0.8,1.1,1.9,2.6,3,4c1.1,1.5,2.2,2.9,3.1,4c0.9,1.1,1.5,1.8,1.5,1.8l-2-1.3c2.7,4.5,4,5.7,5.4,6.9
		C289.3,290.8,290.7,292.1,294.3,296.7z"/>
	<path class="st2" d="M51.4,64.5c-0.1-1.4-1.2,0-2.2,1.5C47.1,74.3,51.9,62.8,51.4,64.5z"/>
</g>
</svg>
