<?xml version="1.0" encoding="utf-8"?>
<!-- Generator: Adobe Illustrator 19.0.0, SVG Export Plug-In . SVG Version: 6.00 Build 0)  -->
<svg version="1.1" id="Layer_1" xmlns="http://www.w3.org/2000/svg" xmlns:xlink="http://www.w3.org/1999/xlink" x="0px" y="0px"
	 viewBox="-349 0 500 500" style="enable-background:new -349 0 500 500;" xml:space="preserve">
<style type="text/css">
	.st0{display:none;}
	.st1{display:inline;fill:#5D5D5D;}
	.st2{display:inline;}
	.st3{fill:none;stroke:#EDEDED;stroke-width:0.5;stroke-miterlimit:10;}
	.st4{fill:none;stroke:#BDBDBD;stroke-miterlimit:10;}
	.st5{fill:none;stroke:#666666;stroke-width:32;stroke-linecap:round;stroke-miterlimit:10;}
</style>
<g id="Layer_2" class="st0">
	<rect x="-698" class="st1" width="500" height="500"/>
</g>
<g id="Layer_1_1_" class="st0">
	<g class="st2">
		<rect x="-448" y="350" class="st3" width="25" height="25"/>
		<rect x="-523" y="350" class="st3" width="25" height="25"/>
		<rect x="-473" y="350" class="st3" width="25" height="25"/>
		<rect x="-498" y="350" class="st3" width="25" height="25"/>
		<rect x="-573" y="325" class="st3" width="25" height="25"/>
		<rect x="-573" y="350" class="st3" width="25" height="25"/>
		<rect x="-548" y="350" class="st3" width="25" height="25"/>
		<rect x="-423" y="350" class="st3" width="25" height="25"/>
		<rect x="-348" y="300" class="st3" width="25" height="25"/>
		<rect x="-573" y="300" class="st3" width="25" height="25"/>
		<rect x="-348" y="325" class="st3" width="25" height="25"/>
		<rect x="-348" y="275" class="st3" width="25" height="25"/>
		<rect x="-398" y="350" class="st3" width="25" height="25"/>
		<rect x="-348" y="350" class="st3" width="25" height="25"/>
		<rect x="-348" y="250" class="st3" width="25" height="25"/>
		<rect x="-373" y="350" class="st3" width="25" height="25"/>
		<rect x="-448" y="125" class="st3" width="25" height="25"/>
		<rect x="-473" y="125" class="st3" width="25" height="25"/>
		<rect x="-498" y="125" class="st3" width="25" height="25"/>
		<rect x="-398" y="125" class="st3" width="25" height="25"/>
		<rect x="-373" y="125" class="st3" width="25" height="25"/>
		<rect x="-523" y="125" class="st3" width="25" height="25"/>
		<rect x="-423" y="125" class="st3" width="25" height="25"/>
		<rect x="-573" y="175" class="st3" width="25" height="25"/>
		<rect x="-573" y="200" class="st3" width="25" height="25"/>
		<rect x="-573" y="225" class="st3" width="25" height="25"/>
		<rect x="-573" y="250" class="st3" width="25" height="25"/>
		<rect x="-573" y="275" class="st3" width="25" height="25"/>
		<rect x="-548" y="125" class="st3" width="25" height="25"/>
		<rect x="-573" y="125" class="st3" width="25" height="25"/>
		<rect x="-573" y="150" class="st3" width="25" height="25"/>
		<rect x="-348" y="150" class="st3" width="25" height="25"/>
		<rect x="-598" y="275" class="st3" width="25" height="25"/>
		<rect x="-598" y="300" class="st3" width="25" height="25"/>
		<rect x="-598" y="250" class="st3" width="25" height="25"/>
		<rect x="-598" y="175" class="st3" width="25" height="25"/>
		<rect x="-598" y="150" class="st3" width="25" height="25"/>
		<rect x="-598" y="200" class="st3" width="25" height="25"/>
		<rect x="-598" y="225" class="st3" width="25" height="25"/>
		<rect x="-598" y="325" class="st3" width="25" height="25"/>
		<rect x="-498" y="375" class="st3" width="25" height="25"/>
		<rect x="-473" y="375" class="st3" width="25" height="25"/>
		<rect x="-523" y="375" class="st3" width="25" height="25"/>
		<rect x="-548" y="375" class="st3" width="25" height="25"/>
		<rect x="-598" y="375" class="st3" width="25" height="25"/>
		<rect x="-573" y="375" class="st3" width="25" height="25"/>
		<rect x="-598" y="350" class="st3" width="25" height="25"/>
		<rect x="-598" y="125" class="st3" width="25" height="25"/>
		<rect x="-348" y="100" class="st3" width="25" height="25"/>
		<rect x="-398" y="100" class="st3" width="25" height="25"/>
		<rect x="-423" y="100" class="st3" width="25" height="25"/>
		<rect x="-348" y="125" class="st3" width="25" height="25"/>
		<rect x="-373" y="150" class="st3" width="25" height="25"/>
		<rect x="-348" y="200" class="st3" width="25" height="25"/>
		<rect x="-348" y="175" class="st3" width="25" height="25"/>
		<rect x="-598" y="100" class="st3" width="25" height="25"/>
		<rect x="-573" y="100" class="st3" width="25" height="25"/>
		<rect x="-348" y="225" class="st3" width="25" height="25"/>
		<rect x="-548" y="100" class="st3" width="25" height="25"/>
		<rect x="-448" y="100" class="st3" width="25" height="25"/>
		<rect x="-473" y="100" class="st3" width="25" height="25"/>
		<rect x="-498" y="100" class="st3" width="25" height="25"/>
		<rect x="-523" y="100" class="st3" width="25" height="25"/>
		<rect x="-423" y="175" class="st3" width="25" height="25"/>
		<rect x="-523" y="175" class="st3" width="25" height="25"/>
		<rect x="-523" y="225" class="st3" width="25" height="25"/>
		<rect x="-523" y="200" class="st3" width="25" height="25"/>
		<rect x="-498" y="175" class="st3" width="25" height="25"/>
		<rect x="-448" y="375" class="st3" width="25" height="25"/>
		<rect x="-448" y="175" class="st3" width="25" height="25"/>
		<rect x="-423" y="200" class="st3" width="25" height="25"/>
		<rect x="-473" y="175" class="st3" width="25" height="25"/>
		<rect x="-448" y="300" class="st3" width="25" height="25"/>
		<rect x="-398" y="300" class="st3" width="25" height="25"/>
		<rect x="-423" y="300" class="st3" width="25" height="25"/>
		<rect x="-473" y="300" class="st3" width="25" height="25"/>
		<rect x="-523" y="275" class="st3" width="25" height="25"/>
		<rect x="-523" y="300" class="st3" width="25" height="25"/>
		<rect x="-498" y="300" class="st3" width="25" height="25"/>
		<rect x="-523" y="250" class="st3" width="25" height="25"/>
		<rect x="-498" y="200" class="st3" width="25" height="25"/>
		<rect x="-473" y="200" class="st3" width="25" height="25"/>
		<rect x="-448" y="225" class="st3" width="25" height="25"/>
		<rect x="-448" y="200" class="st3" width="25" height="25"/>
		<rect x="-423" y="225" class="st3" width="25" height="25"/>
		<rect x="-473" y="250" class="st3" width="25" height="25"/>
		<rect x="-448" y="250" class="st3" width="25" height="25"/>
		<rect x="-473" y="225" class="st3" width="25" height="25"/>
		<rect x="-423" y="275" class="st3" width="25" height="25"/>
		<rect x="-448" y="275" class="st3" width="25" height="25"/>
		<rect x="-423" y="250" class="st3" width="25" height="25"/>
		<rect x="-498" y="225" class="st3" width="25" height="25"/>
		<rect x="-498" y="250" class="st3" width="25" height="25"/>
		<rect x="-498" y="275" class="st3" width="25" height="25"/>
		<rect x="-473" y="275" class="st3" width="25" height="25"/>
		<rect x="-373" y="175" class="st3" width="25" height="25"/>
		<rect x="-473" y="325" class="st3" width="25" height="25"/>
		<rect x="-498" y="325" class="st3" width="25" height="25"/>
		<rect x="-448" y="325" class="st3" width="25" height="25"/>
		<rect x="-523" y="325" class="st3" width="25" height="25"/>
		<rect x="-548" y="300" class="st3" width="25" height="25"/>
		<rect x="-548" y="325" class="st3" width="25" height="25"/>
		<rect x="-423" y="325" class="st3" width="25" height="25"/>
		<rect x="-373" y="300" class="st3" width="25" height="25"/>
		<rect x="-373" y="250" class="st3" width="25" height="25"/>
		<rect x="-373" y="225" class="st3" width="25" height="25"/>
		<rect x="-398" y="325" class="st3" width="25" height="25"/>
		<rect x="-373" y="200" class="st3" width="25" height="25"/>
		<rect x="-373" y="325" class="st3" width="25" height="25"/>
		<rect x="-548" y="275" class="st3" width="25" height="25"/>
		<rect x="-373" y="275" class="st3" width="25" height="25"/>
		<rect x="-398" y="225" class="st3" width="25" height="25"/>
		<rect x="-548" y="250" class="st3" width="25" height="25"/>
		<rect x="-423" y="150" class="st3" width="25" height="25"/>
		<rect x="-398" y="175" class="st3" width="25" height="25"/>
		<rect x="-398" y="200" class="st3" width="25" height="25"/>
		<rect x="-398" y="250" class="st3" width="25" height="25"/>
		<rect x="-398" y="275" class="st3" width="25" height="25"/>
		<rect x="-448" y="150" class="st3" width="25" height="25"/>
		<rect x="-398" y="150" class="st3" width="25" height="25"/>
		<rect x="-548" y="200" class="st3" width="25" height="25"/>
		<rect x="-548" y="225" class="st3" width="25" height="25"/>
		<rect x="-548" y="175" class="st3" width="25" height="25"/>
		<rect x="-523" y="150" class="st3" width="25" height="25"/>
		<rect x="-498" y="150" class="st3" width="25" height="25"/>
		<rect x="-548" y="150" class="st3" width="25" height="25"/>
		<rect x="-473" y="150" class="st3" width="25" height="25"/>
		<rect x="-373" y="100" class="st3" width="25" height="25"/>
		<rect x="-648" y="125" class="st3" width="25" height="25"/>
		<rect x="-648" y="150" class="st3" width="25" height="25"/>
		<rect x="-648" y="100" class="st3" width="25" height="25"/>
		<rect x="-648" y="175" class="st3" width="25" height="25"/>
		<rect x="-648" y="50" class="st3" width="25" height="25"/>
		<rect x="-623" y="50" class="st3" width="25" height="25"/>
		<rect x="-648" y="200" class="st3" width="25" height="25"/>
		<rect x="-648" y="75" class="st3" width="25" height="25"/>
		<rect x="-648" y="325" class="st3" width="25" height="25"/>
		<rect x="-598" y="50" class="st3" width="25" height="25"/>
		<rect x="-648" y="350" class="st3" width="25" height="25"/>
		<rect x="-648" y="225" class="st3" width="25" height="25"/>
		<rect x="-648" y="375" class="st3" width="25" height="25"/>
		<rect x="-648" y="250" class="st3" width="25" height="25"/>
		<rect x="-648" y="300" class="st3" width="25" height="25"/>
		<rect x="-648" y="275" class="st3" width="25" height="25"/>
		<rect x="-398" y="50" class="st3" width="25" height="25"/>
		<rect x="-323" y="50" class="st3" width="25" height="25"/>
		<rect x="-348" y="50" class="st3" width="25" height="25"/>
		<rect x="-298" y="50" class="st3" width="25" height="25"/>
		<rect x="-298" y="75" class="st3" width="25" height="25"/>
		<rect x="-298" y="125" class="st3" width="25" height="25"/>
		<rect x="-298" y="100" class="st3" width="25" height="25"/>
		<rect x="-573" y="50" class="st3" width="25" height="25"/>
		<rect x="-373" y="50" class="st3" width="25" height="25"/>
		<rect x="-523" y="50" class="st3" width="25" height="25"/>
		<rect x="-548" y="50" class="st3" width="25" height="25"/>
		<rect x="-298" y="150" class="st3" width="25" height="25"/>
		<rect x="-423" y="50" class="st3" width="25" height="25"/>
		<rect x="-473" y="50" class="st3" width="25" height="25"/>
		<rect x="-648" y="400" class="st3" width="25" height="25"/>
		<rect x="-448" y="50" class="st3" width="25" height="25"/>
		<rect x="-498" y="50" class="st3" width="25" height="25"/>
		<rect x="-273" y="275" class="st3" width="25" height="25"/>
		<rect x="-273" y="300" class="st3" width="25" height="25"/>
		<rect x="-273" y="250" class="st3" width="25" height="25"/>
		<rect x="-273" y="350" class="st3" width="25" height="25"/>
		<rect x="-273" y="375" class="st3" width="25" height="25"/>
		<rect x="-273" y="225" class="st3" width="25" height="25"/>
		<rect x="-273" y="325" class="st3" width="25" height="25"/>
		<rect x="-273" y="400" class="st3" width="25" height="25"/>
		<rect x="-273" y="100" class="st3" width="25" height="25"/>
		<rect x="-273" y="75" class="st3" width="25" height="25"/>
		<rect x="-273" y="50" class="st3" width="25" height="25"/>
		<rect x="-273" y="150" class="st3" width="25" height="25"/>
		<rect x="-273" y="175" class="st3" width="25" height="25"/>
		<rect x="-273" y="125" class="st3" width="25" height="25"/>
		<rect x="-273" y="200" class="st3" width="25" height="25"/>
		<rect x="-373" y="425" class="st3" width="25" height="25"/>
		<rect x="-473" y="425" class="st3" width="25" height="25"/>
		<rect x="-548" y="425" class="st3" width="25" height="25"/>
		<rect x="-273" y="425" class="st3" width="25" height="25"/>
		<rect x="-523" y="425" class="st3" width="25" height="25"/>
		<rect x="-573" y="425" class="st3" width="25" height="25"/>
		<rect x="-623" y="425" class="st3" width="25" height="25"/>
		<rect x="-598" y="425" class="st3" width="25" height="25"/>
		<rect x="-498" y="425" class="st3" width="25" height="25"/>
		<rect x="-323" y="425" class="st3" width="25" height="25"/>
		<rect x="-448" y="425" class="st3" width="25" height="25"/>
		<rect x="-298" y="425" class="st3" width="25" height="25"/>
		<rect x="-348" y="425" class="st3" width="25" height="25"/>
		<rect x="-423" y="425" class="st3" width="25" height="25"/>
		<rect x="-398" y="425" class="st3" width="25" height="25"/>
		<rect x="-648" y="425" class="st3" width="25" height="25"/>
		<rect x="-498" y="75" class="st3" width="25" height="25"/>
		<rect x="-423" y="75" class="st3" width="25" height="25"/>
		<rect x="-448" y="75" class="st3" width="25" height="25"/>
		<rect x="-473" y="75" class="st3" width="25" height="25"/>
		<rect x="-373" y="75" class="st3" width="25" height="25"/>
		<rect x="-348" y="75" class="st3" width="25" height="25"/>
		<rect x="-398" y="75" class="st3" width="25" height="25"/>
		<rect x="-423" y="375" class="st3" width="25" height="25"/>
		<rect x="-623" y="75" class="st3" width="25" height="25"/>
		<rect x="-323" y="75" class="st3" width="25" height="25"/>
		<rect x="-523" y="75" class="st3" width="25" height="25"/>
		<rect x="-623" y="125" class="st3" width="25" height="25"/>
		<rect x="-623" y="100" class="st3" width="25" height="25"/>
		<rect x="-598" y="75" class="st3" width="25" height="25"/>
		<rect x="-548" y="75" class="st3" width="25" height="25"/>
		<rect x="-573" y="75" class="st3" width="25" height="25"/>
		<rect x="-398" y="375" class="st3" width="25" height="25"/>
		<rect x="-323" y="300" class="st3" width="25" height="25"/>
		<rect x="-323" y="325" class="st3" width="25" height="25"/>
		<rect x="-323" y="375" class="st3" width="25" height="25"/>
		<rect x="-323" y="100" class="st3" width="25" height="25"/>
		<rect x="-623" y="150" class="st3" width="25" height="25"/>
		<rect x="-373" y="375" class="st3" width="25" height="25"/>
		<rect x="-348" y="375" class="st3" width="25" height="25"/>
		<rect x="-323" y="350" class="st3" width="25" height="25"/>
		<rect x="-323" y="175" class="st3" width="25" height="25"/>
		<rect x="-323" y="150" class="st3" width="25" height="25"/>
		<rect x="-323" y="125" class="st3" width="25" height="25"/>
		<rect x="-323" y="275" class="st3" width="25" height="25"/>
		<rect x="-323" y="250" class="st3" width="25" height="25"/>
		<rect x="-323" y="200" class="st3" width="25" height="25"/>
		<rect x="-323" y="225" class="st3" width="25" height="25"/>
		<rect x="-298" y="200" class="st3" width="25" height="25"/>
		<rect x="-623" y="175" class="st3" width="25" height="25"/>
		<rect x="-348" y="400" class="st3" width="25" height="25"/>
		<rect x="-448" y="400" class="st3" width="25" height="25"/>
		<rect x="-298" y="375" class="st3" width="25" height="25"/>
		<rect x="-423" y="400" class="st3" width="25" height="25"/>
		<rect x="-398" y="400" class="st3" width="25" height="25"/>
		<rect x="-373" y="400" class="st3" width="25" height="25"/>
		<rect x="-298" y="400" class="st3" width="25" height="25"/>
		<rect x="-298" y="225" class="st3" width="25" height="25"/>
		<rect x="-298" y="175" class="st3" width="25" height="25"/>
		<rect x="-298" y="250" class="st3" width="25" height="25"/>
		<rect x="-298" y="350" class="st3" width="25" height="25"/>
		<rect x="-298" y="325" class="st3" width="25" height="25"/>
		<rect x="-298" y="300" class="st3" width="25" height="25"/>
		<rect x="-298" y="275" class="st3" width="25" height="25"/>
		<rect x="-323" y="400" class="st3" width="25" height="25"/>
		<rect x="-623" y="300" class="st3" width="25" height="25"/>
		<rect x="-623" y="325" class="st3" width="25" height="25"/>
		<rect x="-623" y="275" class="st3" width="25" height="25"/>
		<rect x="-623" y="225" class="st3" width="25" height="25"/>
		<rect x="-623" y="200" class="st3" width="25" height="25"/>
		<rect x="-623" y="350" class="st3" width="25" height="25"/>
		<rect x="-623" y="250" class="st3" width="25" height="25"/>
		<rect x="-498" y="400" class="st3" width="25" height="25"/>
		<rect x="-548" y="400" class="st3" width="25" height="25"/>
		<rect x="-523" y="400" class="st3" width="25" height="25"/>
		<rect x="-473" y="400" class="st3" width="25" height="25"/>
		<rect x="-573" y="400" class="st3" width="25" height="25"/>
		<rect x="-623" y="375" class="st3" width="25" height="25"/>
		<rect x="-623" y="400" class="st3" width="25" height="25"/>
		<rect x="-598" y="400" class="st3" width="25" height="25"/>
	</g>
	<g class="st2">
		<rect x="-648" y="50" class="st4" width="400" height="400"/>
		<rect x="-648" y="50" class="st4" width="50" height="50"/>
		<rect x="-298" y="50" class="st4" width="50" height="50"/>
		<rect x="-648" y="400" class="st4" width="50" height="50"/>
		<rect x="-298" y="400" class="st4" width="50" height="50"/>
		<rect x="-598" y="100" class="st4" width="150" height="150"/>
		<rect x="-448" y="100" class="st4" width="150" height="150"/>
		<rect x="-598" y="250" class="st4" width="150" height="150"/>
		<rect x="-448" y="250" class="st4" width="150" height="150"/>
		<line class="st4" x1="-648" y1="50" x2="-248" y2="450"/>
		<line class="st4" x1="-248" y1="50" x2="-648" y2="450"/>
		<circle class="st4" cx="-448" cy="250" r="150"/>
		<circle class="st4" cx="-448" cy="250" r="200"/>
	</g>
</g>
<g id="Layer_3">
	<g id="g2485_1_">
		<path id="path2487_1_" class="st5" d="M-249,250.4c13.6,33.1,26.9,70.2,50,98c32.8,39.6,60.1-12.7,74.4-40.3
			c16.8-32.4,29.3-67.2,44.1-100.6c10.2-23.1,37.9-90.1,72.2-64.5c15.7,11.7,24.4,31.7,33.1,48.5c9.8,19,18.1,39.1,26.2,58.9"/>
	</g>
</g>
</svg>
