<?xml version="1.0" encoding="iso-8859-1"?>
<!-- Generator: Adobe Illustrator 16.0.0, SVG Export Plug-In . SVG Version: 6.00 Build 0)  -->
<!DOCTYPE svg PUBLIC "-//W3C//DTD SVG 1.1//EN" "http://www.w3.org/Graphics/SVG/1.1/DTD/svg11.dtd">
<svg version="1.1" id="Capa_1" xmlns="http://www.w3.org/2000/svg" xmlns:xlink="http://www.w3.org/1999/xlink" x="0px" y="0px"
	 width="889.516px" height="889.516px" viewBox="0 0 889.516 889.516" style="enable-background:new 0 0 889.516 889.516;"
	 xml:space="preserve">
<g>
	<g>
		<path d="M449.56,663.408c-120.568,0-218.66-98.099-218.66-218.677c0-120.545,98.092-218.624,218.66-218.624
			c120.533,0,218.582,98.078,218.582,218.624C668.144,565.311,570.095,663.408,449.56,663.408L449.56,663.408z M449.56,245.17
			c-110.058,0-199.599,89.528-199.599,199.562c0,110.067,89.541,199.614,199.599,199.614c110.023,0,199.521-89.547,199.521-199.614
			C649.081,334.698,559.583,245.17,449.56,245.17L449.56,245.17z"/>
		<polygon points="459.054,889.516 439.989,889.516 439.989,699.948 459.054,699.948 		"/>
		<polygon points="459.054,188.87 439.989,188.87 439.989,0 459.054,0 		"/>
		<polygon points="884.751,454.288 705.669,454.288 705.669,435.228 884.751,435.228 		"/>
		<polygon points="193.902,454.288 4.765,454.288 4.765,435.228 193.902,435.228 		"/>
		<polygon points="712.769,723.626 631.509,642.361 644.985,628.886 726.243,710.148 		"/>
		<polygon points="259.641,270.469 175.256,186.072 188.733,172.595 273.118,256.993 		"/>
		<polygon points="644.985,267.333 631.509,253.856 712.769,172.598 726.243,186.075 		"/>
		<polygon points="188.727,723.626 175.25,710.148 259.641,625.758 273.118,639.234 		"/>
	</g>
</g>
<g>
</g>
<g>
</g>
<g>
</g>
<g>
</g>
<g>
</g>
<g>
</g>
<g>
</g>
<g>
</g>
<g>
</g>
<g>
</g>
<g>
</g>
<g>
</g>
<g>
</g>
<g>
</g>
<g>
</g>
</svg>
